G04 #@! TF.GenerationSoftware,KiCad,Pcbnew,6.0.11*
G04 #@! TF.CreationDate,2025-02-19T14:46:05+01:00*
G04 #@! TF.ProjectId,SPL06,53504c30-362e-46b6-9963-61645f706362,rev?*
G04 #@! TF.SameCoordinates,Original*
G04 #@! TF.FileFunction,Legend,Top*
G04 #@! TF.FilePolarity,Positive*
%FSLAX46Y46*%
G04 Gerber Fmt 4.6, Leading zero omitted, Abs format (unit mm)*
G04 Created by KiCad (PCBNEW 6.0.11) date 2025-02-19 14:46:05*
%MOMM*%
%LPD*%
G01*
G04 APERTURE LIST*
G04 Aperture macros list*
%AMRoundRect*
0 Rectangle with rounded corners*
0 $1 Rounding radius*
0 $2 $3 $4 $5 $6 $7 $8 $9 X,Y pos of 4 corners*
0 Add a 4 corners polygon primitive as box body*
4,1,4,$2,$3,$4,$5,$6,$7,$8,$9,$2,$3,0*
0 Add four circle primitives for the rounded corners*
1,1,$1+$1,$2,$3*
1,1,$1+$1,$4,$5*
1,1,$1+$1,$6,$7*
1,1,$1+$1,$8,$9*
0 Add four rect primitives between the rounded corners*
20,1,$1+$1,$2,$3,$4,$5,0*
20,1,$1+$1,$4,$5,$6,$7,0*
20,1,$1+$1,$6,$7,$8,$9,0*
20,1,$1+$1,$8,$9,$2,$3,0*%
%AMFreePoly0*
4,1,6,1.000000,0.000000,0.500000,-0.750000,-0.500000,-0.750000,-0.500000,0.750000,0.500000,0.750000,1.000000,0.000000,1.000000,0.000000,$1*%
%AMFreePoly1*
4,1,6,0.500000,-0.750000,-0.650000,-0.750000,-0.150000,0.000000,-0.650000,0.750000,0.500000,0.750000,0.500000,-0.750000,0.500000,-0.750000,$1*%
G04 Aperture macros list end*
%ADD10C,0.150000*%
%ADD11C,0.120000*%
%ADD12C,0.100000*%
%ADD13FreePoly0,180.000000*%
%ADD14FreePoly1,180.000000*%
%ADD15R,0.350000X0.500000*%
%ADD16RoundRect,0.250000X0.475000X-0.337500X0.475000X0.337500X-0.475000X0.337500X-0.475000X-0.337500X0*%
%ADD17RoundRect,0.237500X0.237500X-0.250000X0.237500X0.250000X-0.237500X0.250000X-0.237500X-0.250000X0*%
%ADD18RoundRect,0.237500X-0.237500X0.250000X-0.237500X-0.250000X0.237500X-0.250000X0.237500X0.250000X0*%
%ADD19O,1.700000X1.700000*%
G04 APERTURE END LIST*
D10*
X133913714Y-84224761D02*
X134056571Y-84272380D01*
X134294666Y-84272380D01*
X134389904Y-84224761D01*
X134437523Y-84177142D01*
X134485142Y-84081904D01*
X134485142Y-83986666D01*
X134437523Y-83891428D01*
X134389904Y-83843809D01*
X134294666Y-83796190D01*
X134104190Y-83748571D01*
X134008952Y-83700952D01*
X133961333Y-83653333D01*
X133913714Y-83558095D01*
X133913714Y-83462857D01*
X133961333Y-83367619D01*
X134008952Y-83320000D01*
X134104190Y-83272380D01*
X134342285Y-83272380D01*
X134485142Y-83320000D01*
X134913714Y-84272380D02*
X134913714Y-83272380D01*
X135151809Y-83272380D01*
X135294666Y-83320000D01*
X135389904Y-83415238D01*
X135437523Y-83510476D01*
X135485142Y-83700952D01*
X135485142Y-83843809D01*
X135437523Y-84034285D01*
X135389904Y-84129523D01*
X135294666Y-84224761D01*
X135151809Y-84272380D01*
X134913714Y-84272380D01*
X135866095Y-83986666D02*
X136342285Y-83986666D01*
X135770857Y-84272380D02*
X136104190Y-83272380D01*
X136437523Y-84272380D01*
X143033904Y-78252380D02*
X143652952Y-78252380D01*
X143319619Y-78633333D01*
X143462476Y-78633333D01*
X143557714Y-78680952D01*
X143605333Y-78728571D01*
X143652952Y-78823809D01*
X143652952Y-79061904D01*
X143605333Y-79157142D01*
X143557714Y-79204761D01*
X143462476Y-79252380D01*
X143176761Y-79252380D01*
X143081523Y-79204761D01*
X143033904Y-79157142D01*
X143938666Y-78252380D02*
X144272000Y-79252380D01*
X144605333Y-78252380D01*
X144843428Y-78252380D02*
X145462476Y-78252380D01*
X145129142Y-78633333D01*
X145272000Y-78633333D01*
X145367238Y-78680952D01*
X145414857Y-78728571D01*
X145462476Y-78823809D01*
X145462476Y-79061904D01*
X145414857Y-79157142D01*
X145367238Y-79204761D01*
X145272000Y-79252380D01*
X144986285Y-79252380D01*
X144891047Y-79204761D01*
X144843428Y-79157142D01*
D11*
X138887428Y-85548428D02*
X139087428Y-86148428D01*
X139287428Y-85548428D01*
X139716000Y-86119857D02*
X139658857Y-86148428D01*
X139544571Y-86148428D01*
X139487428Y-86119857D01*
X139458857Y-86062714D01*
X139458857Y-85834142D01*
X139487428Y-85777000D01*
X139544571Y-85748428D01*
X139658857Y-85748428D01*
X139716000Y-85777000D01*
X139744571Y-85834142D01*
X139744571Y-85891285D01*
X139458857Y-85948428D01*
X140001714Y-86148428D02*
X140001714Y-85748428D01*
X140001714Y-85862714D02*
X140030285Y-85805571D01*
X140058857Y-85777000D01*
X140116000Y-85748428D01*
X140173142Y-85748428D01*
X140344571Y-86119857D02*
X140401714Y-86148428D01*
X140516000Y-86148428D01*
X140573142Y-86119857D01*
X140601714Y-86062714D01*
X140601714Y-86034142D01*
X140573142Y-85977000D01*
X140516000Y-85948428D01*
X140430285Y-85948428D01*
X140373142Y-85919857D01*
X140344571Y-85862714D01*
X140344571Y-85834142D01*
X140373142Y-85777000D01*
X140430285Y-85748428D01*
X140516000Y-85748428D01*
X140573142Y-85777000D01*
X141630285Y-86148428D02*
X141287428Y-86148428D01*
X141458857Y-86148428D02*
X141458857Y-85548428D01*
X141401714Y-85634142D01*
X141344571Y-85691285D01*
X141287428Y-85719857D01*
X141887428Y-86091285D02*
X141916000Y-86119857D01*
X141887428Y-86148428D01*
X141858857Y-86119857D01*
X141887428Y-86091285D01*
X141887428Y-86148428D01*
X142287428Y-85548428D02*
X142344571Y-85548428D01*
X142401714Y-85577000D01*
X142430285Y-85605571D01*
X142458857Y-85662714D01*
X142487428Y-85777000D01*
X142487428Y-85919857D01*
X142458857Y-86034142D01*
X142430285Y-86091285D01*
X142401714Y-86119857D01*
X142344571Y-86148428D01*
X142287428Y-86148428D01*
X142230285Y-86119857D01*
X142201714Y-86091285D01*
X142173142Y-86034142D01*
X142144571Y-85919857D01*
X142144571Y-85777000D01*
X142173142Y-85662714D01*
X142201714Y-85605571D01*
X142230285Y-85577000D01*
X142287428Y-85548428D01*
X137973142Y-86714428D02*
X137973142Y-87114428D01*
X137973142Y-86771571D02*
X138001714Y-86743000D01*
X138058857Y-86714428D01*
X138144571Y-86714428D01*
X138201714Y-86743000D01*
X138230285Y-86800142D01*
X138230285Y-87114428D01*
X138516000Y-87114428D02*
X138516000Y-86714428D01*
X138516000Y-86514428D02*
X138487428Y-86543000D01*
X138516000Y-86571571D01*
X138544571Y-86543000D01*
X138516000Y-86514428D01*
X138516000Y-86571571D01*
X139058857Y-87085857D02*
X139001714Y-87114428D01*
X138887428Y-87114428D01*
X138830285Y-87085857D01*
X138801714Y-87057285D01*
X138773142Y-87000142D01*
X138773142Y-86828714D01*
X138801714Y-86771571D01*
X138830285Y-86743000D01*
X138887428Y-86714428D01*
X139001714Y-86714428D01*
X139058857Y-86743000D01*
X139316000Y-87114428D02*
X139316000Y-86514428D01*
X139573142Y-87114428D02*
X139573142Y-86800142D01*
X139544571Y-86743000D01*
X139487428Y-86714428D01*
X139401714Y-86714428D01*
X139344571Y-86743000D01*
X139316000Y-86771571D01*
X139773142Y-86714428D02*
X140001714Y-86714428D01*
X139858857Y-86514428D02*
X139858857Y-87028714D01*
X139887428Y-87085857D01*
X139944571Y-87114428D01*
X140001714Y-87114428D01*
X140458857Y-86714428D02*
X140458857Y-87200142D01*
X140430285Y-87257285D01*
X140401714Y-87285857D01*
X140344571Y-87314428D01*
X140258857Y-87314428D01*
X140201714Y-87285857D01*
X140458857Y-87085857D02*
X140401714Y-87114428D01*
X140287428Y-87114428D01*
X140230285Y-87085857D01*
X140201714Y-87057285D01*
X140173142Y-87000142D01*
X140173142Y-86828714D01*
X140201714Y-86771571D01*
X140230285Y-86743000D01*
X140287428Y-86714428D01*
X140401714Y-86714428D01*
X140458857Y-86743000D01*
X140973142Y-87085857D02*
X140916000Y-87114428D01*
X140801714Y-87114428D01*
X140744571Y-87085857D01*
X140716000Y-87028714D01*
X140716000Y-86800142D01*
X140744571Y-86743000D01*
X140801714Y-86714428D01*
X140916000Y-86714428D01*
X140973142Y-86743000D01*
X141001714Y-86800142D01*
X141001714Y-86857285D01*
X140716000Y-86914428D01*
X141516000Y-87114428D02*
X141516000Y-86514428D01*
X141516000Y-87085857D02*
X141458857Y-87114428D01*
X141344571Y-87114428D01*
X141287428Y-87085857D01*
X141258857Y-87057285D01*
X141230285Y-87000142D01*
X141230285Y-86828714D01*
X141258857Y-86771571D01*
X141287428Y-86743000D01*
X141344571Y-86714428D01*
X141458857Y-86714428D01*
X141516000Y-86743000D01*
X142058857Y-87114428D02*
X142058857Y-86800142D01*
X142030285Y-86743000D01*
X141973142Y-86714428D01*
X141858857Y-86714428D01*
X141801714Y-86743000D01*
X142058857Y-87085857D02*
X142001714Y-87114428D01*
X141858857Y-87114428D01*
X141801714Y-87085857D01*
X141773142Y-87028714D01*
X141773142Y-86971571D01*
X141801714Y-86914428D01*
X141858857Y-86885857D01*
X142001714Y-86885857D01*
X142058857Y-86857285D01*
X142601714Y-87085857D02*
X142544571Y-87114428D01*
X142430285Y-87114428D01*
X142373142Y-87085857D01*
X142344571Y-87057285D01*
X142316000Y-87000142D01*
X142316000Y-86828714D01*
X142344571Y-86771571D01*
X142373142Y-86743000D01*
X142430285Y-86714428D01*
X142544571Y-86714428D01*
X142601714Y-86743000D01*
X142858857Y-87114428D02*
X142858857Y-86514428D01*
X143116000Y-87114428D02*
X143116000Y-86800142D01*
X143087428Y-86743000D01*
X143030285Y-86714428D01*
X142944571Y-86714428D01*
X142887428Y-86743000D01*
X142858857Y-86771571D01*
X143316000Y-86714428D02*
X143544571Y-86714428D01*
X143401714Y-86514428D02*
X143401714Y-87028714D01*
X143430285Y-87085857D01*
X143487428Y-87114428D01*
X143544571Y-87114428D01*
D10*
X133937523Y-86714761D02*
X134080380Y-86762380D01*
X134318476Y-86762380D01*
X134413714Y-86714761D01*
X134461333Y-86667142D01*
X134508952Y-86571904D01*
X134508952Y-86476666D01*
X134461333Y-86381428D01*
X134413714Y-86333809D01*
X134318476Y-86286190D01*
X134128000Y-86238571D01*
X134032761Y-86190952D01*
X133985142Y-86143333D01*
X133937523Y-86048095D01*
X133937523Y-85952857D01*
X133985142Y-85857619D01*
X134032761Y-85810000D01*
X134128000Y-85762380D01*
X134366095Y-85762380D01*
X134508952Y-85810000D01*
X135508952Y-86667142D02*
X135461333Y-86714761D01*
X135318476Y-86762380D01*
X135223238Y-86762380D01*
X135080380Y-86714761D01*
X134985142Y-86619523D01*
X134937523Y-86524285D01*
X134889904Y-86333809D01*
X134889904Y-86190952D01*
X134937523Y-86000476D01*
X134985142Y-85905238D01*
X135080380Y-85810000D01*
X135223238Y-85762380D01*
X135318476Y-85762380D01*
X135461333Y-85810000D01*
X135508952Y-85857619D01*
X136413714Y-86762380D02*
X135937523Y-86762380D01*
X135937523Y-85762380D01*
X143510095Y-75740000D02*
X143414857Y-75692380D01*
X143272000Y-75692380D01*
X143129142Y-75740000D01*
X143033904Y-75835238D01*
X142986285Y-75930476D01*
X142938666Y-76120952D01*
X142938666Y-76263809D01*
X142986285Y-76454285D01*
X143033904Y-76549523D01*
X143129142Y-76644761D01*
X143272000Y-76692380D01*
X143367238Y-76692380D01*
X143510095Y-76644761D01*
X143557714Y-76597142D01*
X143557714Y-76263809D01*
X143367238Y-76263809D01*
X143986285Y-76692380D02*
X143986285Y-75692380D01*
X144557714Y-76692380D01*
X144557714Y-75692380D01*
X145033904Y-76692380D02*
X145033904Y-75692380D01*
X145272000Y-75692380D01*
X145414857Y-75740000D01*
X145510095Y-75835238D01*
X145557714Y-75930476D01*
X145605333Y-76120952D01*
X145605333Y-76263809D01*
X145557714Y-76454285D01*
X145510095Y-76549523D01*
X145414857Y-76644761D01*
X145272000Y-76692380D01*
X145033904Y-76692380D01*
D11*
X137001000Y-80017428D02*
X137001000Y-80446000D01*
X136972428Y-80531714D01*
X136915285Y-80588857D01*
X136829571Y-80617428D01*
X136772428Y-80617428D01*
X137286714Y-80617428D02*
X137286714Y-80017428D01*
X137515285Y-80017428D01*
X137572428Y-80046000D01*
X137601000Y-80074571D01*
X137629571Y-80131714D01*
X137629571Y-80217428D01*
X137601000Y-80274571D01*
X137572428Y-80303142D01*
X137515285Y-80331714D01*
X137286714Y-80331714D01*
X138201000Y-80617428D02*
X137858142Y-80617428D01*
X138029571Y-80617428D02*
X138029571Y-80017428D01*
X137972428Y-80103142D01*
X137915285Y-80160285D01*
X137858142Y-80188857D01*
X138872857Y-83631428D02*
X138872857Y-84117142D01*
X138901428Y-84174285D01*
X138930000Y-84202857D01*
X138987142Y-84231428D01*
X139101428Y-84231428D01*
X139158571Y-84202857D01*
X139187142Y-84174285D01*
X139215714Y-84117142D01*
X139215714Y-83631428D01*
X139815714Y-84231428D02*
X139472857Y-84231428D01*
X139644285Y-84231428D02*
X139644285Y-83631428D01*
X139587142Y-83717142D01*
X139530000Y-83774285D01*
X139472857Y-83802857D01*
X140374285Y-78020000D02*
X140402857Y-78048571D01*
X140431428Y-78134285D01*
X140431428Y-78191428D01*
X140402857Y-78277142D01*
X140345714Y-78334285D01*
X140288571Y-78362857D01*
X140174285Y-78391428D01*
X140088571Y-78391428D01*
X139974285Y-78362857D01*
X139917142Y-78334285D01*
X139860000Y-78277142D01*
X139831428Y-78191428D01*
X139831428Y-78134285D01*
X139860000Y-78048571D01*
X139888571Y-78020000D01*
X140431428Y-77448571D02*
X140431428Y-77791428D01*
X140431428Y-77620000D02*
X139831428Y-77620000D01*
X139917142Y-77677142D01*
X139974285Y-77734285D01*
X140002857Y-77791428D01*
X136623228Y-78027200D02*
X136337514Y-78227200D01*
X136623228Y-78370057D02*
X136023228Y-78370057D01*
X136023228Y-78141485D01*
X136051800Y-78084342D01*
X136080371Y-78055771D01*
X136137514Y-78027200D01*
X136223228Y-78027200D01*
X136280371Y-78055771D01*
X136308942Y-78084342D01*
X136337514Y-78141485D01*
X136337514Y-78370057D01*
X136023228Y-77827200D02*
X136023228Y-77455771D01*
X136251800Y-77655771D01*
X136251800Y-77570057D01*
X136280371Y-77512914D01*
X136308942Y-77484342D01*
X136366085Y-77455771D01*
X136508942Y-77455771D01*
X136566085Y-77484342D01*
X136594657Y-77512914D01*
X136623228Y-77570057D01*
X136623228Y-77741485D01*
X136594657Y-77798628D01*
X136566085Y-77827200D01*
X145991228Y-81786400D02*
X145705514Y-81986400D01*
X145991228Y-82129257D02*
X145391228Y-82129257D01*
X145391228Y-81900685D01*
X145419800Y-81843542D01*
X145448371Y-81814971D01*
X145505514Y-81786400D01*
X145591228Y-81786400D01*
X145648371Y-81814971D01*
X145676942Y-81843542D01*
X145705514Y-81900685D01*
X145705514Y-82129257D01*
X145448371Y-81557828D02*
X145419800Y-81529257D01*
X145391228Y-81472114D01*
X145391228Y-81329257D01*
X145419800Y-81272114D01*
X145448371Y-81243542D01*
X145505514Y-81214971D01*
X145562657Y-81214971D01*
X145648371Y-81243542D01*
X145991228Y-81586400D01*
X145991228Y-81214971D01*
X141673228Y-81735600D02*
X141387514Y-81935600D01*
X141673228Y-82078457D02*
X141073228Y-82078457D01*
X141073228Y-81849885D01*
X141101800Y-81792742D01*
X141130371Y-81764171D01*
X141187514Y-81735600D01*
X141273228Y-81735600D01*
X141330371Y-81764171D01*
X141358942Y-81792742D01*
X141387514Y-81849885D01*
X141387514Y-82078457D01*
X141673228Y-81164171D02*
X141673228Y-81507028D01*
X141673228Y-81335600D02*
X141073228Y-81335600D01*
X141158942Y-81392742D01*
X141216085Y-81449885D01*
X141244657Y-81507028D01*
X145088000Y-86539428D02*
X145088000Y-86968000D01*
X145059428Y-87053714D01*
X145002285Y-87110857D01*
X144916571Y-87139428D01*
X144859428Y-87139428D01*
X145345142Y-86596571D02*
X145373714Y-86568000D01*
X145430857Y-86539428D01*
X145573714Y-86539428D01*
X145630857Y-86568000D01*
X145659428Y-86596571D01*
X145688000Y-86653714D01*
X145688000Y-86710857D01*
X145659428Y-86796571D01*
X145316571Y-87139428D01*
X145688000Y-87139428D01*
X133658000Y-75363428D02*
X133658000Y-75792000D01*
X133629428Y-75877714D01*
X133572285Y-75934857D01*
X133486571Y-75963428D01*
X133429428Y-75963428D01*
X134258000Y-75963428D02*
X133915142Y-75963428D01*
X134086571Y-75963428D02*
X134086571Y-75363428D01*
X134029428Y-75449142D01*
X133972285Y-75506285D01*
X133915142Y-75534857D01*
X136491000Y-80026000D02*
X136491000Y-82026000D01*
X133691000Y-80026000D02*
X136491000Y-80026000D01*
X133691000Y-82026000D02*
X133691000Y-80026000D01*
X136491000Y-82026000D02*
X133691000Y-82026000D01*
D12*
X140545000Y-82760000D02*
X140545000Y-83400000D01*
X138325000Y-81200000D02*
X137845000Y-81200000D01*
X140545000Y-81200000D02*
X140545000Y-81840000D01*
X137845000Y-82760000D02*
X137845000Y-83400000D01*
X137845000Y-81200000D02*
X137845000Y-81840000D01*
X140545000Y-81200000D02*
X140065000Y-81200000D01*
X138325000Y-83400000D02*
X137845000Y-83400000D01*
D11*
X139365000Y-78181252D02*
X139365000Y-77658748D01*
X137895000Y-78181252D02*
X137895000Y-77658748D01*
X135396500Y-78172224D02*
X135396500Y-77662776D01*
X134351500Y-78172224D02*
X134351500Y-77662776D01*
X143927500Y-82325276D02*
X143927500Y-82834724D01*
X144972500Y-82325276D02*
X144972500Y-82834724D01*
X143185000Y-82337776D02*
X143185000Y-82847224D01*
X142140000Y-82337776D02*
X142140000Y-82847224D01*
%LPC*%
D13*
X135816000Y-81026000D03*
D14*
X134366000Y-81026000D03*
D15*
X140170000Y-83100000D03*
X139520000Y-83100000D03*
X138870000Y-83100000D03*
X138220000Y-83100000D03*
X138220000Y-81500000D03*
X138870000Y-81500000D03*
X139520000Y-81500000D03*
X140170000Y-81500000D03*
D16*
X138630000Y-78957500D03*
X138630000Y-76882500D03*
D17*
X134874000Y-78830000D03*
X134874000Y-77005000D03*
D18*
X144450000Y-81667500D03*
X144450000Y-83492500D03*
X142662500Y-81680000D03*
X142662500Y-83505000D03*
D19*
X147320000Y-76200000D03*
X147320000Y-78740000D03*
X147320000Y-81280000D03*
X147320000Y-83820000D03*
X147320000Y-86360000D03*
X132080000Y-86360000D03*
X132080000Y-83820000D03*
X132080000Y-81280000D03*
X132080000Y-78740000D03*
X132080000Y-76200000D03*
M02*
