%TF.GenerationSoftware,KiCad,Pcbnew,6.0.11*%
%TF.CreationDate,2025-02-19T14:46:15+01:00*%
%TF.ProjectId,SPL06,53504c30-362e-46b6-9963-61645f706362,rev?*%
%TF.SameCoordinates,Original*%
%TF.FileFunction,Drillmap*%
%TF.FilePolarity,Positive*%
%FSLAX45Y45*%
G04 Gerber Fmt 4.5, Leading zero omitted, Abs format (unit mm)*
G04 Created by KiCad (PCBNEW 6.0.11) date 2025-02-19 14:46:15*
%MOMM*%
%LPD*%
G01*
G04 APERTURE LIST*
%ADD10C,0.050000*%
%ADD11C,0.200000*%
G04 APERTURE END LIST*
D10*
X14872000Y-8776000D02*
X14872000Y-7480000D01*
X14872000Y-7480000D02*
X13068000Y-7480000D01*
X13068000Y-7480000D02*
X13068000Y-8776000D01*
X14872000Y-8776000D02*
X13068000Y-8776000D01*
D11*
X13323119Y-9088976D02*
X13323119Y-8888976D01*
X13370738Y-8888976D01*
X13399309Y-8898500D01*
X13418357Y-8917548D01*
X13427881Y-8936595D01*
X13437405Y-8974690D01*
X13437405Y-9003262D01*
X13427881Y-9041357D01*
X13418357Y-9060405D01*
X13399309Y-9079452D01*
X13370738Y-9088976D01*
X13323119Y-9088976D01*
X13523119Y-9088976D02*
X13523119Y-8955643D01*
X13523119Y-8993738D02*
X13532643Y-8974690D01*
X13542167Y-8965167D01*
X13561214Y-8955643D01*
X13580262Y-8955643D01*
X13646928Y-9088976D02*
X13646928Y-8955643D01*
X13646928Y-8888976D02*
X13637405Y-8898500D01*
X13646928Y-8908024D01*
X13656452Y-8898500D01*
X13646928Y-8888976D01*
X13646928Y-8908024D01*
X13770738Y-9088976D02*
X13751690Y-9079452D01*
X13742167Y-9060405D01*
X13742167Y-8888976D01*
X13875500Y-9088976D02*
X13856452Y-9079452D01*
X13846928Y-9060405D01*
X13846928Y-8888976D01*
X14104071Y-9088976D02*
X14104071Y-8888976D01*
X14170738Y-9031833D01*
X14237405Y-8888976D01*
X14237405Y-9088976D01*
X14418357Y-9088976D02*
X14418357Y-8984214D01*
X14408833Y-8965167D01*
X14389786Y-8955643D01*
X14351690Y-8955643D01*
X14332643Y-8965167D01*
X14418357Y-9079452D02*
X14399309Y-9088976D01*
X14351690Y-9088976D01*
X14332643Y-9079452D01*
X14323119Y-9060405D01*
X14323119Y-9041357D01*
X14332643Y-9022310D01*
X14351690Y-9012786D01*
X14399309Y-9012786D01*
X14418357Y-9003262D01*
X14513595Y-8955643D02*
X14513595Y-9155643D01*
X14513595Y-8965167D02*
X14532643Y-8955643D01*
X14570738Y-8955643D01*
X14589786Y-8965167D01*
X14599309Y-8974690D01*
X14608833Y-8993738D01*
X14608833Y-9050881D01*
X14599309Y-9069929D01*
X14589786Y-9079452D01*
X14570738Y-9088976D01*
X14532643Y-9088976D01*
X14513595Y-9079452D01*
X14694548Y-9069929D02*
X14704071Y-9079452D01*
X14694548Y-9088976D01*
X14685024Y-9079452D01*
X14694548Y-9069929D01*
X14694548Y-9088976D01*
X14694548Y-8965167D02*
X14704071Y-8974690D01*
X14694548Y-8984214D01*
X14685024Y-8974690D01*
X14694548Y-8965167D01*
X14694548Y-8984214D01*
M02*
