%TF.GenerationSoftware,KiCad,Pcbnew,6.0.11*%
%TF.CreationDate,2025-02-19T14:46:15+01:00*%
%TF.ProjectId,SPL06,53504c30-362e-46b6-9963-61645f706362,rev?*%
%TF.SameCoordinates,Original*%
%TF.FileFunction,Drillmap*%
%TF.FilePolarity,Positive*%
%FSLAX45Y45*%
G04 Gerber Fmt 4.5, Leading zero omitted, Abs format (unit mm)*
G04 Created by KiCad (PCBNEW 6.0.11) date 2025-02-19 14:46:15*
%MOMM*%
%LPD*%
G01*
G04 APERTURE LIST*
%ADD10C,0.050000*%
%ADD11C,0.200000*%
%ADD12C,0.030000*%
%ADD13C,0.038100*%
%ADD14C,0.100000*%
G04 APERTURE END LIST*
D10*
X14872000Y-8776000D02*
X14872000Y-7480000D01*
X14872000Y-7480000D02*
X13068000Y-7480000D01*
X13068000Y-7480000D02*
X13068000Y-8776000D01*
X14872000Y-8776000D02*
X13068000Y-8776000D01*
D11*
D12*
X13706000Y-8294250D02*
X13736000Y-8324250D01*
X13736000Y-8294250D02*
X13706000Y-8324250D01*
X13706000Y-8435250D02*
X13736000Y-8465250D01*
X13736000Y-8435250D02*
X13706000Y-8465250D01*
D13*
X13531850Y-8267700D02*
G75*
G03*
X13531850Y-8267700I-19050J0D01*
G01*
X13666050Y-8585200D02*
G75*
G03*
X13666050Y-8585200I-19050J0D01*
G01*
X13971050Y-8053250D02*
G75*
G03*
X13971050Y-8053250I-19050J0D01*
G01*
X14039850Y-7686000D02*
G75*
G03*
X14039850Y-7686000I-19050J0D01*
G01*
X14145050Y-8310000D02*
G75*
G03*
X14145050Y-8310000I-19050J0D01*
G01*
X14446250Y-8534400D02*
G75*
G03*
X14446250Y-8534400I-19050J0D01*
G01*
X14608810Y-8255000D02*
G75*
G03*
X14608810Y-8255000I-19050J0D01*
G01*
D14*
X13208000Y-7570000D02*
X13208000Y-7670000D01*
X13158000Y-7620000D02*
X13258000Y-7620000D01*
X13208000Y-7824000D02*
X13208000Y-7924000D01*
X13158000Y-7874000D02*
X13258000Y-7874000D01*
X13208000Y-8078000D02*
X13208000Y-8178000D01*
X13158000Y-8128000D02*
X13258000Y-8128000D01*
X13208000Y-8332000D02*
X13208000Y-8432000D01*
X13158000Y-8382000D02*
X13258000Y-8382000D01*
X13208000Y-8586000D02*
X13208000Y-8686000D01*
X13158000Y-8636000D02*
X13258000Y-8636000D01*
X14732000Y-7570000D02*
X14732000Y-7670000D01*
X14682000Y-7620000D02*
X14782000Y-7620000D01*
X14732000Y-7824000D02*
X14732000Y-7924000D01*
X14682000Y-7874000D02*
X14782000Y-7874000D01*
X14732000Y-8078000D02*
X14732000Y-8178000D01*
X14682000Y-8128000D02*
X14782000Y-8128000D01*
X14732000Y-8332000D02*
X14732000Y-8432000D01*
X14682000Y-8382000D02*
X14782000Y-8382000D01*
X14732000Y-8586000D02*
X14732000Y-8686000D01*
X14682000Y-8636000D02*
X14782000Y-8636000D01*
D11*
X13323119Y-9088976D02*
X13323119Y-8888976D01*
X13370738Y-8888976D01*
X13399309Y-8898500D01*
X13418357Y-8917548D01*
X13427881Y-8936595D01*
X13437405Y-8974690D01*
X13437405Y-9003262D01*
X13427881Y-9041357D01*
X13418357Y-9060405D01*
X13399309Y-9079452D01*
X13370738Y-9088976D01*
X13323119Y-9088976D01*
X13523119Y-9088976D02*
X13523119Y-8955643D01*
X13523119Y-8993738D02*
X13532643Y-8974690D01*
X13542167Y-8965167D01*
X13561214Y-8955643D01*
X13580262Y-8955643D01*
X13646928Y-9088976D02*
X13646928Y-8955643D01*
X13646928Y-8888976D02*
X13637405Y-8898500D01*
X13646928Y-8908024D01*
X13656452Y-8898500D01*
X13646928Y-8888976D01*
X13646928Y-8908024D01*
X13770738Y-9088976D02*
X13751690Y-9079452D01*
X13742167Y-9060405D01*
X13742167Y-8888976D01*
X13875500Y-9088976D02*
X13856452Y-9079452D01*
X13846928Y-9060405D01*
X13846928Y-8888976D01*
X14104071Y-9088976D02*
X14104071Y-8888976D01*
X14170738Y-9031833D01*
X14237405Y-8888976D01*
X14237405Y-9088976D01*
X14418357Y-9088976D02*
X14418357Y-8984214D01*
X14408833Y-8965167D01*
X14389786Y-8955643D01*
X14351690Y-8955643D01*
X14332643Y-8965167D01*
X14418357Y-9079452D02*
X14399309Y-9088976D01*
X14351690Y-9088976D01*
X14332643Y-9079452D01*
X14323119Y-9060405D01*
X14323119Y-9041357D01*
X14332643Y-9022310D01*
X14351690Y-9012786D01*
X14399309Y-9012786D01*
X14418357Y-9003262D01*
X14513595Y-8955643D02*
X14513595Y-9155643D01*
X14513595Y-8965167D02*
X14532643Y-8955643D01*
X14570738Y-8955643D01*
X14589786Y-8965167D01*
X14599309Y-8974690D01*
X14608833Y-8993738D01*
X14608833Y-9050881D01*
X14599309Y-9069929D01*
X14589786Y-9079452D01*
X14570738Y-9088976D01*
X14532643Y-9088976D01*
X14513595Y-9079452D01*
X14694548Y-9069929D02*
X14704071Y-9079452D01*
X14694548Y-9088976D01*
X14685024Y-9079452D01*
X14694548Y-9069929D01*
X14694548Y-9088976D01*
X14694548Y-8965167D02*
X14704071Y-8974690D01*
X14694548Y-8984214D01*
X14685024Y-8974690D01*
X14694548Y-8965167D01*
X14694548Y-8984214D01*
D12*
X13035500Y-9403500D02*
X13065500Y-9433500D01*
X13065500Y-9403500D02*
X13035500Y-9433500D01*
D11*
X13361214Y-9308976D02*
X13380262Y-9308976D01*
X13399309Y-9318500D01*
X13408833Y-9328024D01*
X13418357Y-9347071D01*
X13427881Y-9385167D01*
X13427881Y-9432786D01*
X13418357Y-9470881D01*
X13408833Y-9489929D01*
X13399309Y-9499452D01*
X13380262Y-9508976D01*
X13361214Y-9508976D01*
X13342167Y-9499452D01*
X13332643Y-9489929D01*
X13323119Y-9470881D01*
X13313595Y-9432786D01*
X13313595Y-9385167D01*
X13323119Y-9347071D01*
X13332643Y-9328024D01*
X13342167Y-9318500D01*
X13361214Y-9308976D01*
X13513595Y-9489929D02*
X13523119Y-9499452D01*
X13513595Y-9508976D01*
X13504071Y-9499452D01*
X13513595Y-9489929D01*
X13513595Y-9508976D01*
X13589786Y-9308976D02*
X13713595Y-9308976D01*
X13646928Y-9385167D01*
X13675500Y-9385167D01*
X13694548Y-9394690D01*
X13704071Y-9404214D01*
X13713595Y-9423262D01*
X13713595Y-9470881D01*
X13704071Y-9489929D01*
X13694548Y-9499452D01*
X13675500Y-9508976D01*
X13618357Y-9508976D01*
X13599309Y-9499452D01*
X13589786Y-9489929D01*
X13837405Y-9308976D02*
X13856452Y-9308976D01*
X13875500Y-9318500D01*
X13885024Y-9328024D01*
X13894548Y-9347071D01*
X13904071Y-9385167D01*
X13904071Y-9432786D01*
X13894548Y-9470881D01*
X13885024Y-9489929D01*
X13875500Y-9499452D01*
X13856452Y-9508976D01*
X13837405Y-9508976D01*
X13818357Y-9499452D01*
X13808833Y-9489929D01*
X13799309Y-9470881D01*
X13789786Y-9432786D01*
X13789786Y-9385167D01*
X13799309Y-9347071D01*
X13808833Y-9328024D01*
X13818357Y-9318500D01*
X13837405Y-9308976D01*
X14027881Y-9308976D02*
X14046928Y-9308976D01*
X14065976Y-9318500D01*
X14075500Y-9328024D01*
X14085024Y-9347071D01*
X14094548Y-9385167D01*
X14094548Y-9432786D01*
X14085024Y-9470881D01*
X14075500Y-9489929D01*
X14065976Y-9499452D01*
X14046928Y-9508976D01*
X14027881Y-9508976D01*
X14008833Y-9499452D01*
X13999309Y-9489929D01*
X13989786Y-9470881D01*
X13980262Y-9432786D01*
X13980262Y-9385167D01*
X13989786Y-9347071D01*
X13999309Y-9328024D01*
X14008833Y-9318500D01*
X14027881Y-9308976D01*
X14180262Y-9508976D02*
X14180262Y-9375643D01*
X14180262Y-9394690D02*
X14189786Y-9385167D01*
X14208833Y-9375643D01*
X14237405Y-9375643D01*
X14256452Y-9385167D01*
X14265976Y-9404214D01*
X14265976Y-9508976D01*
X14265976Y-9404214D02*
X14275500Y-9385167D01*
X14294548Y-9375643D01*
X14323119Y-9375643D01*
X14342167Y-9385167D01*
X14351690Y-9404214D01*
X14351690Y-9508976D01*
X14446928Y-9508976D02*
X14446928Y-9375643D01*
X14446928Y-9394690D02*
X14456452Y-9385167D01*
X14475500Y-9375643D01*
X14504071Y-9375643D01*
X14523119Y-9385167D01*
X14532643Y-9404214D01*
X14532643Y-9508976D01*
X14532643Y-9404214D02*
X14542167Y-9385167D01*
X14561214Y-9375643D01*
X14589786Y-9375643D01*
X14608833Y-9385167D01*
X14618357Y-9404214D01*
X14618357Y-9508976D01*
X15008833Y-9299452D02*
X14837405Y-9556595D01*
X15265976Y-9308976D02*
X15285024Y-9308976D01*
X15304071Y-9318500D01*
X15313595Y-9328024D01*
X15323119Y-9347071D01*
X15332643Y-9385167D01*
X15332643Y-9432786D01*
X15323119Y-9470881D01*
X15313595Y-9489929D01*
X15304071Y-9499452D01*
X15285024Y-9508976D01*
X15265976Y-9508976D01*
X15246928Y-9499452D01*
X15237405Y-9489929D01*
X15227881Y-9470881D01*
X15218357Y-9432786D01*
X15218357Y-9385167D01*
X15227881Y-9347071D01*
X15237405Y-9328024D01*
X15246928Y-9318500D01*
X15265976Y-9308976D01*
X15418357Y-9489929D02*
X15427881Y-9499452D01*
X15418357Y-9508976D01*
X15408833Y-9499452D01*
X15418357Y-9489929D01*
X15418357Y-9508976D01*
X15551690Y-9308976D02*
X15570738Y-9308976D01*
X15589786Y-9318500D01*
X15599309Y-9328024D01*
X15608833Y-9347071D01*
X15618357Y-9385167D01*
X15618357Y-9432786D01*
X15608833Y-9470881D01*
X15599309Y-9489929D01*
X15589786Y-9499452D01*
X15570738Y-9508976D01*
X15551690Y-9508976D01*
X15532643Y-9499452D01*
X15523119Y-9489929D01*
X15513595Y-9470881D01*
X15504071Y-9432786D01*
X15504071Y-9385167D01*
X15513595Y-9347071D01*
X15523119Y-9328024D01*
X15532643Y-9318500D01*
X15551690Y-9308976D01*
X15808833Y-9508976D02*
X15694548Y-9508976D01*
X15751690Y-9508976D02*
X15751690Y-9308976D01*
X15732643Y-9337548D01*
X15713595Y-9356595D01*
X15694548Y-9366119D01*
X15999309Y-9508976D02*
X15885024Y-9508976D01*
X15942167Y-9508976D02*
X15942167Y-9308976D01*
X15923119Y-9337548D01*
X15904071Y-9356595D01*
X15885024Y-9366119D01*
X16113595Y-9394690D02*
X16094548Y-9385167D01*
X16085024Y-9375643D01*
X16075500Y-9356595D01*
X16075500Y-9347071D01*
X16085024Y-9328024D01*
X16094548Y-9318500D01*
X16113595Y-9308976D01*
X16151690Y-9308976D01*
X16170738Y-9318500D01*
X16180262Y-9328024D01*
X16189786Y-9347071D01*
X16189786Y-9356595D01*
X16180262Y-9375643D01*
X16170738Y-9385167D01*
X16151690Y-9394690D01*
X16113595Y-9394690D01*
X16094548Y-9404214D01*
X16085024Y-9413738D01*
X16075500Y-9432786D01*
X16075500Y-9470881D01*
X16085024Y-9489929D01*
X16094548Y-9499452D01*
X16113595Y-9508976D01*
X16151690Y-9508976D01*
X16170738Y-9499452D01*
X16180262Y-9489929D01*
X16189786Y-9470881D01*
X16189786Y-9432786D01*
X16180262Y-9413738D01*
X16170738Y-9404214D01*
X16151690Y-9394690D01*
X16265976Y-9308976D02*
X16265976Y-9347071D01*
X16342167Y-9308976D02*
X16342167Y-9347071D01*
X16637405Y-9585167D02*
X16627881Y-9575643D01*
X16608833Y-9547071D01*
X16599309Y-9528024D01*
X16589786Y-9499452D01*
X16580262Y-9451833D01*
X16580262Y-9413738D01*
X16589786Y-9366119D01*
X16599309Y-9337548D01*
X16608833Y-9318500D01*
X16627881Y-9289929D01*
X16637405Y-9280405D01*
X16704071Y-9328024D02*
X16713595Y-9318500D01*
X16732643Y-9308976D01*
X16780262Y-9308976D01*
X16799310Y-9318500D01*
X16808833Y-9328024D01*
X16818357Y-9347071D01*
X16818357Y-9366119D01*
X16808833Y-9394690D01*
X16694548Y-9508976D01*
X16818357Y-9508976D01*
X17056452Y-9508976D02*
X17056452Y-9308976D01*
X17142167Y-9508976D02*
X17142167Y-9404214D01*
X17132643Y-9385167D01*
X17113595Y-9375643D01*
X17085024Y-9375643D01*
X17065976Y-9385167D01*
X17056452Y-9394690D01*
X17265976Y-9508976D02*
X17246929Y-9499452D01*
X17237405Y-9489929D01*
X17227881Y-9470881D01*
X17227881Y-9413738D01*
X17237405Y-9394690D01*
X17246929Y-9385167D01*
X17265976Y-9375643D01*
X17294548Y-9375643D01*
X17313595Y-9385167D01*
X17323119Y-9394690D01*
X17332643Y-9413738D01*
X17332643Y-9470881D01*
X17323119Y-9489929D01*
X17313595Y-9499452D01*
X17294548Y-9508976D01*
X17265976Y-9508976D01*
X17446929Y-9508976D02*
X17427881Y-9499452D01*
X17418357Y-9480405D01*
X17418357Y-9308976D01*
X17599310Y-9499452D02*
X17580262Y-9508976D01*
X17542167Y-9508976D01*
X17523119Y-9499452D01*
X17513595Y-9480405D01*
X17513595Y-9404214D01*
X17523119Y-9385167D01*
X17542167Y-9375643D01*
X17580262Y-9375643D01*
X17599310Y-9385167D01*
X17608833Y-9404214D01*
X17608833Y-9423262D01*
X17513595Y-9442310D01*
X17685024Y-9499452D02*
X17704071Y-9508976D01*
X17742167Y-9508976D01*
X17761214Y-9499452D01*
X17770738Y-9480405D01*
X17770738Y-9470881D01*
X17761214Y-9451833D01*
X17742167Y-9442310D01*
X17713595Y-9442310D01*
X17694548Y-9432786D01*
X17685024Y-9413738D01*
X17685024Y-9404214D01*
X17694548Y-9385167D01*
X17713595Y-9375643D01*
X17742167Y-9375643D01*
X17761214Y-9385167D01*
X17837405Y-9585167D02*
X17846929Y-9575643D01*
X17865976Y-9547071D01*
X17875500Y-9528024D01*
X17885024Y-9499452D01*
X17894548Y-9451833D01*
X17894548Y-9413738D01*
X17885024Y-9366119D01*
X17875500Y-9337548D01*
X17865976Y-9318500D01*
X17846929Y-9289929D01*
X17837405Y-9280405D01*
D13*
X13065500Y-9682500D02*
G75*
G03*
X13065500Y-9682500I-19050J0D01*
G01*
D11*
X13361214Y-9572976D02*
X13380262Y-9572976D01*
X13399309Y-9582500D01*
X13408833Y-9592024D01*
X13418357Y-9611071D01*
X13427881Y-9649167D01*
X13427881Y-9696786D01*
X13418357Y-9734881D01*
X13408833Y-9753929D01*
X13399309Y-9763452D01*
X13380262Y-9772976D01*
X13361214Y-9772976D01*
X13342167Y-9763452D01*
X13332643Y-9753929D01*
X13323119Y-9734881D01*
X13313595Y-9696786D01*
X13313595Y-9649167D01*
X13323119Y-9611071D01*
X13332643Y-9592024D01*
X13342167Y-9582500D01*
X13361214Y-9572976D01*
X13513595Y-9753929D02*
X13523119Y-9763452D01*
X13513595Y-9772976D01*
X13504071Y-9763452D01*
X13513595Y-9753929D01*
X13513595Y-9772976D01*
X13589786Y-9572976D02*
X13713595Y-9572976D01*
X13646928Y-9649167D01*
X13675500Y-9649167D01*
X13694548Y-9658690D01*
X13704071Y-9668214D01*
X13713595Y-9687262D01*
X13713595Y-9734881D01*
X13704071Y-9753929D01*
X13694548Y-9763452D01*
X13675500Y-9772976D01*
X13618357Y-9772976D01*
X13599309Y-9763452D01*
X13589786Y-9753929D01*
X13827881Y-9658690D02*
X13808833Y-9649167D01*
X13799309Y-9639643D01*
X13789786Y-9620595D01*
X13789786Y-9611071D01*
X13799309Y-9592024D01*
X13808833Y-9582500D01*
X13827881Y-9572976D01*
X13865976Y-9572976D01*
X13885024Y-9582500D01*
X13894548Y-9592024D01*
X13904071Y-9611071D01*
X13904071Y-9620595D01*
X13894548Y-9639643D01*
X13885024Y-9649167D01*
X13865976Y-9658690D01*
X13827881Y-9658690D01*
X13808833Y-9668214D01*
X13799309Y-9677738D01*
X13789786Y-9696786D01*
X13789786Y-9734881D01*
X13799309Y-9753929D01*
X13808833Y-9763452D01*
X13827881Y-9772976D01*
X13865976Y-9772976D01*
X13885024Y-9763452D01*
X13894548Y-9753929D01*
X13904071Y-9734881D01*
X13904071Y-9696786D01*
X13894548Y-9677738D01*
X13885024Y-9668214D01*
X13865976Y-9658690D01*
X14094548Y-9772976D02*
X13980262Y-9772976D01*
X14037405Y-9772976D02*
X14037405Y-9572976D01*
X14018357Y-9601548D01*
X13999309Y-9620595D01*
X13980262Y-9630119D01*
X14180262Y-9772976D02*
X14180262Y-9639643D01*
X14180262Y-9658690D02*
X14189786Y-9649167D01*
X14208833Y-9639643D01*
X14237405Y-9639643D01*
X14256452Y-9649167D01*
X14265976Y-9668214D01*
X14265976Y-9772976D01*
X14265976Y-9668214D02*
X14275500Y-9649167D01*
X14294548Y-9639643D01*
X14323119Y-9639643D01*
X14342167Y-9649167D01*
X14351690Y-9668214D01*
X14351690Y-9772976D01*
X14446928Y-9772976D02*
X14446928Y-9639643D01*
X14446928Y-9658690D02*
X14456452Y-9649167D01*
X14475500Y-9639643D01*
X14504071Y-9639643D01*
X14523119Y-9649167D01*
X14532643Y-9668214D01*
X14532643Y-9772976D01*
X14532643Y-9668214D02*
X14542167Y-9649167D01*
X14561214Y-9639643D01*
X14589786Y-9639643D01*
X14608833Y-9649167D01*
X14618357Y-9668214D01*
X14618357Y-9772976D01*
X15008833Y-9563452D02*
X14837405Y-9820595D01*
X15265976Y-9572976D02*
X15285024Y-9572976D01*
X15304071Y-9582500D01*
X15313595Y-9592024D01*
X15323119Y-9611071D01*
X15332643Y-9649167D01*
X15332643Y-9696786D01*
X15323119Y-9734881D01*
X15313595Y-9753929D01*
X15304071Y-9763452D01*
X15285024Y-9772976D01*
X15265976Y-9772976D01*
X15246928Y-9763452D01*
X15237405Y-9753929D01*
X15227881Y-9734881D01*
X15218357Y-9696786D01*
X15218357Y-9649167D01*
X15227881Y-9611071D01*
X15237405Y-9592024D01*
X15246928Y-9582500D01*
X15265976Y-9572976D01*
X15418357Y-9753929D02*
X15427881Y-9763452D01*
X15418357Y-9772976D01*
X15408833Y-9763452D01*
X15418357Y-9753929D01*
X15418357Y-9772976D01*
X15551690Y-9572976D02*
X15570738Y-9572976D01*
X15589786Y-9582500D01*
X15599309Y-9592024D01*
X15608833Y-9611071D01*
X15618357Y-9649167D01*
X15618357Y-9696786D01*
X15608833Y-9734881D01*
X15599309Y-9753929D01*
X15589786Y-9763452D01*
X15570738Y-9772976D01*
X15551690Y-9772976D01*
X15532643Y-9763452D01*
X15523119Y-9753929D01*
X15513595Y-9734881D01*
X15504071Y-9696786D01*
X15504071Y-9649167D01*
X15513595Y-9611071D01*
X15523119Y-9592024D01*
X15532643Y-9582500D01*
X15551690Y-9572976D01*
X15808833Y-9772976D02*
X15694548Y-9772976D01*
X15751690Y-9772976D02*
X15751690Y-9572976D01*
X15732643Y-9601548D01*
X15713595Y-9620595D01*
X15694548Y-9630119D01*
X15989786Y-9572976D02*
X15894548Y-9572976D01*
X15885024Y-9668214D01*
X15894548Y-9658690D01*
X15913595Y-9649167D01*
X15961214Y-9649167D01*
X15980262Y-9658690D01*
X15989786Y-9668214D01*
X15999309Y-9687262D01*
X15999309Y-9734881D01*
X15989786Y-9753929D01*
X15980262Y-9763452D01*
X15961214Y-9772976D01*
X15913595Y-9772976D01*
X15894548Y-9763452D01*
X15885024Y-9753929D01*
X16123119Y-9572976D02*
X16142167Y-9572976D01*
X16161214Y-9582500D01*
X16170738Y-9592024D01*
X16180262Y-9611071D01*
X16189786Y-9649167D01*
X16189786Y-9696786D01*
X16180262Y-9734881D01*
X16170738Y-9753929D01*
X16161214Y-9763452D01*
X16142167Y-9772976D01*
X16123119Y-9772976D01*
X16104071Y-9763452D01*
X16094548Y-9753929D01*
X16085024Y-9734881D01*
X16075500Y-9696786D01*
X16075500Y-9649167D01*
X16085024Y-9611071D01*
X16094548Y-9592024D01*
X16104071Y-9582500D01*
X16123119Y-9572976D01*
X16265976Y-9572976D02*
X16265976Y-9611071D01*
X16342167Y-9572976D02*
X16342167Y-9611071D01*
X16637405Y-9849167D02*
X16627881Y-9839643D01*
X16608833Y-9811071D01*
X16599309Y-9792024D01*
X16589786Y-9763452D01*
X16580262Y-9715833D01*
X16580262Y-9677738D01*
X16589786Y-9630119D01*
X16599309Y-9601548D01*
X16608833Y-9582500D01*
X16627881Y-9553929D01*
X16637405Y-9544405D01*
X16694548Y-9572976D02*
X16827881Y-9572976D01*
X16742167Y-9772976D01*
X17056452Y-9772976D02*
X17056452Y-9572976D01*
X17142167Y-9772976D02*
X17142167Y-9668214D01*
X17132643Y-9649167D01*
X17113595Y-9639643D01*
X17085024Y-9639643D01*
X17065976Y-9649167D01*
X17056452Y-9658690D01*
X17265976Y-9772976D02*
X17246929Y-9763452D01*
X17237405Y-9753929D01*
X17227881Y-9734881D01*
X17227881Y-9677738D01*
X17237405Y-9658690D01*
X17246929Y-9649167D01*
X17265976Y-9639643D01*
X17294548Y-9639643D01*
X17313595Y-9649167D01*
X17323119Y-9658690D01*
X17332643Y-9677738D01*
X17332643Y-9734881D01*
X17323119Y-9753929D01*
X17313595Y-9763452D01*
X17294548Y-9772976D01*
X17265976Y-9772976D01*
X17446929Y-9772976D02*
X17427881Y-9763452D01*
X17418357Y-9744405D01*
X17418357Y-9572976D01*
X17599310Y-9763452D02*
X17580262Y-9772976D01*
X17542167Y-9772976D01*
X17523119Y-9763452D01*
X17513595Y-9744405D01*
X17513595Y-9668214D01*
X17523119Y-9649167D01*
X17542167Y-9639643D01*
X17580262Y-9639643D01*
X17599310Y-9649167D01*
X17608833Y-9668214D01*
X17608833Y-9687262D01*
X17513595Y-9706310D01*
X17685024Y-9763452D02*
X17704071Y-9772976D01*
X17742167Y-9772976D01*
X17761214Y-9763452D01*
X17770738Y-9744405D01*
X17770738Y-9734881D01*
X17761214Y-9715833D01*
X17742167Y-9706310D01*
X17713595Y-9706310D01*
X17694548Y-9696786D01*
X17685024Y-9677738D01*
X17685024Y-9668214D01*
X17694548Y-9649167D01*
X17713595Y-9639643D01*
X17742167Y-9639643D01*
X17761214Y-9649167D01*
X17837405Y-9849167D02*
X17846929Y-9839643D01*
X17865976Y-9811071D01*
X17875500Y-9792024D01*
X17885024Y-9763452D01*
X17894548Y-9715833D01*
X17894548Y-9677738D01*
X17885024Y-9630119D01*
X17875500Y-9601548D01*
X17865976Y-9582500D01*
X17846929Y-9553929D01*
X17837405Y-9544405D01*
D14*
X13015500Y-9896500D02*
X13015500Y-9996500D01*
X12965500Y-9946500D02*
X13065500Y-9946500D01*
D11*
X13427881Y-10036976D02*
X13313595Y-10036976D01*
X13370738Y-10036976D02*
X13370738Y-9836976D01*
X13351690Y-9865548D01*
X13332643Y-9884595D01*
X13313595Y-9894119D01*
X13513595Y-10017929D02*
X13523119Y-10027452D01*
X13513595Y-10036976D01*
X13504071Y-10027452D01*
X13513595Y-10017929D01*
X13513595Y-10036976D01*
X13646928Y-9836976D02*
X13665976Y-9836976D01*
X13685024Y-9846500D01*
X13694548Y-9856024D01*
X13704071Y-9875071D01*
X13713595Y-9913167D01*
X13713595Y-9960786D01*
X13704071Y-9998881D01*
X13694548Y-10017929D01*
X13685024Y-10027452D01*
X13665976Y-10036976D01*
X13646928Y-10036976D01*
X13627881Y-10027452D01*
X13618357Y-10017929D01*
X13608833Y-9998881D01*
X13599309Y-9960786D01*
X13599309Y-9913167D01*
X13608833Y-9875071D01*
X13618357Y-9856024D01*
X13627881Y-9846500D01*
X13646928Y-9836976D01*
X13837405Y-9836976D02*
X13856452Y-9836976D01*
X13875500Y-9846500D01*
X13885024Y-9856024D01*
X13894548Y-9875071D01*
X13904071Y-9913167D01*
X13904071Y-9960786D01*
X13894548Y-9998881D01*
X13885024Y-10017929D01*
X13875500Y-10027452D01*
X13856452Y-10036976D01*
X13837405Y-10036976D01*
X13818357Y-10027452D01*
X13808833Y-10017929D01*
X13799309Y-9998881D01*
X13789786Y-9960786D01*
X13789786Y-9913167D01*
X13799309Y-9875071D01*
X13808833Y-9856024D01*
X13818357Y-9846500D01*
X13837405Y-9836976D01*
X14027881Y-9836976D02*
X14046928Y-9836976D01*
X14065976Y-9846500D01*
X14075500Y-9856024D01*
X14085024Y-9875071D01*
X14094548Y-9913167D01*
X14094548Y-9960786D01*
X14085024Y-9998881D01*
X14075500Y-10017929D01*
X14065976Y-10027452D01*
X14046928Y-10036976D01*
X14027881Y-10036976D01*
X14008833Y-10027452D01*
X13999309Y-10017929D01*
X13989786Y-9998881D01*
X13980262Y-9960786D01*
X13980262Y-9913167D01*
X13989786Y-9875071D01*
X13999309Y-9856024D01*
X14008833Y-9846500D01*
X14027881Y-9836976D01*
X14180262Y-10036976D02*
X14180262Y-9903643D01*
X14180262Y-9922690D02*
X14189786Y-9913167D01*
X14208833Y-9903643D01*
X14237405Y-9903643D01*
X14256452Y-9913167D01*
X14265976Y-9932214D01*
X14265976Y-10036976D01*
X14265976Y-9932214D02*
X14275500Y-9913167D01*
X14294548Y-9903643D01*
X14323119Y-9903643D01*
X14342167Y-9913167D01*
X14351690Y-9932214D01*
X14351690Y-10036976D01*
X14446928Y-10036976D02*
X14446928Y-9903643D01*
X14446928Y-9922690D02*
X14456452Y-9913167D01*
X14475500Y-9903643D01*
X14504071Y-9903643D01*
X14523119Y-9913167D01*
X14532643Y-9932214D01*
X14532643Y-10036976D01*
X14532643Y-9932214D02*
X14542167Y-9913167D01*
X14561214Y-9903643D01*
X14589786Y-9903643D01*
X14608833Y-9913167D01*
X14618357Y-9932214D01*
X14618357Y-10036976D01*
X15008833Y-9827452D02*
X14837405Y-10084595D01*
X15265976Y-9836976D02*
X15285024Y-9836976D01*
X15304071Y-9846500D01*
X15313595Y-9856024D01*
X15323119Y-9875071D01*
X15332643Y-9913167D01*
X15332643Y-9960786D01*
X15323119Y-9998881D01*
X15313595Y-10017929D01*
X15304071Y-10027452D01*
X15285024Y-10036976D01*
X15265976Y-10036976D01*
X15246928Y-10027452D01*
X15237405Y-10017929D01*
X15227881Y-9998881D01*
X15218357Y-9960786D01*
X15218357Y-9913167D01*
X15227881Y-9875071D01*
X15237405Y-9856024D01*
X15246928Y-9846500D01*
X15265976Y-9836976D01*
X15418357Y-10017929D02*
X15427881Y-10027452D01*
X15418357Y-10036976D01*
X15408833Y-10027452D01*
X15418357Y-10017929D01*
X15418357Y-10036976D01*
X15551690Y-9836976D02*
X15570738Y-9836976D01*
X15589786Y-9846500D01*
X15599309Y-9856024D01*
X15608833Y-9875071D01*
X15618357Y-9913167D01*
X15618357Y-9960786D01*
X15608833Y-9998881D01*
X15599309Y-10017929D01*
X15589786Y-10027452D01*
X15570738Y-10036976D01*
X15551690Y-10036976D01*
X15532643Y-10027452D01*
X15523119Y-10017929D01*
X15513595Y-9998881D01*
X15504071Y-9960786D01*
X15504071Y-9913167D01*
X15513595Y-9875071D01*
X15523119Y-9856024D01*
X15532643Y-9846500D01*
X15551690Y-9836976D01*
X15685024Y-9836976D02*
X15808833Y-9836976D01*
X15742167Y-9913167D01*
X15770738Y-9913167D01*
X15789786Y-9922690D01*
X15799309Y-9932214D01*
X15808833Y-9951262D01*
X15808833Y-9998881D01*
X15799309Y-10017929D01*
X15789786Y-10027452D01*
X15770738Y-10036976D01*
X15713595Y-10036976D01*
X15694548Y-10027452D01*
X15685024Y-10017929D01*
X15904071Y-10036976D02*
X15942167Y-10036976D01*
X15961214Y-10027452D01*
X15970738Y-10017929D01*
X15989786Y-9989357D01*
X15999309Y-9951262D01*
X15999309Y-9875071D01*
X15989786Y-9856024D01*
X15980262Y-9846500D01*
X15961214Y-9836976D01*
X15923119Y-9836976D01*
X15904071Y-9846500D01*
X15894548Y-9856024D01*
X15885024Y-9875071D01*
X15885024Y-9922690D01*
X15894548Y-9941738D01*
X15904071Y-9951262D01*
X15923119Y-9960786D01*
X15961214Y-9960786D01*
X15980262Y-9951262D01*
X15989786Y-9941738D01*
X15999309Y-9922690D01*
X16170738Y-9903643D02*
X16170738Y-10036976D01*
X16123119Y-9827452D02*
X16075500Y-9970310D01*
X16199309Y-9970310D01*
X16265976Y-9836976D02*
X16265976Y-9875071D01*
X16342167Y-9836976D02*
X16342167Y-9875071D01*
X16637405Y-10113167D02*
X16627881Y-10103643D01*
X16608833Y-10075071D01*
X16599309Y-10056024D01*
X16589786Y-10027452D01*
X16580262Y-9979833D01*
X16580262Y-9941738D01*
X16589786Y-9894119D01*
X16599309Y-9865548D01*
X16608833Y-9846500D01*
X16627881Y-9817929D01*
X16637405Y-9808405D01*
X16818357Y-10036976D02*
X16704071Y-10036976D01*
X16761214Y-10036976D02*
X16761214Y-9836976D01*
X16742167Y-9865548D01*
X16723119Y-9884595D01*
X16704071Y-9894119D01*
X16942167Y-9836976D02*
X16961214Y-9836976D01*
X16980262Y-9846500D01*
X16989786Y-9856024D01*
X16999310Y-9875071D01*
X17008833Y-9913167D01*
X17008833Y-9960786D01*
X16999310Y-9998881D01*
X16989786Y-10017929D01*
X16980262Y-10027452D01*
X16961214Y-10036976D01*
X16942167Y-10036976D01*
X16923119Y-10027452D01*
X16913595Y-10017929D01*
X16904071Y-9998881D01*
X16894548Y-9960786D01*
X16894548Y-9913167D01*
X16904071Y-9875071D01*
X16913595Y-9856024D01*
X16923119Y-9846500D01*
X16942167Y-9836976D01*
X17246929Y-10036976D02*
X17246929Y-9836976D01*
X17332643Y-10036976D02*
X17332643Y-9932214D01*
X17323119Y-9913167D01*
X17304071Y-9903643D01*
X17275500Y-9903643D01*
X17256452Y-9913167D01*
X17246929Y-9922690D01*
X17456452Y-10036976D02*
X17437405Y-10027452D01*
X17427881Y-10017929D01*
X17418357Y-9998881D01*
X17418357Y-9941738D01*
X17427881Y-9922690D01*
X17437405Y-9913167D01*
X17456452Y-9903643D01*
X17485024Y-9903643D01*
X17504071Y-9913167D01*
X17513595Y-9922690D01*
X17523119Y-9941738D01*
X17523119Y-9998881D01*
X17513595Y-10017929D01*
X17504071Y-10027452D01*
X17485024Y-10036976D01*
X17456452Y-10036976D01*
X17637405Y-10036976D02*
X17618357Y-10027452D01*
X17608833Y-10008405D01*
X17608833Y-9836976D01*
X17789786Y-10027452D02*
X17770738Y-10036976D01*
X17732643Y-10036976D01*
X17713595Y-10027452D01*
X17704071Y-10008405D01*
X17704071Y-9932214D01*
X17713595Y-9913167D01*
X17732643Y-9903643D01*
X17770738Y-9903643D01*
X17789786Y-9913167D01*
X17799310Y-9932214D01*
X17799310Y-9951262D01*
X17704071Y-9970310D01*
X17875500Y-10027452D02*
X17894548Y-10036976D01*
X17932643Y-10036976D01*
X17951690Y-10027452D01*
X17961214Y-10008405D01*
X17961214Y-9998881D01*
X17951690Y-9979833D01*
X17932643Y-9970310D01*
X17904071Y-9970310D01*
X17885024Y-9960786D01*
X17875500Y-9941738D01*
X17875500Y-9932214D01*
X17885024Y-9913167D01*
X17904071Y-9903643D01*
X17932643Y-9903643D01*
X17951690Y-9913167D01*
X18027881Y-10113167D02*
X18037405Y-10103643D01*
X18056452Y-10075071D01*
X18065976Y-10056024D01*
X18075500Y-10027452D01*
X18085024Y-9979833D01*
X18085024Y-9941738D01*
X18075500Y-9894119D01*
X18065976Y-9865548D01*
X18056452Y-9846500D01*
X18037405Y-9817929D01*
X18027881Y-9808405D01*
M02*
