G04 #@! TF.GenerationSoftware,KiCad,Pcbnew,6.0.11*
G04 #@! TF.CreationDate,2025-02-19T14:46:05+01:00*
G04 #@! TF.ProjectId,SPL06,53504c30-362e-46b6-9963-61645f706362,rev?*
G04 #@! TF.SameCoordinates,Original*
G04 #@! TF.FileFunction,Copper,L2,Bot*
G04 #@! TF.FilePolarity,Positive*
%FSLAX46Y46*%
G04 Gerber Fmt 4.6, Leading zero omitted, Abs format (unit mm)*
G04 Created by KiCad (PCBNEW 6.0.11) date 2025-02-19 14:46:05*
%MOMM*%
%LPD*%
G01*
G04 APERTURE LIST*
G04 #@! TA.AperFunction,ComponentPad*
%ADD10O,1.700000X1.700000*%
G04 #@! TD*
G04 #@! TA.AperFunction,ViaPad*
%ADD11C,0.635000*%
G04 #@! TD*
G04 #@! TA.AperFunction,ViaPad*
%ADD12C,0.508000*%
G04 #@! TD*
G04 #@! TA.AperFunction,Conductor*
%ADD13C,0.200000*%
G04 #@! TD*
G04 APERTURE END LIST*
D10*
X147320000Y-76200000D03*
X147320000Y-78740000D03*
X147320000Y-81280000D03*
X147320000Y-83820000D03*
X147320000Y-86360000D03*
X132080000Y-86360000D03*
X132080000Y-83820000D03*
X132080000Y-81280000D03*
X132080000Y-78740000D03*
X132080000Y-76200000D03*
D11*
X139520000Y-80532500D03*
X140208000Y-76860000D03*
X136470000Y-85852000D03*
X135128000Y-82677000D03*
X145897600Y-82550000D03*
X141260000Y-83100000D03*
X144272000Y-85344000D03*
D12*
X137210000Y-84502500D03*
X137210000Y-83092500D03*
D13*
X137210000Y-84510000D02*
X137210000Y-83100000D01*
G04 #@! TA.AperFunction,Conductor*
G36*
X146197957Y-75220207D02*
G01*
X146267198Y-75275426D01*
X146305625Y-75355218D01*
X146305625Y-75443782D01*
X146274625Y-75513642D01*
X146238319Y-75565492D01*
X146229659Y-75580493D01*
X146144571Y-75762964D01*
X146138647Y-75779239D01*
X146098696Y-75928341D01*
X146098063Y-75945253D01*
X146117202Y-75950000D01*
X147371000Y-75950000D01*
X147457343Y-75969707D01*
X147526584Y-76024926D01*
X147565011Y-76104718D01*
X147570000Y-76149000D01*
X147570000Y-76251000D01*
X147550293Y-76337343D01*
X147495074Y-76406584D01*
X147415282Y-76445011D01*
X147371000Y-76450000D01*
X146115315Y-76450000D01*
X146098815Y-76453766D01*
X146099183Y-76473480D01*
X146138647Y-76620761D01*
X146144571Y-76637036D01*
X146229659Y-76819507D01*
X146238319Y-76834508D01*
X146353802Y-76999434D01*
X146364934Y-77012701D01*
X146507299Y-77155066D01*
X146520566Y-77166198D01*
X146685491Y-77281681D01*
X146708010Y-77294682D01*
X146707152Y-77296168D01*
X146768327Y-77343714D01*
X146807748Y-77423020D01*
X146808855Y-77511577D01*
X146771430Y-77591844D01*
X146706869Y-77643332D01*
X146707763Y-77644881D01*
X146700239Y-77649225D01*
X146692362Y-77652898D01*
X146685244Y-77657882D01*
X146685239Y-77657885D01*
X146520243Y-77773416D01*
X146520242Y-77773417D01*
X146513123Y-77778402D01*
X146358402Y-77933123D01*
X146353419Y-77940239D01*
X146353416Y-77940243D01*
X146237885Y-78105239D01*
X146237882Y-78105244D01*
X146232898Y-78112362D01*
X146140425Y-78310670D01*
X146083793Y-78522023D01*
X146064723Y-78740000D01*
X146083793Y-78957977D01*
X146140425Y-79169330D01*
X146232898Y-79367638D01*
X146237882Y-79374756D01*
X146237885Y-79374761D01*
X146353416Y-79539757D01*
X146353419Y-79539761D01*
X146358402Y-79546877D01*
X146513123Y-79701598D01*
X146692361Y-79827102D01*
X146700240Y-79830776D01*
X146707759Y-79835117D01*
X146706859Y-79836676D01*
X146767735Y-79883990D01*
X146807156Y-79963296D01*
X146808263Y-80051853D01*
X146770838Y-80132120D01*
X146706791Y-80183198D01*
X146707763Y-80184881D01*
X146700239Y-80189225D01*
X146692362Y-80192898D01*
X146685244Y-80197882D01*
X146685239Y-80197885D01*
X146520243Y-80313416D01*
X146520242Y-80313417D01*
X146513123Y-80318402D01*
X146358402Y-80473123D01*
X146353419Y-80480239D01*
X146353416Y-80480243D01*
X146237885Y-80645239D01*
X146237882Y-80645244D01*
X146232898Y-80652362D01*
X146140425Y-80850670D01*
X146083793Y-81062023D01*
X146064723Y-81280000D01*
X146083793Y-81497977D01*
X146140425Y-81709330D01*
X146232898Y-81907638D01*
X146237882Y-81914756D01*
X146237885Y-81914761D01*
X146353416Y-82079757D01*
X146353419Y-82079761D01*
X146358402Y-82086877D01*
X146513123Y-82241598D01*
X146692361Y-82367102D01*
X146700240Y-82370776D01*
X146707759Y-82375117D01*
X146706859Y-82376676D01*
X146767735Y-82423990D01*
X146807156Y-82503296D01*
X146808263Y-82591853D01*
X146770838Y-82672120D01*
X146706791Y-82723198D01*
X146707763Y-82724881D01*
X146700239Y-82729225D01*
X146692362Y-82732898D01*
X146685244Y-82737882D01*
X146685239Y-82737885D01*
X146520243Y-82853416D01*
X146520242Y-82853417D01*
X146513123Y-82858402D01*
X146358402Y-83013123D01*
X146353419Y-83020239D01*
X146353416Y-83020243D01*
X146237885Y-83185239D01*
X146237882Y-83185244D01*
X146232898Y-83192362D01*
X146140425Y-83390670D01*
X146138175Y-83399067D01*
X146089234Y-83581718D01*
X146083793Y-83602023D01*
X146064723Y-83820000D01*
X146065480Y-83828653D01*
X146081643Y-84013397D01*
X146083793Y-84037977D01*
X146086040Y-84046364D01*
X146086041Y-84046368D01*
X146129424Y-84208273D01*
X146140425Y-84249330D01*
X146232898Y-84447638D01*
X146237882Y-84454756D01*
X146237885Y-84454761D01*
X146353416Y-84619757D01*
X146353419Y-84619761D01*
X146358402Y-84626877D01*
X146513123Y-84781598D01*
X146692361Y-84907102D01*
X146700240Y-84910776D01*
X146707759Y-84915117D01*
X146706859Y-84916676D01*
X146767735Y-84963990D01*
X146807156Y-85043296D01*
X146808263Y-85131853D01*
X146770838Y-85212120D01*
X146706791Y-85263198D01*
X146707763Y-85264881D01*
X146700239Y-85269225D01*
X146692362Y-85272898D01*
X146685244Y-85277882D01*
X146685239Y-85277885D01*
X146520243Y-85393416D01*
X146520242Y-85393417D01*
X146513123Y-85398402D01*
X146358402Y-85553123D01*
X146353419Y-85560239D01*
X146353416Y-85560243D01*
X146237885Y-85725239D01*
X146237882Y-85725244D01*
X146232898Y-85732362D01*
X146140425Y-85930670D01*
X146083793Y-86142023D01*
X146064723Y-86360000D01*
X146083793Y-86577977D01*
X146140425Y-86789330D01*
X146232898Y-86987638D01*
X146274016Y-87046361D01*
X146307396Y-87128390D01*
X146301880Y-87216781D01*
X146258558Y-87294025D01*
X146186011Y-87344823D01*
X146111004Y-87359500D01*
X133288996Y-87359500D01*
X133202653Y-87339793D01*
X133133412Y-87284574D01*
X133094985Y-87204782D01*
X133094985Y-87116218D01*
X133125983Y-87046362D01*
X133167102Y-86987638D01*
X133259575Y-86789330D01*
X133316207Y-86577977D01*
X133335277Y-86360000D01*
X133316207Y-86142023D01*
X133259575Y-85930670D01*
X133167102Y-85732362D01*
X133162118Y-85725244D01*
X133162115Y-85725239D01*
X133046584Y-85560243D01*
X133046581Y-85560239D01*
X133041598Y-85553123D01*
X132886877Y-85398402D01*
X132707639Y-85272898D01*
X132699760Y-85269224D01*
X132692241Y-85264883D01*
X132693140Y-85263325D01*
X132632257Y-85215999D01*
X132592842Y-85136690D01*
X132591741Y-85048134D01*
X132629172Y-84967869D01*
X132693212Y-84916799D01*
X132692241Y-84915117D01*
X132699760Y-84910776D01*
X132707639Y-84907102D01*
X132886877Y-84781598D01*
X133041598Y-84626877D01*
X133046581Y-84619761D01*
X133046584Y-84619757D01*
X133133522Y-84495596D01*
X136550729Y-84495596D01*
X136552045Y-84507516D01*
X136552045Y-84507520D01*
X136553728Y-84522759D01*
X136568113Y-84653053D01*
X136622553Y-84801819D01*
X136666731Y-84867562D01*
X136699734Y-84916676D01*
X136710908Y-84933305D01*
X136828076Y-85039919D01*
X136967293Y-85115508D01*
X136978897Y-85118552D01*
X136978899Y-85118553D01*
X137108915Y-85152662D01*
X137120522Y-85155707D01*
X137278916Y-85158195D01*
X137372812Y-85136690D01*
X137421632Y-85125509D01*
X137421635Y-85125508D01*
X137433332Y-85122829D01*
X137574855Y-85051651D01*
X137695314Y-84948769D01*
X137719496Y-84915117D01*
X137780756Y-84829864D01*
X137787755Y-84820124D01*
X137846842Y-84673141D01*
X137869162Y-84516307D01*
X137869307Y-84502500D01*
X137850276Y-84345233D01*
X137794280Y-84197046D01*
X137745499Y-84126069D01*
X137712835Y-84043749D01*
X137710500Y-84013354D01*
X137710500Y-83581718D01*
X137730207Y-83495375D01*
X137747892Y-83465600D01*
X137787755Y-83410124D01*
X137846842Y-83263141D01*
X137869162Y-83106307D01*
X137869307Y-83092500D01*
X137850276Y-82935233D01*
X137794280Y-82787046D01*
X137704553Y-82656492D01*
X137695599Y-82648515D01*
X137695597Y-82648512D01*
X137632003Y-82591853D01*
X137586275Y-82551111D01*
X137556370Y-82535277D01*
X137456882Y-82482600D01*
X137456877Y-82482598D01*
X137446274Y-82476984D01*
X137292633Y-82438392D01*
X137280638Y-82438329D01*
X137280637Y-82438329D01*
X137205379Y-82437935D01*
X137134221Y-82437562D01*
X136980184Y-82474543D01*
X136839414Y-82547200D01*
X136830378Y-82555083D01*
X136830376Y-82555084D01*
X136782683Y-82596690D01*
X136720039Y-82651338D01*
X136713141Y-82661153D01*
X136713140Y-82661154D01*
X136635846Y-82771131D01*
X136635844Y-82771135D01*
X136628950Y-82780944D01*
X136622194Y-82798273D01*
X136575762Y-82917363D01*
X136575761Y-82917367D01*
X136571406Y-82928537D01*
X136569841Y-82940428D01*
X136553144Y-83067253D01*
X136550729Y-83085596D01*
X136552045Y-83097516D01*
X136552045Y-83097520D01*
X136553728Y-83112759D01*
X136568113Y-83243053D01*
X136622553Y-83391819D01*
X136672126Y-83465592D01*
X136675673Y-83470870D01*
X136707473Y-83553527D01*
X136709500Y-83581861D01*
X136709500Y-84013397D01*
X136689793Y-84099740D01*
X136673312Y-84127823D01*
X136628950Y-84190944D01*
X136622194Y-84208273D01*
X136575762Y-84327363D01*
X136575761Y-84327367D01*
X136571406Y-84338537D01*
X136550729Y-84495596D01*
X133133522Y-84495596D01*
X133162115Y-84454761D01*
X133162118Y-84454756D01*
X133167102Y-84447638D01*
X133259575Y-84249330D01*
X133270576Y-84208273D01*
X133313959Y-84046368D01*
X133313960Y-84046364D01*
X133316207Y-84037977D01*
X133318358Y-84013397D01*
X133334520Y-83828653D01*
X133335277Y-83820000D01*
X133316207Y-83602023D01*
X133310767Y-83581718D01*
X133261825Y-83399067D01*
X133259575Y-83390670D01*
X133167102Y-83192362D01*
X133162118Y-83185244D01*
X133162115Y-83185239D01*
X133046584Y-83020243D01*
X133046581Y-83020239D01*
X133041598Y-83013123D01*
X132886877Y-82858402D01*
X132707639Y-82732898D01*
X132699760Y-82729224D01*
X132692241Y-82724883D01*
X132693140Y-82723325D01*
X132632257Y-82675999D01*
X132592842Y-82596690D01*
X132591741Y-82508134D01*
X132629172Y-82427869D01*
X132693212Y-82376799D01*
X132692241Y-82375117D01*
X132699760Y-82370776D01*
X132707639Y-82367102D01*
X132886877Y-82241598D01*
X133041598Y-82086877D01*
X133046581Y-82079761D01*
X133046584Y-82079757D01*
X133162115Y-81914761D01*
X133162118Y-81914756D01*
X133167102Y-81907638D01*
X133259575Y-81709330D01*
X133316207Y-81497977D01*
X133335277Y-81280000D01*
X133316207Y-81062023D01*
X133259575Y-80850670D01*
X133167102Y-80652362D01*
X133162118Y-80645244D01*
X133162115Y-80645239D01*
X133046584Y-80480243D01*
X133046581Y-80480239D01*
X133041598Y-80473123D01*
X132886877Y-80318402D01*
X132707639Y-80192898D01*
X132699760Y-80189224D01*
X132692241Y-80184883D01*
X132693140Y-80183325D01*
X132632257Y-80135999D01*
X132592842Y-80056690D01*
X132591741Y-79968134D01*
X132629172Y-79887869D01*
X132693212Y-79836799D01*
X132692241Y-79835117D01*
X132699760Y-79830776D01*
X132707639Y-79827102D01*
X132886877Y-79701598D01*
X133041598Y-79546877D01*
X133046581Y-79539761D01*
X133046584Y-79539757D01*
X133162115Y-79374761D01*
X133162118Y-79374756D01*
X133167102Y-79367638D01*
X133259575Y-79169330D01*
X133316207Y-78957977D01*
X133335277Y-78740000D01*
X133316207Y-78522023D01*
X133259575Y-78310670D01*
X133167102Y-78112362D01*
X133162118Y-78105244D01*
X133162115Y-78105239D01*
X133046584Y-77940243D01*
X133046581Y-77940239D01*
X133041598Y-77933123D01*
X132886877Y-77778402D01*
X132707639Y-77652898D01*
X132699760Y-77649224D01*
X132692241Y-77644883D01*
X132693140Y-77643325D01*
X132632257Y-77595999D01*
X132592842Y-77516690D01*
X132591741Y-77428134D01*
X132629172Y-77347869D01*
X132693212Y-77296799D01*
X132692241Y-77295117D01*
X132699760Y-77290776D01*
X132707639Y-77287102D01*
X132886877Y-77161598D01*
X133041598Y-77006877D01*
X133046581Y-76999761D01*
X133046584Y-76999757D01*
X133162115Y-76834761D01*
X133162118Y-76834756D01*
X133167102Y-76827638D01*
X133259575Y-76629330D01*
X133301335Y-76473480D01*
X133313959Y-76426368D01*
X133313960Y-76426364D01*
X133316207Y-76417977D01*
X133335277Y-76200000D01*
X133326941Y-76104718D01*
X133316964Y-75990674D01*
X133316964Y-75990672D01*
X133316207Y-75982023D01*
X133307627Y-75950000D01*
X133261825Y-75779067D01*
X133259575Y-75770670D01*
X133167102Y-75572362D01*
X133125984Y-75513639D01*
X133092604Y-75431610D01*
X133098120Y-75343219D01*
X133141442Y-75265975D01*
X133213989Y-75215177D01*
X133288996Y-75200500D01*
X146111614Y-75200500D01*
X146197957Y-75220207D01*
G37*
G04 #@! TD.AperFunction*
M02*
