M48
; DRILL file {KiCad 6.0.11} date Mi 19 Feb 2025 14:47:42 CET
; FORMAT={-:-/ absolute / metric / decimal}
; #@! TF.CreationDate,2025-02-19T14:47:42+01:00
; #@! TF.GenerationSoftware,Kicad,Pcbnew,6.0.11
; #@! TF.FileFunction,Plated,1,2,PTH
FMAT,2
METRIC
; #@! TA.AperFunction,Plated,PTH,ViaDrill
T1C0.400
; #@! TA.AperFunction,Plated,PTH,ComponentDrill
T2C0.900
%
G90
G05
T1
X83.82Y-78.232
X83.82Y-79.731
X83.82Y-81.28
X88.9Y-82.042
X90.932Y-68.58
X91.44Y-69.85
X91.694Y-78.74
X91.694Y-79.756
X91.694Y-80.772
X92.456Y-75.438
X93.472Y-73.406
X93.472Y-75.438
X94.488Y-75.438
X96.266Y-78.74
X96.266Y-79.756
X96.266Y-80.772
X99.822Y-78.994
X100.457Y-77.47
X101.092Y-76.708
X101.727Y-77.47
X104.902Y-77.216
X104.902Y-79.883
X105.67Y-81.01
X106.426Y-73.914
X107.442Y-73.914
X107.442Y-74.93
X109.474Y-80.01
X109.728Y-72.39
X110.998Y-78.486
T2
X83.82Y-68.58
X83.82Y-71.12
X83.82Y-73.66
X83.82Y-76.2
X83.82Y-83.82
X86.36Y-68.58
X86.36Y-71.12
X86.36Y-73.66
X86.36Y-76.2
X86.36Y-83.82
X88.9Y-68.58
X88.9Y-71.12
X88.9Y-73.66
X88.9Y-76.2
X88.9Y-83.82
X99.06Y-68.58
X99.06Y-83.82
X101.6Y-68.58
X101.6Y-83.82
X104.14Y-68.58
X104.14Y-83.82
X106.66Y-83.82
X106.68Y-68.58
X109.22Y-68.58
X109.22Y-83.82
X111.76Y-68.58
X111.76Y-83.82
X114.3Y-68.58
X114.3Y-72.39
X114.3Y-74.93
X114.3Y-77.47
X114.3Y-80.01
X114.3Y-83.82
T0
M30
