G04 #@! TF.GenerationSoftware,KiCad,Pcbnew,6.0.11*
G04 #@! TF.CreationDate,2025-02-19T14:47:37+01:00*
G04 #@! TF.ProjectId,JetiMiniVarioPCB,4a657469-4d69-46e6-9956-6172696f5043,rev?*
G04 #@! TF.SameCoordinates,Original*
G04 #@! TF.FileFunction,Copper,L2,Bot*
G04 #@! TF.FilePolarity,Positive*
%FSLAX46Y46*%
G04 Gerber Fmt 4.6, Leading zero omitted, Abs format (unit mm)*
G04 Created by KiCad (PCBNEW 6.0.11) date 2025-02-19 14:47:37*
%MOMM*%
%LPD*%
G01*
G04 APERTURE LIST*
G04 #@! TA.AperFunction,ComponentPad*
%ADD10C,1.700000*%
G04 #@! TD*
G04 #@! TA.AperFunction,ComponentPad*
%ADD11O,1.700000X1.700000*%
G04 #@! TD*
G04 #@! TA.AperFunction,ComponentPad*
%ADD12O,1.700000X1.998980*%
G04 #@! TD*
G04 #@! TA.AperFunction,ViaPad*
%ADD13C,0.800000*%
G04 #@! TD*
G04 #@! TA.AperFunction,Conductor*
%ADD14C,2.000000*%
G04 #@! TD*
G04 #@! TA.AperFunction,Conductor*
%ADD15C,0.250000*%
G04 #@! TD*
G04 APERTURE END LIST*
D10*
X114300000Y-77470000D03*
X114300000Y-72390000D03*
D11*
X88900000Y-73660000D03*
X86360000Y-73660000D03*
X83820000Y-73660000D03*
X88900000Y-83820000D03*
X86360000Y-83820000D03*
X83820000Y-83820000D03*
D12*
X114300000Y-68580000D03*
X111760000Y-68580000D03*
X109220000Y-68580000D03*
X106680000Y-68580000D03*
X104140000Y-68580000D03*
X101600000Y-68580000D03*
X99060000Y-68580000D03*
X99060000Y-83820000D03*
X101600000Y-83820000D03*
X104140000Y-83820000D03*
X106659680Y-83820000D03*
X109220000Y-83820000D03*
X111760000Y-83820000D03*
X114300000Y-83820000D03*
D10*
X114300000Y-80010000D03*
D11*
X88900000Y-76200000D03*
X86360000Y-76200000D03*
X83820000Y-76200000D03*
X88900000Y-68580000D03*
X86360000Y-68580000D03*
X83820000Y-68580000D03*
D10*
X114300000Y-74930000D03*
D11*
X88900000Y-71120000D03*
X86360000Y-71120000D03*
X83820000Y-71120000D03*
D13*
X83820000Y-78232000D03*
X83820000Y-79731500D03*
X94488000Y-75438000D03*
X91694000Y-79756000D03*
X106426000Y-73914000D03*
X107442000Y-73914000D03*
X91440000Y-69850000D03*
X91694000Y-78740000D03*
X105670000Y-81010000D03*
X96266000Y-80772000D03*
X109728000Y-72390000D03*
X96266000Y-78740000D03*
X107442000Y-74930000D03*
X93472000Y-73406000D03*
X88900000Y-82042000D03*
X101092000Y-76708000D03*
X92456000Y-75438000D03*
X93472000Y-75438000D03*
X99822000Y-78994000D03*
X91694000Y-80772000D03*
X83820000Y-81280000D03*
X96266000Y-79756000D03*
X101727000Y-77470000D03*
X90932000Y-68580000D03*
X100457000Y-77470000D03*
X104902000Y-77216000D03*
X104902000Y-79883000D03*
X110998000Y-78486000D03*
X109474000Y-80010000D03*
D14*
X86360000Y-68580000D02*
X86360000Y-71120000D01*
X86360000Y-71120000D02*
X86360000Y-73660000D01*
X86360000Y-73660000D02*
X86360000Y-76200000D01*
X83820000Y-76200000D02*
X83820000Y-78232000D01*
X83820000Y-83820000D02*
X83820000Y-81280000D01*
X83820000Y-71120000D02*
X83820000Y-73660000D01*
X83820000Y-78232000D02*
X83820000Y-79731500D01*
X83820000Y-68580000D02*
X83820000Y-71120000D01*
X83820000Y-81280000D02*
X83820000Y-79731500D01*
X83820000Y-73660000D02*
X83820000Y-76200000D01*
D15*
X83844500Y-79756000D02*
X83820000Y-79731500D01*
X106172000Y-82042000D02*
X90678000Y-82042000D01*
X106659680Y-82529680D02*
X106172000Y-82042000D01*
X90678000Y-82042000D02*
X88900000Y-83820000D01*
X106659680Y-83820000D02*
X106659680Y-82529680D01*
X104902000Y-79883000D02*
X104902000Y-77216000D01*
X110998000Y-78486000D02*
X109474000Y-80010000D01*
G04 #@! TA.AperFunction,Conductor*
G36*
X85034211Y-67576462D02*
G01*
X85088749Y-67631000D01*
X85108711Y-67705500D01*
X85088749Y-67780000D01*
X85082799Y-67789466D01*
X85081779Y-67790962D01*
X85050851Y-67836300D01*
X84946965Y-68060104D01*
X84881026Y-68297871D01*
X84880377Y-68303948D01*
X84880376Y-68303951D01*
X84873153Y-68371544D01*
X84859500Y-68499292D01*
X84859500Y-76262554D01*
X84874575Y-76445911D01*
X84876064Y-76451837D01*
X84876064Y-76451840D01*
X84927692Y-76657380D01*
X84934684Y-76685217D01*
X84937119Y-76690817D01*
X84937120Y-76690820D01*
X84978981Y-76787092D01*
X85033072Y-76911493D01*
X85167095Y-77118661D01*
X85333154Y-77301158D01*
X85526790Y-77454082D01*
X85532143Y-77457037D01*
X85532146Y-77457039D01*
X85634796Y-77513704D01*
X85742802Y-77573327D01*
X85975390Y-77655691D01*
X85981405Y-77656762D01*
X85981407Y-77656763D01*
X86072753Y-77673034D01*
X86218306Y-77698961D01*
X86224419Y-77699036D01*
X86224422Y-77699036D01*
X86328346Y-77700305D01*
X86465028Y-77701975D01*
X86523122Y-77693086D01*
X86702893Y-77665577D01*
X86702896Y-77665576D01*
X86708930Y-77664653D01*
X86943460Y-77587997D01*
X87162321Y-77474065D01*
X87359636Y-77325917D01*
X87439615Y-77242224D01*
X87525877Y-77151956D01*
X87525881Y-77151952D01*
X87530104Y-77147532D01*
X87598460Y-77047327D01*
X87656932Y-76997033D01*
X87732719Y-76982713D01*
X87805513Y-77008205D01*
X87843601Y-77045832D01*
X87857772Y-77066071D01*
X87857777Y-77066078D01*
X87861505Y-77071401D01*
X88028599Y-77238495D01*
X88222170Y-77374035D01*
X88436337Y-77473903D01*
X88442618Y-77475586D01*
X88658313Y-77533381D01*
X88658318Y-77533382D01*
X88664592Y-77535063D01*
X88671063Y-77535629D01*
X88671068Y-77535630D01*
X88893519Y-77555092D01*
X88900000Y-77555659D01*
X88906481Y-77555092D01*
X89128932Y-77535630D01*
X89128937Y-77535629D01*
X89135408Y-77535063D01*
X89141682Y-77533382D01*
X89141687Y-77533381D01*
X89357382Y-77475586D01*
X89363663Y-77473903D01*
X89577830Y-77374035D01*
X89771401Y-77238495D01*
X89938495Y-77071401D01*
X90074035Y-76877829D01*
X90173903Y-76663663D01*
X90207435Y-76538520D01*
X90233381Y-76441687D01*
X90233382Y-76441682D01*
X90235063Y-76435408D01*
X90235653Y-76428673D01*
X90255092Y-76206481D01*
X90255659Y-76200000D01*
X90246968Y-76100659D01*
X90235630Y-75971068D01*
X90235629Y-75971063D01*
X90235063Y-75964592D01*
X90173903Y-75736337D01*
X90074035Y-75522171D01*
X89938495Y-75328599D01*
X89771401Y-75161505D01*
X89615089Y-75052054D01*
X89565512Y-74992970D01*
X89555552Y-74936481D01*
X112945410Y-74936481D01*
X112964864Y-75158845D01*
X112967113Y-75171600D01*
X113024886Y-75387210D01*
X113029317Y-75399384D01*
X113123650Y-75601680D01*
X113130132Y-75612908D01*
X113144702Y-75633715D01*
X113156970Y-75644009D01*
X113164448Y-75641288D01*
X113861865Y-74943871D01*
X113869873Y-74930000D01*
X114730127Y-74930000D01*
X114738135Y-74943871D01*
X115430176Y-75635912D01*
X115444047Y-75643920D01*
X115450938Y-75639942D01*
X115469868Y-75612908D01*
X115476350Y-75601680D01*
X115570683Y-75399384D01*
X115575114Y-75387210D01*
X115632887Y-75171600D01*
X115635136Y-75158845D01*
X115654590Y-74936481D01*
X115654590Y-74923519D01*
X115635136Y-74701155D01*
X115632887Y-74688400D01*
X115575114Y-74472790D01*
X115570683Y-74460616D01*
X115476350Y-74258320D01*
X115469868Y-74247092D01*
X115455298Y-74226285D01*
X115443030Y-74215991D01*
X115435552Y-74218712D01*
X114738135Y-74916129D01*
X114730127Y-74930000D01*
X113869873Y-74930000D01*
X113861865Y-74916129D01*
X113169824Y-74224088D01*
X113155953Y-74216080D01*
X113149062Y-74220058D01*
X113130132Y-74247092D01*
X113123650Y-74258320D01*
X113029317Y-74460616D01*
X113024886Y-74472790D01*
X112967113Y-74688400D01*
X112964864Y-74701155D01*
X112945410Y-74923519D01*
X112945410Y-74936481D01*
X89555552Y-74936481D01*
X89552119Y-74917014D01*
X89578498Y-74844537D01*
X89615089Y-74807946D01*
X89766075Y-74702224D01*
X89771401Y-74698495D01*
X89938495Y-74531401D01*
X90074035Y-74337829D01*
X90173903Y-74123663D01*
X90235063Y-73895408D01*
X90244551Y-73786970D01*
X90255092Y-73666481D01*
X90255659Y-73660000D01*
X90254551Y-73647335D01*
X90235630Y-73431068D01*
X90235629Y-73431063D01*
X90235063Y-73424592D01*
X90173903Y-73196337D01*
X90074035Y-72982171D01*
X89938495Y-72788599D01*
X89771401Y-72621505D01*
X89615089Y-72512054D01*
X89565512Y-72452970D01*
X89554409Y-72390000D01*
X112944341Y-72390000D01*
X112944908Y-72396481D01*
X112955020Y-72512054D01*
X112964937Y-72625408D01*
X113026097Y-72853663D01*
X113125965Y-73067829D01*
X113261505Y-73261401D01*
X113428599Y-73428495D01*
X113433925Y-73432224D01*
X113585348Y-73538252D01*
X113634925Y-73597336D01*
X113648318Y-73673292D01*
X113621939Y-73745769D01*
X113608426Y-73759283D01*
X113608894Y-73759675D01*
X113585991Y-73786970D01*
X113588712Y-73794448D01*
X114286129Y-74491865D01*
X114300000Y-74499873D01*
X114313871Y-74491865D01*
X115005913Y-73799823D01*
X115013921Y-73785952D01*
X115005654Y-73771633D01*
X114965081Y-73723290D01*
X114951681Y-73647335D01*
X114978053Y-73574855D01*
X115014652Y-73538252D01*
X115166075Y-73432224D01*
X115171401Y-73428495D01*
X115338495Y-73261401D01*
X115474035Y-73067829D01*
X115573903Y-72853663D01*
X115635063Y-72625408D01*
X115644981Y-72512054D01*
X115655092Y-72396481D01*
X115655659Y-72390000D01*
X115647263Y-72294035D01*
X115635630Y-72161068D01*
X115635629Y-72161063D01*
X115635063Y-72154592D01*
X115573903Y-71926337D01*
X115474035Y-71712171D01*
X115338495Y-71518599D01*
X115171401Y-71351505D01*
X114977830Y-71215965D01*
X114763663Y-71116097D01*
X114754042Y-71113519D01*
X114541687Y-71056619D01*
X114541682Y-71056618D01*
X114535408Y-71054937D01*
X114528937Y-71054371D01*
X114528932Y-71054370D01*
X114306481Y-71034908D01*
X114300000Y-71034341D01*
X114293519Y-71034908D01*
X114071068Y-71054370D01*
X114071063Y-71054371D01*
X114064592Y-71054937D01*
X114058318Y-71056618D01*
X114058313Y-71056619D01*
X113958730Y-71083302D01*
X113836337Y-71116097D01*
X113622171Y-71215965D01*
X113428599Y-71351505D01*
X113261505Y-71518599D01*
X113125965Y-71712171D01*
X113026097Y-71926337D01*
X112964937Y-72154592D01*
X112964371Y-72161063D01*
X112964370Y-72161068D01*
X112952737Y-72294035D01*
X112944341Y-72390000D01*
X89554409Y-72390000D01*
X89552119Y-72377014D01*
X89578498Y-72304537D01*
X89615089Y-72267946D01*
X89766075Y-72162224D01*
X89771401Y-72158495D01*
X89938495Y-71991401D01*
X90074035Y-71797829D01*
X90173903Y-71583663D01*
X90235063Y-71355408D01*
X90246937Y-71219698D01*
X90255092Y-71126481D01*
X90255659Y-71120000D01*
X90235063Y-70884592D01*
X90173903Y-70656337D01*
X90074035Y-70442171D01*
X89938495Y-70248599D01*
X89771401Y-70081505D01*
X89615089Y-69972054D01*
X89565512Y-69912970D01*
X89552119Y-69837014D01*
X89578498Y-69764537D01*
X89615089Y-69727946D01*
X89766075Y-69622224D01*
X89771401Y-69618495D01*
X89938495Y-69451401D01*
X90074035Y-69257829D01*
X90173903Y-69043663D01*
X90235063Y-68815408D01*
X90237706Y-68785208D01*
X90255092Y-68586481D01*
X90255659Y-68580000D01*
X90255092Y-68573519D01*
X90235630Y-68351068D01*
X90235629Y-68351063D01*
X90235063Y-68344592D01*
X90224174Y-68303951D01*
X90193325Y-68188823D01*
X90173903Y-68116337D01*
X90074035Y-67902171D01*
X90070304Y-67896842D01*
X89996167Y-67790962D01*
X89969788Y-67718486D01*
X89983181Y-67642529D01*
X90032759Y-67583446D01*
X90105235Y-67557067D01*
X90118221Y-67556500D01*
X97743562Y-67556500D01*
X97818062Y-67576462D01*
X97872600Y-67631000D01*
X97892562Y-67705500D01*
X97878602Y-67768471D01*
X97786097Y-67966847D01*
X97724937Y-68195102D01*
X97724371Y-68201573D01*
X97724370Y-68201578D01*
X97715414Y-68303951D01*
X97709500Y-68371544D01*
X97709500Y-68788456D01*
X97724937Y-68964898D01*
X97786097Y-69193153D01*
X97885965Y-69407319D01*
X98021505Y-69600891D01*
X98188599Y-69767985D01*
X98382170Y-69903525D01*
X98596337Y-70003393D01*
X98602618Y-70005076D01*
X98818313Y-70062871D01*
X98818318Y-70062872D01*
X98824592Y-70064553D01*
X98831063Y-70065119D01*
X98831068Y-70065120D01*
X99053519Y-70084582D01*
X99060000Y-70085149D01*
X99066481Y-70084582D01*
X99288932Y-70065120D01*
X99288937Y-70065119D01*
X99295408Y-70064553D01*
X99301682Y-70062872D01*
X99301687Y-70062871D01*
X99401270Y-70036188D01*
X99523663Y-70003393D01*
X99737829Y-69903525D01*
X99931401Y-69767985D01*
X100098495Y-69600891D01*
X100207946Y-69444578D01*
X100267030Y-69395001D01*
X100342986Y-69381608D01*
X100415463Y-69407987D01*
X100452054Y-69444578D01*
X100561505Y-69600891D01*
X100728599Y-69767985D01*
X100922170Y-69903525D01*
X101136337Y-70003393D01*
X101142618Y-70005076D01*
X101358313Y-70062871D01*
X101358318Y-70062872D01*
X101364592Y-70064553D01*
X101371063Y-70065119D01*
X101371068Y-70065120D01*
X101593519Y-70084582D01*
X101600000Y-70085149D01*
X101606481Y-70084582D01*
X101828932Y-70065120D01*
X101828937Y-70065119D01*
X101835408Y-70064553D01*
X101841682Y-70062872D01*
X101841687Y-70062871D01*
X101941270Y-70036188D01*
X102063663Y-70003393D01*
X102277829Y-69903525D01*
X102471401Y-69767985D01*
X102638495Y-69600891D01*
X102747946Y-69444578D01*
X102807030Y-69395001D01*
X102882986Y-69381608D01*
X102955463Y-69407987D01*
X102992054Y-69444578D01*
X103101505Y-69600891D01*
X103268599Y-69767985D01*
X103462170Y-69903525D01*
X103676337Y-70003393D01*
X103682618Y-70005076D01*
X103898313Y-70062871D01*
X103898318Y-70062872D01*
X103904592Y-70064553D01*
X103911063Y-70065119D01*
X103911068Y-70065120D01*
X104133519Y-70084582D01*
X104140000Y-70085149D01*
X104146481Y-70084582D01*
X104368932Y-70065120D01*
X104368937Y-70065119D01*
X104375408Y-70064553D01*
X104381682Y-70062872D01*
X104381687Y-70062871D01*
X104481270Y-70036188D01*
X104603663Y-70003393D01*
X104817829Y-69903525D01*
X105011401Y-69767985D01*
X105178495Y-69600891D01*
X105287946Y-69444578D01*
X105347030Y-69395001D01*
X105422986Y-69381608D01*
X105495463Y-69407987D01*
X105532054Y-69444578D01*
X105641505Y-69600891D01*
X105808599Y-69767985D01*
X106002170Y-69903525D01*
X106216337Y-70003393D01*
X106222618Y-70005076D01*
X106438313Y-70062871D01*
X106438318Y-70062872D01*
X106444592Y-70064553D01*
X106451063Y-70065119D01*
X106451068Y-70065120D01*
X106673519Y-70084582D01*
X106680000Y-70085149D01*
X106686481Y-70084582D01*
X106908932Y-70065120D01*
X106908937Y-70065119D01*
X106915408Y-70064553D01*
X106921682Y-70062872D01*
X106921687Y-70062871D01*
X107021270Y-70036188D01*
X107143663Y-70003393D01*
X107357829Y-69903525D01*
X107551401Y-69767985D01*
X107718495Y-69600891D01*
X107827946Y-69444578D01*
X107887030Y-69395001D01*
X107962986Y-69381608D01*
X108035463Y-69407987D01*
X108072054Y-69444578D01*
X108181505Y-69600891D01*
X108348599Y-69767985D01*
X108542170Y-69903525D01*
X108756337Y-70003393D01*
X108762618Y-70005076D01*
X108978313Y-70062871D01*
X108978318Y-70062872D01*
X108984592Y-70064553D01*
X108991063Y-70065119D01*
X108991068Y-70065120D01*
X109213519Y-70084582D01*
X109220000Y-70085149D01*
X109226481Y-70084582D01*
X109448932Y-70065120D01*
X109448937Y-70065119D01*
X109455408Y-70064553D01*
X109461682Y-70062872D01*
X109461687Y-70062871D01*
X109561270Y-70036188D01*
X109683663Y-70003393D01*
X109897829Y-69903525D01*
X110091401Y-69767985D01*
X110258495Y-69600891D01*
X110367946Y-69444578D01*
X110427030Y-69395001D01*
X110502986Y-69381608D01*
X110575463Y-69407987D01*
X110612054Y-69444578D01*
X110721505Y-69600891D01*
X110888599Y-69767985D01*
X111082170Y-69903525D01*
X111296337Y-70003393D01*
X111302618Y-70005076D01*
X111518313Y-70062871D01*
X111518318Y-70062872D01*
X111524592Y-70064553D01*
X111531063Y-70065119D01*
X111531068Y-70065120D01*
X111753519Y-70084582D01*
X111760000Y-70085149D01*
X111766481Y-70084582D01*
X111988932Y-70065120D01*
X111988937Y-70065119D01*
X111995408Y-70064553D01*
X112001682Y-70062872D01*
X112001687Y-70062871D01*
X112101270Y-70036188D01*
X112223663Y-70003393D01*
X112437829Y-69903525D01*
X112631401Y-69767985D01*
X112798495Y-69600891D01*
X112907946Y-69444578D01*
X112967030Y-69395001D01*
X113042986Y-69381608D01*
X113115463Y-69407987D01*
X113152054Y-69444578D01*
X113261505Y-69600891D01*
X113428599Y-69767985D01*
X113622170Y-69903525D01*
X113836337Y-70003393D01*
X113842618Y-70005076D01*
X114058313Y-70062871D01*
X114058318Y-70062872D01*
X114064592Y-70064553D01*
X114071063Y-70065119D01*
X114071068Y-70065120D01*
X114293519Y-70084582D01*
X114300000Y-70085149D01*
X114306481Y-70084582D01*
X114528932Y-70065120D01*
X114528937Y-70065119D01*
X114535408Y-70064553D01*
X114541682Y-70062872D01*
X114541687Y-70062871D01*
X114641270Y-70036188D01*
X114763663Y-70003393D01*
X114977829Y-69903525D01*
X115171401Y-69767985D01*
X115338495Y-69600891D01*
X115474035Y-69407319D01*
X115573903Y-69193153D01*
X115635063Y-68964898D01*
X115650500Y-68788456D01*
X115650500Y-68371544D01*
X115644586Y-68303951D01*
X115635630Y-68201578D01*
X115635629Y-68201573D01*
X115635063Y-68195102D01*
X115573903Y-67966847D01*
X115481398Y-67768471D01*
X115468005Y-67692514D01*
X115494384Y-67620037D01*
X115553467Y-67570460D01*
X115616438Y-67556500D01*
X116945000Y-67556500D01*
X117019500Y-67576462D01*
X117074038Y-67631000D01*
X117094000Y-67705500D01*
X117094000Y-84694500D01*
X117074038Y-84769000D01*
X117019500Y-84823538D01*
X116945000Y-84843500D01*
X115616438Y-84843500D01*
X115541938Y-84823538D01*
X115487400Y-84769000D01*
X115467438Y-84694500D01*
X115481398Y-84631529D01*
X115571155Y-84439046D01*
X115573903Y-84433153D01*
X115635063Y-84204898D01*
X115650500Y-84028456D01*
X115650500Y-83611544D01*
X115635063Y-83435102D01*
X115613372Y-83354147D01*
X115580160Y-83230199D01*
X115573903Y-83206847D01*
X115474035Y-82992681D01*
X115338495Y-82799109D01*
X115171401Y-82632015D01*
X114977830Y-82496475D01*
X114763663Y-82396607D01*
X114742002Y-82390803D01*
X114541687Y-82337129D01*
X114541682Y-82337128D01*
X114535408Y-82335447D01*
X114528937Y-82334881D01*
X114528932Y-82334880D01*
X114306481Y-82315418D01*
X114300000Y-82314851D01*
X114293519Y-82315418D01*
X114071068Y-82334880D01*
X114071063Y-82334881D01*
X114064592Y-82335447D01*
X114058318Y-82337128D01*
X114058313Y-82337129D01*
X113958730Y-82363812D01*
X113836337Y-82396607D01*
X113622171Y-82496475D01*
X113428599Y-82632015D01*
X113261505Y-82799109D01*
X113125965Y-82992681D01*
X113026097Y-83206847D01*
X113019840Y-83230199D01*
X112986629Y-83354147D01*
X112964937Y-83435102D01*
X112949500Y-83611544D01*
X112949500Y-84028456D01*
X112964937Y-84204898D01*
X113026097Y-84433153D01*
X113028845Y-84439046D01*
X113118602Y-84631529D01*
X113131995Y-84707486D01*
X113105616Y-84779963D01*
X113046533Y-84829540D01*
X112983562Y-84843500D01*
X110536438Y-84843500D01*
X110461938Y-84823538D01*
X110407400Y-84769000D01*
X110387438Y-84694500D01*
X110401398Y-84631529D01*
X110491155Y-84439046D01*
X110493903Y-84433153D01*
X110555063Y-84204898D01*
X110570500Y-84028456D01*
X110570500Y-83611544D01*
X110555063Y-83435102D01*
X110533372Y-83354147D01*
X110500160Y-83230199D01*
X110493903Y-83206847D01*
X110394035Y-82992681D01*
X110258495Y-82799109D01*
X110091401Y-82632015D01*
X109897830Y-82496475D01*
X109683663Y-82396607D01*
X109662002Y-82390803D01*
X109461687Y-82337129D01*
X109461682Y-82337128D01*
X109455408Y-82335447D01*
X109448937Y-82334881D01*
X109448932Y-82334880D01*
X109226481Y-82315418D01*
X109220000Y-82314851D01*
X109213519Y-82315418D01*
X108991068Y-82334880D01*
X108991063Y-82334881D01*
X108984592Y-82335447D01*
X108978318Y-82337128D01*
X108978313Y-82337129D01*
X108878730Y-82363812D01*
X108756337Y-82396607D01*
X108542171Y-82496475D01*
X108348599Y-82632015D01*
X108181505Y-82799109D01*
X108177776Y-82804435D01*
X108061894Y-82969932D01*
X108002810Y-83019509D01*
X107926854Y-83032902D01*
X107854377Y-83006523D01*
X107817786Y-82969932D01*
X107701904Y-82804435D01*
X107698175Y-82799109D01*
X107531081Y-82632015D01*
X107337510Y-82496475D01*
X107338758Y-82494692D01*
X107291690Y-82447635D01*
X107277625Y-82414654D01*
X107277333Y-82413648D01*
X107272607Y-82390803D01*
X107271519Y-82382191D01*
X107270344Y-82372888D01*
X107256799Y-82338677D01*
X107254702Y-82333382D01*
X107250154Y-82320099D01*
X107248269Y-82313612D01*
X107238298Y-82279290D01*
X107233527Y-82271223D01*
X107233524Y-82271216D01*
X107229103Y-82263741D01*
X107218815Y-82242741D01*
X107215617Y-82234662D01*
X107215614Y-82234656D01*
X107212166Y-82225948D01*
X107187184Y-82191563D01*
X107179486Y-82179845D01*
X107157850Y-82143260D01*
X107145078Y-82130488D01*
X107129893Y-82112708D01*
X107124786Y-82105679D01*
X107124784Y-82105677D01*
X107119274Y-82098093D01*
X107086536Y-82071010D01*
X107076153Y-82061563D01*
X106668639Y-81654048D01*
X106661975Y-81646724D01*
X106657786Y-81640123D01*
X106642250Y-81625533D01*
X106609071Y-81594376D01*
X106605710Y-81591119D01*
X106586471Y-81571880D01*
X106582762Y-81569003D01*
X106579260Y-81565916D01*
X106579270Y-81565905D01*
X106573559Y-81561028D01*
X106549415Y-81538355D01*
X106542582Y-81531938D01*
X106534367Y-81527422D01*
X106534363Y-81527419D01*
X106526746Y-81523231D01*
X106507207Y-81510397D01*
X106492936Y-81499327D01*
X106453921Y-81482444D01*
X106441334Y-81476277D01*
X106412309Y-81460320D01*
X106412307Y-81460319D01*
X106404092Y-81455803D01*
X106386597Y-81451311D01*
X106364476Y-81443737D01*
X106347896Y-81436562D01*
X106338642Y-81435096D01*
X106338641Y-81435096D01*
X106305921Y-81429914D01*
X106292174Y-81427067D01*
X106281518Y-81424331D01*
X106251019Y-81416500D01*
X106232955Y-81416500D01*
X106209647Y-81414666D01*
X106201056Y-81413305D01*
X106201053Y-81413305D01*
X106191804Y-81411840D01*
X106149500Y-81415839D01*
X106135478Y-81416500D01*
X90754863Y-81416500D01*
X90744964Y-81416033D01*
X90737333Y-81414327D01*
X90727971Y-81414621D01*
X90727969Y-81414621D01*
X90670495Y-81416427D01*
X90665816Y-81416500D01*
X90638650Y-81416500D01*
X90633992Y-81417089D01*
X90629332Y-81417382D01*
X90629331Y-81417367D01*
X90621861Y-81417954D01*
X90588748Y-81418994D01*
X90588736Y-81418996D01*
X90579373Y-81419290D01*
X90570373Y-81421905D01*
X90570372Y-81421905D01*
X90562023Y-81424331D01*
X90539122Y-81429073D01*
X90521208Y-81431336D01*
X90498609Y-81440284D01*
X90481702Y-81446978D01*
X90468419Y-81451526D01*
X90427610Y-81463382D01*
X90419543Y-81468153D01*
X90419536Y-81468156D01*
X90412061Y-81472577D01*
X90391061Y-81482865D01*
X90382982Y-81486063D01*
X90382976Y-81486066D01*
X90374268Y-81489514D01*
X90360762Y-81499327D01*
X90339886Y-81514494D01*
X90328165Y-81522194D01*
X90291580Y-81543830D01*
X90278808Y-81556602D01*
X90261028Y-81571787D01*
X90253999Y-81576894D01*
X90253997Y-81576896D01*
X90246413Y-81582406D01*
X90237837Y-81592773D01*
X90219325Y-81615150D01*
X90209877Y-81625533D01*
X89365853Y-82469556D01*
X89299058Y-82508120D01*
X89221931Y-82508120D01*
X89141690Y-82486620D01*
X89141687Y-82486620D01*
X89135408Y-82484937D01*
X89128937Y-82484371D01*
X89128932Y-82484370D01*
X88906481Y-82464908D01*
X88900000Y-82464341D01*
X88893519Y-82464908D01*
X88671068Y-82484370D01*
X88671063Y-82484371D01*
X88664592Y-82484937D01*
X88658318Y-82486618D01*
X88658313Y-82486619D01*
X88578071Y-82508120D01*
X88436337Y-82546097D01*
X88222171Y-82645965D01*
X88028599Y-82781505D01*
X87861505Y-82948599D01*
X87802476Y-83032902D01*
X87752054Y-83104912D01*
X87692970Y-83154489D01*
X87617014Y-83167882D01*
X87544537Y-83141503D01*
X87507946Y-83104912D01*
X87457524Y-83032902D01*
X87398495Y-82948599D01*
X87231401Y-82781505D01*
X87037830Y-82645965D01*
X86823663Y-82546097D01*
X86817382Y-82544414D01*
X86601687Y-82486619D01*
X86601682Y-82486618D01*
X86595408Y-82484937D01*
X86588937Y-82484371D01*
X86588932Y-82484370D01*
X86366481Y-82464908D01*
X86360000Y-82464341D01*
X86353519Y-82464908D01*
X86131068Y-82484370D01*
X86131063Y-82484371D01*
X86124592Y-82484937D01*
X86118318Y-82486618D01*
X86118313Y-82486619D01*
X86038071Y-82508120D01*
X85896337Y-82546097D01*
X85682171Y-82645965D01*
X85488599Y-82781505D01*
X85321505Y-82948599D01*
X85185965Y-83142171D01*
X85086097Y-83356337D01*
X85024937Y-83584592D01*
X85024371Y-83591063D01*
X85024370Y-83591068D01*
X85004908Y-83813519D01*
X85004341Y-83820000D01*
X85004908Y-83826481D01*
X85022295Y-84025208D01*
X85024937Y-84055408D01*
X85086097Y-84283663D01*
X85185965Y-84497829D01*
X85189694Y-84503155D01*
X85189696Y-84503158D01*
X85263833Y-84609038D01*
X85290212Y-84681514D01*
X85276819Y-84757471D01*
X85227241Y-84816554D01*
X85154765Y-84842933D01*
X85141779Y-84843500D01*
X81175000Y-84843500D01*
X81100500Y-84823538D01*
X81045962Y-84769000D01*
X81026000Y-84694500D01*
X81026000Y-79883000D01*
X103996540Y-79883000D01*
X103997356Y-79890764D01*
X104009207Y-80003519D01*
X104016326Y-80071256D01*
X104074821Y-80251284D01*
X104169467Y-80415216D01*
X104174689Y-80421016D01*
X104174693Y-80421021D01*
X104222093Y-80473663D01*
X104296129Y-80555888D01*
X104449270Y-80667151D01*
X104622197Y-80744144D01*
X104629833Y-80745767D01*
X104629836Y-80745768D01*
X104799713Y-80781876D01*
X104799714Y-80781876D01*
X104807354Y-80783500D01*
X104996646Y-80783500D01*
X105004286Y-80781876D01*
X105004287Y-80781876D01*
X105174164Y-80745768D01*
X105174167Y-80745767D01*
X105181803Y-80744144D01*
X105354730Y-80667151D01*
X105507871Y-80555888D01*
X105581907Y-80473663D01*
X105629307Y-80421021D01*
X105629311Y-80421016D01*
X105634533Y-80415216D01*
X105729179Y-80251284D01*
X105787674Y-80071256D01*
X105794113Y-80010000D01*
X108568540Y-80010000D01*
X108588326Y-80198256D01*
X108590741Y-80205688D01*
X108590741Y-80205689D01*
X108603143Y-80243857D01*
X108646821Y-80378284D01*
X108741467Y-80542216D01*
X108746689Y-80548016D01*
X108746693Y-80548021D01*
X108812403Y-80620998D01*
X108868129Y-80682888D01*
X108874447Y-80687479D01*
X108874449Y-80687480D01*
X108948068Y-80740967D01*
X109021270Y-80794151D01*
X109194197Y-80871144D01*
X109201833Y-80872767D01*
X109201836Y-80872768D01*
X109371713Y-80908876D01*
X109371714Y-80908876D01*
X109379354Y-80910500D01*
X109568646Y-80910500D01*
X109576286Y-80908876D01*
X109576287Y-80908876D01*
X109746164Y-80872768D01*
X109746167Y-80872767D01*
X109753803Y-80871144D01*
X109926730Y-80794151D01*
X109999932Y-80740967D01*
X110073551Y-80687480D01*
X110073553Y-80687479D01*
X110079871Y-80682888D01*
X110135597Y-80620998D01*
X110201307Y-80548021D01*
X110201311Y-80548016D01*
X110206533Y-80542216D01*
X110301179Y-80378284D01*
X110344857Y-80243857D01*
X110357259Y-80205689D01*
X110357259Y-80205688D01*
X110359674Y-80198256D01*
X110376396Y-80039154D01*
X110387587Y-80010000D01*
X112944341Y-80010000D01*
X112944908Y-80016481D01*
X112960812Y-80198256D01*
X112964937Y-80245408D01*
X113026097Y-80473663D01*
X113125965Y-80687829D01*
X113261505Y-80881401D01*
X113428599Y-81048495D01*
X113622170Y-81184035D01*
X113836337Y-81283903D01*
X113842618Y-81285586D01*
X114058313Y-81343381D01*
X114058318Y-81343382D01*
X114064592Y-81345063D01*
X114071063Y-81345629D01*
X114071068Y-81345630D01*
X114293519Y-81365092D01*
X114300000Y-81365659D01*
X114306481Y-81365092D01*
X114528932Y-81345630D01*
X114528937Y-81345629D01*
X114535408Y-81345063D01*
X114541682Y-81343382D01*
X114541687Y-81343381D01*
X114757382Y-81285586D01*
X114763663Y-81283903D01*
X114977830Y-81184035D01*
X115171401Y-81048495D01*
X115338495Y-80881401D01*
X115474035Y-80687829D01*
X115573903Y-80473663D01*
X115635063Y-80245408D01*
X115639189Y-80198256D01*
X115655092Y-80016481D01*
X115655659Y-80010000D01*
X115644548Y-79883000D01*
X115635630Y-79781068D01*
X115635629Y-79781063D01*
X115635063Y-79774592D01*
X115573903Y-79546337D01*
X115474035Y-79332171D01*
X115338495Y-79138599D01*
X115171401Y-78971505D01*
X115014652Y-78861748D01*
X114965075Y-78802664D01*
X114951682Y-78726708D01*
X114978061Y-78654231D01*
X114991575Y-78640718D01*
X114991107Y-78640325D01*
X115014011Y-78613030D01*
X115011290Y-78605554D01*
X114313871Y-77908135D01*
X114300000Y-77900127D01*
X114286129Y-77908135D01*
X113594087Y-78600177D01*
X113586079Y-78614048D01*
X113594338Y-78628354D01*
X113634927Y-78676729D01*
X113648318Y-78752686D01*
X113621936Y-78825162D01*
X113585347Y-78861749D01*
X113428599Y-78971505D01*
X113261505Y-79138599D01*
X113125965Y-79332171D01*
X113026097Y-79546337D01*
X112964937Y-79774592D01*
X112964371Y-79781063D01*
X112964370Y-79781068D01*
X112955452Y-79883000D01*
X112944341Y-80010000D01*
X110387587Y-80010000D01*
X110404036Y-79967148D01*
X110419221Y-79949369D01*
X110938450Y-79430141D01*
X111005245Y-79391577D01*
X111043809Y-79386500D01*
X111092646Y-79386500D01*
X111100286Y-79384876D01*
X111100287Y-79384876D01*
X111270164Y-79348768D01*
X111270167Y-79348767D01*
X111277803Y-79347144D01*
X111450730Y-79270151D01*
X111603871Y-79158888D01*
X111687635Y-79065859D01*
X111725307Y-79024021D01*
X111725311Y-79024016D01*
X111730533Y-79018216D01*
X111759655Y-78967776D01*
X111820869Y-78861749D01*
X111825179Y-78854284D01*
X111883674Y-78674256D01*
X111887241Y-78640325D01*
X111902644Y-78493764D01*
X111903460Y-78486000D01*
X111883674Y-78297744D01*
X111825179Y-78117716D01*
X111730533Y-77953784D01*
X111725311Y-77947984D01*
X111725307Y-77947979D01*
X111652471Y-77867088D01*
X111603871Y-77813112D01*
X111450730Y-77701849D01*
X111277803Y-77624856D01*
X111270167Y-77623233D01*
X111270164Y-77623232D01*
X111100287Y-77587124D01*
X111100286Y-77587124D01*
X111092646Y-77585500D01*
X110903354Y-77585500D01*
X110895714Y-77587124D01*
X110895713Y-77587124D01*
X110725836Y-77623232D01*
X110725833Y-77623233D01*
X110718197Y-77624856D01*
X110545270Y-77701849D01*
X110392129Y-77813112D01*
X110343529Y-77867088D01*
X110270693Y-77947979D01*
X110270689Y-77947984D01*
X110265467Y-77953784D01*
X110170821Y-78117716D01*
X110112326Y-78297744D01*
X110098737Y-78427038D01*
X110095604Y-78456846D01*
X110067964Y-78528851D01*
X110052779Y-78546630D01*
X109533550Y-79065859D01*
X109466755Y-79104423D01*
X109428191Y-79109500D01*
X109379354Y-79109500D01*
X109371714Y-79111124D01*
X109371713Y-79111124D01*
X109201836Y-79147232D01*
X109201833Y-79147233D01*
X109194197Y-79148856D01*
X109021270Y-79225849D01*
X109014954Y-79230438D01*
X108874930Y-79332171D01*
X108868129Y-79337112D01*
X108857634Y-79348768D01*
X108746693Y-79471979D01*
X108746689Y-79471984D01*
X108741467Y-79477784D01*
X108646821Y-79641716D01*
X108644408Y-79649143D01*
X108601543Y-79781068D01*
X108588326Y-79821744D01*
X108568540Y-80010000D01*
X105794113Y-80010000D01*
X105794794Y-80003519D01*
X105806644Y-79890764D01*
X105807460Y-79883000D01*
X105787674Y-79694744D01*
X105729179Y-79514716D01*
X105634533Y-79350784D01*
X105629316Y-79344990D01*
X105629308Y-79344979D01*
X105565771Y-79274415D01*
X105530756Y-79205694D01*
X105527500Y-79174715D01*
X105527500Y-77924285D01*
X105547462Y-77849785D01*
X105565771Y-77824585D01*
X105629308Y-77754021D01*
X105629316Y-77754010D01*
X105634533Y-77748216D01*
X105729179Y-77584284D01*
X105764206Y-77476481D01*
X112945410Y-77476481D01*
X112964864Y-77698845D01*
X112967113Y-77711600D01*
X113024886Y-77927210D01*
X113029317Y-77939384D01*
X113123650Y-78141680D01*
X113130132Y-78152908D01*
X113144702Y-78173715D01*
X113156970Y-78184009D01*
X113164448Y-78181288D01*
X113861865Y-77483871D01*
X113869873Y-77470000D01*
X114730127Y-77470000D01*
X114738135Y-77483871D01*
X115430176Y-78175912D01*
X115444047Y-78183920D01*
X115450938Y-78179942D01*
X115469868Y-78152908D01*
X115476350Y-78141680D01*
X115570683Y-77939384D01*
X115575114Y-77927210D01*
X115632887Y-77711600D01*
X115635136Y-77698845D01*
X115654590Y-77476481D01*
X115654590Y-77463519D01*
X115635136Y-77241155D01*
X115632887Y-77228400D01*
X115575114Y-77012790D01*
X115570683Y-77000616D01*
X115476350Y-76798320D01*
X115469868Y-76787092D01*
X115455298Y-76766285D01*
X115443030Y-76755991D01*
X115435552Y-76758712D01*
X114738135Y-77456129D01*
X114730127Y-77470000D01*
X113869873Y-77470000D01*
X113861865Y-77456129D01*
X113169824Y-76764088D01*
X113155953Y-76756080D01*
X113149062Y-76760058D01*
X113130132Y-76787092D01*
X113123650Y-76798320D01*
X113029317Y-77000616D01*
X113024886Y-77012790D01*
X112967113Y-77228400D01*
X112964864Y-77241155D01*
X112945410Y-77463519D01*
X112945410Y-77476481D01*
X105764206Y-77476481D01*
X105770819Y-77456129D01*
X105785259Y-77411689D01*
X105785259Y-77411688D01*
X105787674Y-77404256D01*
X105790851Y-77374035D01*
X105806644Y-77223764D01*
X105807460Y-77216000D01*
X105800264Y-77147532D01*
X105788491Y-77035514D01*
X105788490Y-77035511D01*
X105787674Y-77027744D01*
X105773043Y-76982713D01*
X105751571Y-76916632D01*
X105729179Y-76847716D01*
X105674635Y-76753244D01*
X105638438Y-76690547D01*
X105638436Y-76690544D01*
X105634533Y-76683784D01*
X105629311Y-76677984D01*
X105629307Y-76677979D01*
X105563597Y-76605002D01*
X105507871Y-76543112D01*
X105354730Y-76431849D01*
X105181803Y-76354856D01*
X105174167Y-76353233D01*
X105174164Y-76353232D01*
X105050609Y-76326970D01*
X113585991Y-76326970D01*
X113588712Y-76334448D01*
X114286129Y-77031865D01*
X114300000Y-77039873D01*
X114313871Y-77031865D01*
X115005913Y-76339823D01*
X115013921Y-76325952D01*
X115006055Y-76312327D01*
X114964640Y-76262971D01*
X114951246Y-76187015D01*
X114977625Y-76114538D01*
X114991504Y-76100659D01*
X114991107Y-76100325D01*
X115014011Y-76073030D01*
X115011290Y-76065554D01*
X114313871Y-75368135D01*
X114300000Y-75360127D01*
X114286129Y-75368135D01*
X113594087Y-76060177D01*
X113586079Y-76074048D01*
X113593942Y-76087668D01*
X113635364Y-76137035D01*
X113648755Y-76212992D01*
X113622373Y-76285467D01*
X113608497Y-76299342D01*
X113608894Y-76299675D01*
X113585991Y-76326970D01*
X105050609Y-76326970D01*
X105004287Y-76317124D01*
X105004286Y-76317124D01*
X104996646Y-76315500D01*
X104807354Y-76315500D01*
X104799714Y-76317124D01*
X104799713Y-76317124D01*
X104629836Y-76353232D01*
X104629833Y-76353233D01*
X104622197Y-76354856D01*
X104449270Y-76431849D01*
X104296129Y-76543112D01*
X104240403Y-76605002D01*
X104174693Y-76677979D01*
X104174689Y-76677984D01*
X104169467Y-76683784D01*
X104165564Y-76690544D01*
X104165562Y-76690547D01*
X104129365Y-76753244D01*
X104074821Y-76847716D01*
X104052429Y-76916632D01*
X104030958Y-76982713D01*
X104016326Y-77027744D01*
X104015510Y-77035511D01*
X104015509Y-77035514D01*
X104003736Y-77147532D01*
X103996540Y-77216000D01*
X103997356Y-77223764D01*
X104013150Y-77374035D01*
X104016326Y-77404256D01*
X104018741Y-77411688D01*
X104018741Y-77411689D01*
X104033181Y-77456129D01*
X104074821Y-77584284D01*
X104169467Y-77748216D01*
X104174684Y-77754010D01*
X104174692Y-77754021D01*
X104238229Y-77824585D01*
X104273244Y-77893306D01*
X104276500Y-77924285D01*
X104276500Y-79174715D01*
X104256538Y-79249215D01*
X104238229Y-79274415D01*
X104174692Y-79344979D01*
X104174684Y-79344990D01*
X104169467Y-79350784D01*
X104074821Y-79514716D01*
X104016326Y-79694744D01*
X103996540Y-79883000D01*
X81026000Y-79883000D01*
X81026000Y-67705500D01*
X81045962Y-67631000D01*
X81100500Y-67576462D01*
X81175000Y-67556500D01*
X84959711Y-67556500D01*
X85034211Y-67576462D01*
G37*
G04 #@! TD.AperFunction*
M02*
