G04 #@! TF.GenerationSoftware,KiCad,Pcbnew,6.0.11*
G04 #@! TF.CreationDate,2025-02-19T14:47:37+01:00*
G04 #@! TF.ProjectId,JetiMiniVarioPCB,4a657469-4d69-46e6-9956-6172696f5043,rev?*
G04 #@! TF.SameCoordinates,Original*
G04 #@! TF.FileFunction,Copper,L1,Top*
G04 #@! TF.FilePolarity,Positive*
%FSLAX46Y46*%
G04 Gerber Fmt 4.6, Leading zero omitted, Abs format (unit mm)*
G04 Created by KiCad (PCBNEW 6.0.11) date 2025-02-19 14:47:37*
%MOMM*%
%LPD*%
G01*
G04 APERTURE LIST*
G04 Aperture macros list*
%AMRoundRect*
0 Rectangle with rounded corners*
0 $1 Rounding radius*
0 $2 $3 $4 $5 $6 $7 $8 $9 X,Y pos of 4 corners*
0 Add a 4 corners polygon primitive as box body*
4,1,4,$2,$3,$4,$5,$6,$7,$8,$9,$2,$3,0*
0 Add four circle primitives for the rounded corners*
1,1,$1+$1,$2,$3*
1,1,$1+$1,$4,$5*
1,1,$1+$1,$6,$7*
1,1,$1+$1,$8,$9*
0 Add four rect primitives between the rounded corners*
20,1,$1+$1,$2,$3,$4,$5,0*
20,1,$1+$1,$4,$5,$6,$7,0*
20,1,$1+$1,$6,$7,$8,$9,0*
20,1,$1+$1,$8,$9,$2,$3,0*%
%AMFreePoly0*
4,1,9,3.862500,-0.866500,0.737500,-0.866500,0.737500,-0.450000,-0.737500,-0.450000,-0.737500,0.450000,0.737500,0.450000,0.737500,0.866500,3.862500,0.866500,3.862500,-0.866500,3.862500,-0.866500,$1*%
G04 Aperture macros list end*
G04 #@! TA.AperFunction,SMDPad,CuDef*
%ADD10RoundRect,0.237500X-0.250000X-0.237500X0.250000X-0.237500X0.250000X0.237500X-0.250000X0.237500X0*%
G04 #@! TD*
G04 #@! TA.AperFunction,ComponentPad*
%ADD11C,1.700000*%
G04 #@! TD*
G04 #@! TA.AperFunction,SMDPad,CuDef*
%ADD12RoundRect,0.500000X0.500000X-0.500000X0.500000X0.500000X-0.500000X0.500000X-0.500000X-0.500000X0*%
G04 #@! TD*
G04 #@! TA.AperFunction,ComponentPad*
%ADD13O,1.700000X1.700000*%
G04 #@! TD*
G04 #@! TA.AperFunction,SMDPad,CuDef*
%ADD14RoundRect,0.237500X0.237500X-0.250000X0.237500X0.250000X-0.237500X0.250000X-0.237500X-0.250000X0*%
G04 #@! TD*
G04 #@! TA.AperFunction,SMDPad,CuDef*
%ADD15R,0.900000X1.300000*%
G04 #@! TD*
G04 #@! TA.AperFunction,SMDPad,CuDef*
%ADD16FreePoly0,270.000000*%
G04 #@! TD*
G04 #@! TA.AperFunction,ComponentPad*
%ADD17O,1.700000X1.998980*%
G04 #@! TD*
G04 #@! TA.AperFunction,SMDPad,CuDef*
%ADD18RoundRect,0.250000X-0.475000X0.337500X-0.475000X-0.337500X0.475000X-0.337500X0.475000X0.337500X0*%
G04 #@! TD*
G04 #@! TA.AperFunction,ViaPad*
%ADD19C,0.800000*%
G04 #@! TD*
G04 #@! TA.AperFunction,Conductor*
%ADD20C,0.500000*%
G04 #@! TD*
G04 #@! TA.AperFunction,Conductor*
%ADD21C,2.000000*%
G04 #@! TD*
G04 #@! TA.AperFunction,Conductor*
%ADD22C,0.250000*%
G04 #@! TD*
G04 #@! TA.AperFunction,Conductor*
%ADD23C,0.600000*%
G04 #@! TD*
G04 APERTURE END LIST*
D10*
X109069500Y-75692000D03*
X110894500Y-75692000D03*
D11*
X114300000Y-77470000D03*
D12*
X92710000Y-68580000D03*
D11*
X114300000Y-72390000D03*
D13*
X88900000Y-73660000D03*
X86360000Y-73660000D03*
X83820000Y-73660000D03*
D14*
X102870000Y-80819000D03*
X102870000Y-78994000D03*
D15*
X94972000Y-77090000D03*
D16*
X93472000Y-77177500D03*
D15*
X91972000Y-77090000D03*
D12*
X95504000Y-68580000D03*
D13*
X88900000Y-83820000D03*
X86360000Y-83820000D03*
X83820000Y-83820000D03*
D17*
X114300000Y-68580000D03*
X111760000Y-68580000D03*
X109220000Y-68580000D03*
X106680000Y-68580000D03*
X104140000Y-68580000D03*
X101600000Y-68580000D03*
X99060000Y-68580000D03*
X99060000Y-83820000D03*
X101600000Y-83820000D03*
X104140000Y-83820000D03*
X106659680Y-83820000D03*
X109220000Y-83820000D03*
X111760000Y-83820000D03*
X114300000Y-83820000D03*
D18*
X88900000Y-78486000D03*
X88900000Y-80561000D03*
D12*
X92710000Y-83820000D03*
X95504000Y-83820000D03*
D18*
X98044000Y-78486000D03*
X98044000Y-80561000D03*
D14*
X101092000Y-80819000D03*
X101092000Y-78994000D03*
D11*
X114300000Y-80010000D03*
D10*
X109069500Y-73914000D03*
X110894500Y-73914000D03*
D13*
X88900000Y-76200000D03*
X86360000Y-76200000D03*
X83820000Y-76200000D03*
X88900000Y-68580000D03*
X86360000Y-68580000D03*
X83820000Y-68580000D03*
D11*
X114300000Y-74930000D03*
D13*
X88900000Y-71120000D03*
X86360000Y-71120000D03*
X83820000Y-71120000D03*
D19*
X83820000Y-78232000D03*
X83820000Y-79731500D03*
X94488000Y-75438000D03*
X91694000Y-79756000D03*
X106426000Y-73914000D03*
X107442000Y-73914000D03*
X91440000Y-69850000D03*
X91694000Y-78740000D03*
X105670000Y-81010000D03*
X96266000Y-80772000D03*
X109728000Y-72390000D03*
X96266000Y-78740000D03*
X107442000Y-74930000D03*
X93472000Y-73406000D03*
X88900000Y-82042000D03*
X101092000Y-76708000D03*
X92456000Y-75438000D03*
X93472000Y-75438000D03*
X99822000Y-78994000D03*
X91694000Y-80772000D03*
X83820000Y-81280000D03*
X96266000Y-79756000D03*
X101727000Y-77470000D03*
X90932000Y-68580000D03*
X100457000Y-77470000D03*
X104902000Y-77216000D03*
X104902000Y-79883000D03*
X110998000Y-78486000D03*
X109474000Y-80010000D03*
D20*
X91972000Y-77090000D02*
X91566000Y-77090000D01*
X90170000Y-78486000D02*
X88900000Y-78486000D01*
X91566000Y-77090000D02*
X90170000Y-78486000D01*
D21*
X86360000Y-78486000D02*
X86360000Y-83820000D01*
X86360000Y-71120000D02*
X86360000Y-73660000D01*
X86360000Y-68580000D02*
X86360000Y-71120000D01*
X86360000Y-73660000D02*
X86360000Y-76200000D01*
D20*
X88900000Y-78486000D02*
X86360000Y-78486000D01*
D21*
X86360000Y-76200000D02*
X86360000Y-78486000D01*
D22*
X100457000Y-77470000D02*
X101092000Y-77470000D01*
D21*
X83820000Y-78232000D02*
X83820000Y-79731500D01*
X83820000Y-79731500D02*
X83820000Y-81280000D01*
X83820000Y-81280000D02*
X83820000Y-83820000D01*
D22*
X91694000Y-78740000D02*
X91909500Y-78740000D01*
D21*
X83820000Y-73660000D02*
X83820000Y-76200000D01*
D22*
X101092000Y-76708000D02*
X101092000Y-77470000D01*
X101727000Y-77470000D02*
X101092000Y-77470000D01*
D21*
X83820000Y-71120000D02*
X83820000Y-68580000D01*
D22*
X101092000Y-77216000D02*
X101092000Y-78994000D01*
D21*
X83820000Y-71120000D02*
X83820000Y-73660000D01*
D23*
X91440000Y-69850000D02*
X92710000Y-68580000D01*
D21*
X83820000Y-76200000D02*
X83820000Y-78232000D01*
D20*
X107188000Y-78994000D02*
X109982000Y-78994000D01*
X98172000Y-77090000D02*
X98896000Y-77090000D01*
X98896000Y-77090000D02*
X100548000Y-75438000D01*
X104394000Y-78232000D02*
X106426000Y-78232000D01*
X94972000Y-77090000D02*
X94972000Y-81558000D01*
X94972000Y-77090000D02*
X98172000Y-77090000D01*
X114300000Y-83312000D02*
X114300000Y-83820000D01*
X106426000Y-78232000D02*
X107188000Y-78994000D01*
X109982000Y-78994000D02*
X114300000Y-83312000D01*
X101600000Y-75438000D02*
X104394000Y-78232000D01*
X94972000Y-81558000D02*
X92710000Y-83820000D01*
X98044000Y-77218000D02*
X98172000Y-77090000D01*
X100548000Y-75438000D02*
X101600000Y-75438000D01*
X98044000Y-78486000D02*
X98044000Y-77218000D01*
D22*
X104902000Y-79883000D02*
X104140000Y-80645000D01*
X102108000Y-74422000D02*
X90932000Y-74422000D01*
X104140000Y-80645000D02*
X104140000Y-83820000D01*
X90932000Y-74422000D02*
X89154000Y-76200000D01*
X89154000Y-76200000D02*
X88900000Y-76200000D01*
X104902000Y-77216000D02*
X102108000Y-74422000D01*
X89662000Y-73660000D02*
X90932000Y-72390000D01*
X88900000Y-73660000D02*
X89662000Y-73660000D01*
X107950000Y-72390000D02*
X111760000Y-68580000D01*
X90932000Y-72390000D02*
X107950000Y-72390000D01*
D20*
X95504000Y-83820000D02*
X99060000Y-83820000D01*
X99060000Y-68580000D02*
X95504000Y-68580000D01*
X112522000Y-80010000D02*
X114300000Y-80010000D01*
X110998000Y-78486000D02*
X112522000Y-80010000D01*
D22*
X109474000Y-80010000D02*
X106680000Y-80010000D01*
X105664000Y-78994000D02*
X102870000Y-78994000D01*
X106680000Y-80010000D02*
X105664000Y-78994000D01*
D20*
X110998000Y-75692000D02*
X114300000Y-72390000D01*
X110894500Y-75692000D02*
X110998000Y-75692000D01*
D22*
X109069500Y-75692000D02*
X110847500Y-73914000D01*
D20*
X110894500Y-73914000D02*
X110894500Y-73152000D01*
X110894500Y-73152000D02*
X114300000Y-69746500D01*
D22*
X110847500Y-73914000D02*
X110894500Y-73914000D01*
D20*
X114300000Y-69746500D02*
X114300000Y-68580000D01*
X101600000Y-83820000D02*
X101092000Y-83312000D01*
X101092000Y-83312000D02*
X101092000Y-80819000D01*
X101092000Y-80819000D02*
X102870000Y-80819000D01*
D22*
X104394000Y-70866000D02*
X106680000Y-68580000D01*
X88900000Y-68580000D02*
X88900000Y-68834000D01*
X88900000Y-68834000D02*
X90932000Y-70866000D01*
X90932000Y-70866000D02*
X104394000Y-70866000D01*
X88900000Y-71120000D02*
X89408000Y-71628000D01*
X106506336Y-71628000D02*
X109220000Y-68914336D01*
X109220000Y-68914336D02*
X109220000Y-68580000D01*
X89408000Y-71628000D02*
X106506336Y-71628000D01*
G04 #@! TA.AperFunction,Conductor*
G36*
X84955306Y-67576207D02*
G01*
X85024547Y-67631426D01*
X85062974Y-67711218D01*
X85062974Y-67799782D01*
X85049465Y-67839286D01*
X84994139Y-67958477D01*
X84946965Y-68060104D01*
X84881026Y-68297871D01*
X84873615Y-68367217D01*
X84861669Y-68479000D01*
X84859500Y-68499292D01*
X84859500Y-83882554D01*
X84874575Y-84065911D01*
X84876562Y-84073821D01*
X84876563Y-84073828D01*
X84907312Y-84196244D01*
X84934684Y-84305217D01*
X84937940Y-84312706D01*
X84937942Y-84312711D01*
X85006173Y-84469629D01*
X85033072Y-84531493D01*
X85037511Y-84538355D01*
X85041367Y-84545546D01*
X85039876Y-84546346D01*
X85066604Y-84619598D01*
X85057856Y-84707728D01*
X85011736Y-84783335D01*
X84937379Y-84831445D01*
X84869168Y-84843500D01*
X81225000Y-84843500D01*
X81138657Y-84823793D01*
X81069416Y-84768574D01*
X81030989Y-84688782D01*
X81026000Y-84644500D01*
X81026000Y-67755500D01*
X81045707Y-67669157D01*
X81100926Y-67599916D01*
X81180718Y-67561489D01*
X81225000Y-67556500D01*
X84868963Y-67556500D01*
X84955306Y-67576207D01*
G37*
G04 #@! TD.AperFunction*
G04 #@! TA.AperFunction,Conductor*
G36*
X105943061Y-80190265D02*
G01*
X106025119Y-80239710D01*
X106184651Y-80399242D01*
X106189756Y-80404852D01*
X106194214Y-80411877D01*
X106241332Y-80456124D01*
X106242371Y-80457100D01*
X106246859Y-80461450D01*
X106265529Y-80480120D01*
X106270467Y-80483950D01*
X106275164Y-80488091D01*
X106275049Y-80488222D01*
X106280165Y-80492591D01*
X106309418Y-80520062D01*
X106320383Y-80526090D01*
X106320386Y-80526092D01*
X106321795Y-80526866D01*
X106347901Y-80544014D01*
X106359064Y-80552673D01*
X106380657Y-80562017D01*
X106395904Y-80568615D01*
X106412735Y-80576861D01*
X106447908Y-80596197D01*
X106460034Y-80599311D01*
X106460038Y-80599312D01*
X106461595Y-80599712D01*
X106491125Y-80609822D01*
X106492610Y-80610465D01*
X106492617Y-80610467D01*
X106504104Y-80615438D01*
X106516469Y-80617396D01*
X106516471Y-80617397D01*
X106543748Y-80621717D01*
X106562106Y-80625519D01*
X106588851Y-80632386D01*
X106588855Y-80632386D01*
X106600981Y-80635500D01*
X106615112Y-80635500D01*
X106646241Y-80637950D01*
X106647794Y-80638196D01*
X106660196Y-80640160D01*
X106672659Y-80638982D01*
X106672661Y-80638982D01*
X106700152Y-80636383D01*
X106718880Y-80635500D01*
X108740740Y-80635500D01*
X108827083Y-80655207D01*
X108867806Y-80682529D01*
X108868129Y-80682888D01*
X109021270Y-80794151D01*
X109030801Y-80798394D01*
X109030800Y-80798394D01*
X109181139Y-80865330D01*
X109194197Y-80871144D01*
X109204394Y-80873312D01*
X109204399Y-80873313D01*
X109292103Y-80891954D01*
X109379354Y-80910500D01*
X109568646Y-80910500D01*
X109655897Y-80891954D01*
X109743601Y-80873313D01*
X109743606Y-80873312D01*
X109753803Y-80871144D01*
X109766862Y-80865330D01*
X109917200Y-80798394D01*
X109917199Y-80798394D01*
X109926730Y-80794151D01*
X110079871Y-80682888D01*
X110190500Y-80560022D01*
X110262919Y-80509044D01*
X110350286Y-80494536D01*
X110435296Y-80519372D01*
X110479099Y-80552466D01*
X112967549Y-83040916D01*
X113014668Y-83115904D01*
X113024584Y-83203911D01*
X113019056Y-83233125D01*
X112964937Y-83435102D01*
X112949500Y-83611544D01*
X112949500Y-84028456D01*
X112964937Y-84204898D01*
X112967185Y-84213289D01*
X112967186Y-84213293D01*
X112986042Y-84283663D01*
X113026097Y-84433153D01*
X113071425Y-84530357D01*
X113085433Y-84560398D01*
X113104063Y-84646980D01*
X113083281Y-84733070D01*
X113027204Y-84801619D01*
X112946938Y-84839047D01*
X112905078Y-84843500D01*
X110614922Y-84843500D01*
X110528579Y-84823793D01*
X110459338Y-84768574D01*
X110420911Y-84688782D01*
X110420911Y-84600218D01*
X110434567Y-84560398D01*
X110448576Y-84530357D01*
X110493903Y-84433153D01*
X110533958Y-84283663D01*
X110552814Y-84213293D01*
X110552815Y-84213289D01*
X110555063Y-84204898D01*
X110570500Y-84028456D01*
X110570500Y-83611544D01*
X110555063Y-83435102D01*
X110552815Y-83426711D01*
X110552814Y-83426707D01*
X110496152Y-83215241D01*
X110493903Y-83206847D01*
X110420667Y-83049793D01*
X110397708Y-83000557D01*
X110397706Y-83000554D01*
X110394035Y-82992681D01*
X110389051Y-82985563D01*
X110389048Y-82985558D01*
X110263481Y-82806229D01*
X110263478Y-82806225D01*
X110258495Y-82799109D01*
X110091401Y-82632015D01*
X109930362Y-82519254D01*
X109904951Y-82501461D01*
X109904950Y-82501460D01*
X109897830Y-82496475D01*
X109683663Y-82396607D01*
X109675275Y-82394360D01*
X109675271Y-82394358D01*
X109463803Y-82337696D01*
X109463799Y-82337695D01*
X109455408Y-82335447D01*
X109220000Y-82314851D01*
X108984592Y-82335447D01*
X108976201Y-82337695D01*
X108976197Y-82337696D01*
X108860727Y-82368636D01*
X108756337Y-82396607D01*
X108674407Y-82434812D01*
X108550047Y-82492802D01*
X108550044Y-82492804D01*
X108542171Y-82496475D01*
X108535053Y-82501459D01*
X108535048Y-82501462D01*
X108355719Y-82627029D01*
X108355718Y-82627030D01*
X108348599Y-82632015D01*
X108181505Y-82799109D01*
X108176522Y-82806225D01*
X108176519Y-82806229D01*
X108102851Y-82911439D01*
X108037184Y-82970864D01*
X107952237Y-82995912D01*
X107864834Y-82981621D01*
X107792287Y-82930824D01*
X107776829Y-82911439D01*
X107703161Y-82806229D01*
X107703158Y-82806225D01*
X107698175Y-82799109D01*
X107531081Y-82632015D01*
X107370042Y-82519254D01*
X107344631Y-82501461D01*
X107344630Y-82501460D01*
X107337510Y-82496475D01*
X107123343Y-82396607D01*
X107114955Y-82394360D01*
X107114951Y-82394358D01*
X106903483Y-82337696D01*
X106903479Y-82337695D01*
X106895088Y-82335447D01*
X106659680Y-82314851D01*
X106424272Y-82335447D01*
X106415881Y-82337695D01*
X106415877Y-82337696D01*
X106300407Y-82368636D01*
X106196017Y-82396607D01*
X106114087Y-82434812D01*
X105989727Y-82492802D01*
X105989724Y-82492804D01*
X105981851Y-82496475D01*
X105974733Y-82501459D01*
X105974728Y-82501462D01*
X105795399Y-82627029D01*
X105795398Y-82627030D01*
X105788279Y-82632015D01*
X105621185Y-82799109D01*
X105562849Y-82882422D01*
X105497184Y-82941844D01*
X105412237Y-82966891D01*
X105324834Y-82952601D01*
X105252287Y-82901804D01*
X105236837Y-82882430D01*
X105178495Y-82799109D01*
X105011401Y-82632015D01*
X104893940Y-82549768D01*
X104850358Y-82519251D01*
X104790934Y-82453583D01*
X104765886Y-82368636D01*
X104765500Y-82356240D01*
X104765500Y-80986518D01*
X104785207Y-80900175D01*
X104823786Y-80845804D01*
X104827804Y-80841786D01*
X104902792Y-80794667D01*
X104968518Y-80783500D01*
X104996646Y-80783500D01*
X105083897Y-80764954D01*
X105171601Y-80746313D01*
X105171606Y-80746312D01*
X105181803Y-80744144D01*
X105354730Y-80667151D01*
X105507871Y-80555888D01*
X105634533Y-80415216D01*
X105639748Y-80406184D01*
X105639752Y-80406178D01*
X105712066Y-80280925D01*
X105772304Y-80216003D01*
X105854745Y-80183647D01*
X105943061Y-80190265D01*
G37*
G04 #@! TD.AperFunction*
G04 #@! TA.AperFunction,Conductor*
G36*
X99483048Y-75067207D02*
G01*
X99552289Y-75122426D01*
X99590716Y-75202218D01*
X99590716Y-75290782D01*
X99552289Y-75370574D01*
X99537419Y-75387214D01*
X98643419Y-76281214D01*
X98568431Y-76328333D01*
X98502705Y-76339500D01*
X98243976Y-76339500D01*
X98214048Y-76337237D01*
X98214028Y-76337234D01*
X98198370Y-76334852D01*
X98186849Y-76335789D01*
X98186846Y-76335789D01*
X98149276Y-76338845D01*
X98133144Y-76339500D01*
X96056803Y-76339500D01*
X95970460Y-76319793D01*
X95901219Y-76264574D01*
X95877512Y-76222777D01*
X95877311Y-76222887D01*
X95870502Y-76210451D01*
X95865526Y-76197176D01*
X95779546Y-76082454D01*
X95664824Y-75996474D01*
X95584779Y-75966467D01*
X95542262Y-75950528D01*
X95542260Y-75950527D01*
X95530580Y-75946149D01*
X95469377Y-75939500D01*
X94972139Y-75939500D01*
X94474624Y-75939501D01*
X94447235Y-75942476D01*
X94425826Y-75944801D01*
X94425822Y-75944802D01*
X94413420Y-75946149D01*
X94279176Y-75996474D01*
X94164454Y-76082454D01*
X94078474Y-76197176D01*
X94057414Y-76253354D01*
X94033304Y-76317670D01*
X94028149Y-76331420D01*
X94021500Y-76392623D01*
X94021501Y-77787376D01*
X94028149Y-77848580D01*
X94078474Y-77982824D01*
X94164454Y-78097546D01*
X94166958Y-78099423D01*
X94210333Y-78168452D01*
X94221500Y-78234178D01*
X94221500Y-81164705D01*
X94201793Y-81251048D01*
X94163214Y-81305419D01*
X93207419Y-82261214D01*
X93132431Y-82308333D01*
X93066705Y-82319500D01*
X92152184Y-82319500D01*
X92147773Y-82319894D01*
X92147766Y-82319894D01*
X92041347Y-82329392D01*
X92031913Y-82330234D01*
X91836530Y-82386259D01*
X91827594Y-82390930D01*
X91827593Y-82390931D01*
X91746467Y-82433343D01*
X91656404Y-82480427D01*
X91648592Y-82486799D01*
X91648591Y-82486799D01*
X91641232Y-82492801D01*
X91498891Y-82608891D01*
X91370427Y-82766404D01*
X91359319Y-82787652D01*
X91292056Y-82916314D01*
X91276259Y-82946530D01*
X91220234Y-83141913D01*
X91219392Y-83151347D01*
X91212093Y-83233135D01*
X91209500Y-83262184D01*
X91209500Y-84377816D01*
X91209894Y-84382227D01*
X91209894Y-84382234D01*
X91214439Y-84433153D01*
X91220234Y-84498087D01*
X91240998Y-84570500D01*
X91246489Y-84589648D01*
X91251345Y-84678078D01*
X91217351Y-84759857D01*
X91151241Y-84818789D01*
X91066109Y-84843201D01*
X91055198Y-84843500D01*
X90214268Y-84843500D01*
X90127925Y-84823793D01*
X90058684Y-84768574D01*
X90020257Y-84688782D01*
X90020257Y-84600218D01*
X90051254Y-84530364D01*
X90074035Y-84497829D01*
X90100524Y-84441025D01*
X90135698Y-84365593D01*
X90173903Y-84283663D01*
X90197327Y-84196244D01*
X90232814Y-84063803D01*
X90232815Y-84063799D01*
X90235063Y-84055408D01*
X90255659Y-83820000D01*
X90235063Y-83584592D01*
X90173903Y-83356337D01*
X90116453Y-83233135D01*
X90077708Y-83150047D01*
X90077706Y-83150044D01*
X90074035Y-83142171D01*
X90069051Y-83135053D01*
X90069048Y-83135048D01*
X89943481Y-82955719D01*
X89943478Y-82955715D01*
X89938495Y-82948599D01*
X89771401Y-82781505D01*
X89577830Y-82645965D01*
X89363663Y-82546097D01*
X89355275Y-82543850D01*
X89355271Y-82543848D01*
X89143803Y-82487186D01*
X89143799Y-82487185D01*
X89135408Y-82484937D01*
X88900000Y-82464341D01*
X88664592Y-82484937D01*
X88656201Y-82487185D01*
X88656197Y-82487186D01*
X88498419Y-82529462D01*
X88436337Y-82546097D01*
X88428465Y-82549768D01*
X88230047Y-82642292D01*
X88230044Y-82642294D01*
X88222171Y-82645965D01*
X88173639Y-82679947D01*
X88091610Y-82713327D01*
X88003219Y-82707810D01*
X87925975Y-82664488D01*
X87875177Y-82591941D01*
X87860500Y-82516935D01*
X87860500Y-81777136D01*
X87880207Y-81690793D01*
X87935426Y-81621552D01*
X88015218Y-81583125D01*
X88103782Y-81583125D01*
X88122150Y-81588255D01*
X88261561Y-81634496D01*
X88282682Y-81639024D01*
X88370115Y-81647983D01*
X88380245Y-81648500D01*
X88577577Y-81648500D01*
X88596547Y-81644170D01*
X88600000Y-81637000D01*
X88600000Y-81626076D01*
X89200000Y-81626076D01*
X89204330Y-81645046D01*
X89211500Y-81648499D01*
X89419699Y-81648499D01*
X89429938Y-81647970D01*
X89518589Y-81638772D01*
X89539743Y-81634204D01*
X89684353Y-81585958D01*
X89705145Y-81576218D01*
X89834200Y-81496356D01*
X89852200Y-81482089D01*
X89959420Y-81374682D01*
X89973655Y-81356658D01*
X90053294Y-81227460D01*
X90062997Y-81206652D01*
X90110996Y-81061940D01*
X90115524Y-81040818D01*
X90124483Y-80953385D01*
X90125000Y-80943255D01*
X90125000Y-80883423D01*
X90120670Y-80864453D01*
X90113500Y-80861000D01*
X89222423Y-80861000D01*
X89203453Y-80865330D01*
X89200000Y-80872500D01*
X89200000Y-81626076D01*
X88600000Y-81626076D01*
X88600000Y-80460000D01*
X88619707Y-80373657D01*
X88674926Y-80304416D01*
X88754718Y-80265989D01*
X88799000Y-80261000D01*
X90102576Y-80261000D01*
X90121546Y-80256670D01*
X90124999Y-80249500D01*
X90124999Y-80178801D01*
X90124470Y-80168562D01*
X90115272Y-80079911D01*
X90110704Y-80058757D01*
X90062458Y-79914147D01*
X90052718Y-79893355D01*
X89972856Y-79764300D01*
X89958589Y-79746300D01*
X89876888Y-79664741D01*
X89829704Y-79589794D01*
X89819711Y-79501796D01*
X89848888Y-79418177D01*
X89876640Y-79383315D01*
X89963876Y-79295926D01*
X90038824Y-79248742D01*
X90120572Y-79241095D01*
X90120645Y-79239006D01*
X90132202Y-79239410D01*
X90143630Y-79241148D01*
X90155151Y-79240211D01*
X90155154Y-79240211D01*
X90192724Y-79237155D01*
X90206162Y-79236609D01*
X90208038Y-79236500D01*
X90213822Y-79236500D01*
X90219569Y-79235830D01*
X90240469Y-79233394D01*
X90247378Y-79232710D01*
X90306538Y-79227898D01*
X90318059Y-79226961D01*
X90328184Y-79223681D01*
X90333247Y-79222577D01*
X90343828Y-79221343D01*
X90410501Y-79197142D01*
X90417056Y-79194891D01*
X90484546Y-79173027D01*
X90493642Y-79167507D01*
X90498325Y-79165263D01*
X90508331Y-79161631D01*
X90567661Y-79122733D01*
X90573468Y-79119068D01*
X90634160Y-79082239D01*
X90642452Y-79074915D01*
X90644453Y-79072914D01*
X90646741Y-79070885D01*
X90654685Y-79065677D01*
X90706700Y-79010769D01*
X90710455Y-79006912D01*
X91418581Y-78298786D01*
X91493569Y-78251667D01*
X91559295Y-78240500D01*
X92408438Y-78240499D01*
X92469376Y-78240499D01*
X92496765Y-78237524D01*
X92518174Y-78235199D01*
X92518178Y-78235198D01*
X92530580Y-78233851D01*
X92664824Y-78183526D01*
X92743004Y-78124933D01*
X92768202Y-78106048D01*
X92779546Y-78097546D01*
X92865526Y-77982824D01*
X92915851Y-77848580D01*
X92922500Y-77787377D01*
X92922499Y-76392624D01*
X92919524Y-76365235D01*
X92917199Y-76343826D01*
X92917198Y-76343822D01*
X92915851Y-76331420D01*
X92865526Y-76197176D01*
X92779546Y-76082454D01*
X92664824Y-75996474D01*
X92584779Y-75966467D01*
X92542262Y-75950528D01*
X92542260Y-75950527D01*
X92530580Y-75946149D01*
X92469377Y-75939500D01*
X91972139Y-75939500D01*
X91474624Y-75939501D01*
X91447235Y-75942476D01*
X91425826Y-75944801D01*
X91425822Y-75944802D01*
X91413420Y-75946149D01*
X91279176Y-75996474D01*
X91164454Y-76082454D01*
X91078474Y-76197176D01*
X91057414Y-76253354D01*
X91033304Y-76317670D01*
X91028149Y-76331420D01*
X91021500Y-76392623D01*
X91021500Y-76490705D01*
X91001793Y-76577048D01*
X90963214Y-76631419D01*
X90075677Y-77518956D01*
X90000689Y-77566075D01*
X89912682Y-77575991D01*
X89830545Y-77547646D01*
X89817008Y-77539302D01*
X89753847Y-77477221D01*
X89723877Y-77393882D01*
X89733034Y-77305794D01*
X89780712Y-77229184D01*
X89938495Y-77071401D01*
X89943478Y-77064285D01*
X89943481Y-77064281D01*
X90069048Y-76884952D01*
X90069051Y-76884947D01*
X90074035Y-76877829D01*
X90092288Y-76838687D01*
X90170232Y-76671535D01*
X90173903Y-76663663D01*
X90206204Y-76543112D01*
X90232814Y-76443803D01*
X90232815Y-76443799D01*
X90235063Y-76435408D01*
X90255659Y-76200000D01*
X90246283Y-76092837D01*
X90258390Y-76005105D01*
X90303812Y-75934778D01*
X91132804Y-75105786D01*
X91207792Y-75058667D01*
X91273518Y-75047500D01*
X99396705Y-75047500D01*
X99483048Y-75067207D01*
G37*
G04 #@! TD.AperFunction*
G04 #@! TA.AperFunction,Conductor*
G36*
X116981343Y-67576207D02*
G01*
X117050584Y-67631426D01*
X117089011Y-67711218D01*
X117094000Y-67755500D01*
X117094000Y-84644500D01*
X117074293Y-84730843D01*
X117019074Y-84800084D01*
X116939282Y-84838511D01*
X116895000Y-84843500D01*
X115694922Y-84843500D01*
X115608579Y-84823793D01*
X115539338Y-84768574D01*
X115500911Y-84688782D01*
X115500911Y-84600218D01*
X115514567Y-84560398D01*
X115528576Y-84530357D01*
X115573903Y-84433153D01*
X115613958Y-84283663D01*
X115632814Y-84213293D01*
X115632815Y-84213289D01*
X115635063Y-84204898D01*
X115650500Y-84028456D01*
X115650500Y-83611544D01*
X115635063Y-83435102D01*
X115632815Y-83426711D01*
X115632814Y-83426707D01*
X115576152Y-83215241D01*
X115573903Y-83206847D01*
X115500667Y-83049793D01*
X115477708Y-83000557D01*
X115477706Y-83000554D01*
X115474035Y-82992681D01*
X115469051Y-82985563D01*
X115469048Y-82985558D01*
X115343481Y-82806229D01*
X115343478Y-82806225D01*
X115338495Y-82799109D01*
X115171401Y-82632015D01*
X115010362Y-82519254D01*
X114984951Y-82501461D01*
X114984950Y-82501460D01*
X114977830Y-82496475D01*
X114763663Y-82396607D01*
X114755275Y-82394360D01*
X114755271Y-82394358D01*
X114543805Y-82337697D01*
X114543806Y-82337697D01*
X114535408Y-82335447D01*
X114442528Y-82327321D01*
X114358232Y-82300163D01*
X114319159Y-82269792D01*
X113674286Y-81624919D01*
X113627167Y-81549931D01*
X113617251Y-81461924D01*
X113646502Y-81378331D01*
X113709126Y-81315707D01*
X113792719Y-81286456D01*
X113866503Y-81291986D01*
X114064592Y-81345063D01*
X114300000Y-81365659D01*
X114535408Y-81345063D01*
X114543799Y-81342815D01*
X114543803Y-81342814D01*
X114755271Y-81286152D01*
X114755275Y-81286150D01*
X114763663Y-81283903D01*
X114977830Y-81184035D01*
X115171401Y-81048495D01*
X115338495Y-80881401D01*
X115343478Y-80874285D01*
X115343481Y-80874281D01*
X115469048Y-80694952D01*
X115469051Y-80694947D01*
X115474035Y-80687829D01*
X115483678Y-80667151D01*
X115564170Y-80494536D01*
X115573903Y-80473663D01*
X115593844Y-80399242D01*
X115632814Y-80253803D01*
X115632815Y-80253799D01*
X115635063Y-80245408D01*
X115655659Y-80010000D01*
X115635063Y-79774592D01*
X115632306Y-79764300D01*
X115578478Y-79563410D01*
X115573903Y-79546337D01*
X115474035Y-79332171D01*
X115469051Y-79325053D01*
X115469048Y-79325048D01*
X115343481Y-79145719D01*
X115343478Y-79145715D01*
X115338495Y-79138599D01*
X115171401Y-78971505D01*
X115163425Y-78965920D01*
X115061180Y-78894327D01*
X115001755Y-78828660D01*
X114976707Y-78743713D01*
X114990998Y-78656310D01*
X115011956Y-78622956D01*
X115014676Y-78613729D01*
X115014624Y-78613408D01*
X115005703Y-78599967D01*
X114315855Y-77910119D01*
X114299380Y-77899767D01*
X114291869Y-77902395D01*
X113596071Y-78598193D01*
X113585719Y-78614668D01*
X113595001Y-78641194D01*
X113612819Y-78671187D01*
X113620538Y-78759413D01*
X113589212Y-78842251D01*
X113537547Y-78895219D01*
X113435719Y-78966519D01*
X113435715Y-78966522D01*
X113428599Y-78971505D01*
X113261505Y-79138599D01*
X113256522Y-79145715D01*
X113256519Y-79145719D01*
X113236267Y-79174642D01*
X113170599Y-79234066D01*
X113085652Y-79259114D01*
X113073256Y-79259500D01*
X112915295Y-79259500D01*
X112828952Y-79239793D01*
X112774581Y-79201214D01*
X111923503Y-78350136D01*
X111874957Y-78270916D01*
X111828402Y-78127634D01*
X111828400Y-78127630D01*
X111825179Y-78117716D01*
X111730533Y-77953784D01*
X111603871Y-77813112D01*
X111450730Y-77701849D01*
X111371886Y-77666745D01*
X111287331Y-77629098D01*
X111287329Y-77629097D01*
X111277803Y-77624856D01*
X111267606Y-77622688D01*
X111267601Y-77622687D01*
X111162444Y-77600336D01*
X111092646Y-77585500D01*
X110903354Y-77585500D01*
X110833556Y-77600336D01*
X110728399Y-77622687D01*
X110728394Y-77622688D01*
X110718197Y-77624856D01*
X110708671Y-77629097D01*
X110708669Y-77629098D01*
X110624114Y-77666745D01*
X110545270Y-77701849D01*
X110392129Y-77813112D01*
X110265467Y-77953784D01*
X110170821Y-78117716D01*
X110168227Y-78125698D01*
X110115678Y-78195795D01*
X110037070Y-78236590D01*
X109992394Y-78242918D01*
X109978975Y-78243281D01*
X109973592Y-78243427D01*
X109968215Y-78243500D01*
X107581295Y-78243500D01*
X107494952Y-78223793D01*
X107440581Y-78185214D01*
X107007582Y-77752215D01*
X106988019Y-77729451D01*
X106985471Y-77725988D01*
X106985466Y-77725982D01*
X106978617Y-77716676D01*
X106955068Y-77696669D01*
X106941072Y-77684779D01*
X106931215Y-77675691D01*
X106929785Y-77674418D01*
X106925697Y-77670330D01*
X106904660Y-77653686D01*
X106899289Y-77649282D01*
X106854056Y-77610853D01*
X106854053Y-77610851D01*
X106845245Y-77603368D01*
X106835768Y-77598529D01*
X106831409Y-77595732D01*
X106823051Y-77589119D01*
X106812572Y-77584221D01*
X106812568Y-77584219D01*
X106758785Y-77559082D01*
X106752547Y-77556033D01*
X106699683Y-77529040D01*
X106699684Y-77529040D01*
X106689384Y-77523781D01*
X106679037Y-77521249D01*
X106674152Y-77519529D01*
X106664507Y-77515021D01*
X106595059Y-77500576D01*
X106588288Y-77499043D01*
X106528009Y-77484293D01*
X106528008Y-77484293D01*
X106519394Y-77482185D01*
X106508352Y-77481500D01*
X106505511Y-77481500D01*
X106502473Y-77481317D01*
X106493169Y-77479382D01*
X106417598Y-77481427D01*
X106412215Y-77481500D01*
X106000567Y-77481500D01*
X105988093Y-77478653D01*
X112945600Y-77478653D01*
X112964674Y-77696669D01*
X112967679Y-77713712D01*
X113024319Y-77925094D01*
X113030243Y-77941369D01*
X113122726Y-78139698D01*
X113131385Y-78154697D01*
X113143094Y-78171418D01*
X113157223Y-78184204D01*
X113170034Y-78175702D01*
X113859881Y-77485855D01*
X113869454Y-77470620D01*
X114729767Y-77470620D01*
X114732395Y-77478131D01*
X115428192Y-78173928D01*
X115444330Y-78184068D01*
X115455468Y-78173472D01*
X115468615Y-78154697D01*
X115477274Y-78139698D01*
X115569757Y-77941369D01*
X115575681Y-77925094D01*
X115632321Y-77713712D01*
X115635326Y-77696669D01*
X115654400Y-77478653D01*
X115654400Y-77461347D01*
X115635326Y-77243331D01*
X115632321Y-77226288D01*
X115575681Y-77014906D01*
X115569757Y-76998631D01*
X115477274Y-76800302D01*
X115468615Y-76785303D01*
X115456906Y-76768582D01*
X115442777Y-76755796D01*
X115429966Y-76764298D01*
X114740119Y-77454145D01*
X114729767Y-77470620D01*
X113869454Y-77470620D01*
X113870233Y-77469380D01*
X113867605Y-77461869D01*
X113171808Y-76766072D01*
X113155670Y-76755932D01*
X113144532Y-76766528D01*
X113131385Y-76785303D01*
X113122726Y-76800302D01*
X113030243Y-76998631D01*
X113024319Y-77014906D01*
X112967679Y-77226288D01*
X112964674Y-77243331D01*
X112945600Y-77461347D01*
X112945600Y-77478653D01*
X105988093Y-77478653D01*
X105914224Y-77461793D01*
X105844983Y-77406574D01*
X105806556Y-77326782D01*
X105802657Y-77261700D01*
X105806370Y-77226372D01*
X105806370Y-77226371D01*
X105807460Y-77216000D01*
X105792908Y-77077546D01*
X105788764Y-77038113D01*
X105788764Y-77038111D01*
X105787674Y-77027744D01*
X105729179Y-76847716D01*
X105634533Y-76683784D01*
X105507871Y-76543112D01*
X105354730Y-76431849D01*
X105263046Y-76391028D01*
X105191331Y-76359098D01*
X105191329Y-76359097D01*
X105181803Y-76354856D01*
X105171606Y-76352688D01*
X105171601Y-76352687D01*
X105071544Y-76331420D01*
X104996646Y-76315500D01*
X104968518Y-76315500D01*
X104882175Y-76295793D01*
X104827804Y-76257214D01*
X103732096Y-75161505D01*
X102603349Y-74032758D01*
X102598244Y-74027148D01*
X102593786Y-74020123D01*
X102545630Y-73974901D01*
X102541142Y-73970551D01*
X102522471Y-73951880D01*
X102517533Y-73948050D01*
X102512836Y-73943909D01*
X102512951Y-73943778D01*
X102507835Y-73939409D01*
X102487708Y-73920508D01*
X102478582Y-73911938D01*
X102467617Y-73905910D01*
X102467614Y-73905908D01*
X102466205Y-73905134D01*
X102440099Y-73887986D01*
X102438827Y-73886999D01*
X102438825Y-73886998D01*
X102428936Y-73879327D01*
X102392094Y-73863384D01*
X102375262Y-73855138D01*
X102351061Y-73841833D01*
X102351059Y-73841832D01*
X102340092Y-73835803D01*
X102327966Y-73832689D01*
X102327962Y-73832688D01*
X102326405Y-73832288D01*
X102296875Y-73822178D01*
X102295390Y-73821535D01*
X102295383Y-73821533D01*
X102283896Y-73816562D01*
X102271531Y-73814604D01*
X102271529Y-73814603D01*
X102244252Y-73810283D01*
X102225894Y-73806481D01*
X102199149Y-73799614D01*
X102199145Y-73799614D01*
X102187019Y-73796500D01*
X102172888Y-73796500D01*
X102141759Y-73794050D01*
X102140173Y-73793799D01*
X102127804Y-73791840D01*
X102115341Y-73793018D01*
X102115339Y-73793018D01*
X102087848Y-73795617D01*
X102069120Y-73796500D01*
X91007032Y-73796500D01*
X90999456Y-73796143D01*
X90991333Y-73794327D01*
X90978819Y-73794720D01*
X90978817Y-73794720D01*
X90925291Y-73796402D01*
X90919042Y-73796500D01*
X90892650Y-73796500D01*
X90892650Y-73794586D01*
X90815450Y-73781999D01*
X90742881Y-73731233D01*
X90699524Y-73654008D01*
X90693969Y-73565619D01*
X90727313Y-73483573D01*
X90749658Y-73456932D01*
X91132805Y-73073786D01*
X91207794Y-73026667D01*
X91273519Y-73015500D01*
X107874969Y-73015500D01*
X107882544Y-73015857D01*
X107890667Y-73017673D01*
X107903180Y-73017280D01*
X107903183Y-73017280D01*
X107956696Y-73015598D01*
X107962947Y-73015500D01*
X107989350Y-73015500D01*
X107992954Y-73015045D01*
X108079631Y-73029168D01*
X108152206Y-73079927D01*
X108195570Y-73157147D01*
X108201135Y-73245536D01*
X108174129Y-73317952D01*
X108152613Y-73352859D01*
X108142906Y-73373675D01*
X108095825Y-73515618D01*
X108091299Y-73536728D01*
X108085667Y-73591696D01*
X108088041Y-73611007D01*
X108090441Y-73612482D01*
X108099660Y-73614000D01*
X108747077Y-73614000D01*
X108766047Y-73609670D01*
X108769500Y-73602500D01*
X108769500Y-72961527D01*
X108765170Y-72942557D01*
X108762691Y-72941363D01*
X108751911Y-72940710D01*
X108666918Y-72915818D01*
X108601142Y-72856514D01*
X108567611Y-72774544D01*
X108572966Y-72686142D01*
X108616146Y-72608819D01*
X108623230Y-72601360D01*
X111155835Y-70068755D01*
X111230823Y-70021636D01*
X111318830Y-70011720D01*
X111348053Y-70017250D01*
X111516197Y-70062304D01*
X111516201Y-70062305D01*
X111524592Y-70064553D01*
X111760000Y-70085149D01*
X111995408Y-70064553D01*
X112003799Y-70062305D01*
X112003803Y-70062304D01*
X112199438Y-70009884D01*
X112223663Y-70003393D01*
X112370797Y-69934783D01*
X112429953Y-69907198D01*
X112429956Y-69907196D01*
X112437829Y-69903525D01*
X112444947Y-69898541D01*
X112444952Y-69898538D01*
X112624281Y-69772971D01*
X112624285Y-69772968D01*
X112631401Y-69767985D01*
X112798495Y-69600891D01*
X112803478Y-69593775D01*
X112803481Y-69593771D01*
X112866989Y-69503071D01*
X112932656Y-69443646D01*
X113017603Y-69418599D01*
X113105006Y-69432889D01*
X113177553Y-69483686D01*
X113193012Y-69503072D01*
X113216278Y-69536300D01*
X113249659Y-69618332D01*
X113244141Y-69706723D01*
X113200818Y-69783967D01*
X113193980Y-69791154D01*
X110414715Y-72570418D01*
X110391951Y-72589981D01*
X110388488Y-72592529D01*
X110388482Y-72592534D01*
X110379176Y-72599383D01*
X110371693Y-72608191D01*
X110371692Y-72608192D01*
X110347279Y-72636928D01*
X110338191Y-72646785D01*
X110336918Y-72648215D01*
X110332830Y-72652303D01*
X110329247Y-72656832D01*
X110329245Y-72656834D01*
X110316187Y-72673339D01*
X110311782Y-72678711D01*
X110273353Y-72723944D01*
X110273351Y-72723947D01*
X110265868Y-72732755D01*
X110261029Y-72742232D01*
X110258232Y-72746591D01*
X110251619Y-72754949D01*
X110246721Y-72765428D01*
X110246719Y-72765432D01*
X110221582Y-72819215D01*
X110218533Y-72825453D01*
X110204129Y-72853663D01*
X110186281Y-72888616D01*
X110183749Y-72898963D01*
X110182029Y-72903848D01*
X110177521Y-72913493D01*
X110170726Y-72946163D01*
X110163076Y-72982939D01*
X110161548Y-72989691D01*
X110150056Y-73036656D01*
X110110394Y-73115837D01*
X110040301Y-73169970D01*
X109953662Y-73188331D01*
X109867636Y-73167282D01*
X109816169Y-73130193D01*
X109787881Y-73101955D01*
X109769854Y-73087719D01*
X109643150Y-73009617D01*
X109622325Y-72999906D01*
X109480389Y-72952828D01*
X109459264Y-72948299D01*
X109391803Y-72941387D01*
X109372495Y-72943760D01*
X109371018Y-72946163D01*
X109369500Y-72955381D01*
X109369500Y-74015000D01*
X109349793Y-74101343D01*
X109294574Y-74170584D01*
X109214782Y-74209011D01*
X109170500Y-74214000D01*
X108105824Y-74214000D01*
X108086854Y-74218330D01*
X108085660Y-74220809D01*
X108085087Y-74230255D01*
X108091547Y-74292514D01*
X108096117Y-74313673D01*
X108143436Y-74455508D01*
X108153180Y-74476308D01*
X108231509Y-74602886D01*
X108245774Y-74620885D01*
X108286789Y-74661828D01*
X108333973Y-74736775D01*
X108343966Y-74824773D01*
X108314789Y-74908392D01*
X108287036Y-74943256D01*
X108244560Y-74985806D01*
X108244557Y-74985810D01*
X108236392Y-74993989D01*
X108230327Y-75003829D01*
X108230325Y-75003831D01*
X108167480Y-75105786D01*
X108146092Y-75140484D01*
X108142454Y-75151451D01*
X108142453Y-75151454D01*
X108096240Y-75290782D01*
X108091914Y-75303824D01*
X108090807Y-75314632D01*
X108085122Y-75370119D01*
X108081500Y-75405465D01*
X108081501Y-75978534D01*
X108082030Y-75983630D01*
X108082030Y-75983636D01*
X108089950Y-76059967D01*
X108092178Y-76081445D01*
X108095625Y-76091777D01*
X108111682Y-76139904D01*
X108146641Y-76244690D01*
X108152725Y-76254521D01*
X108152726Y-76254524D01*
X108213471Y-76352687D01*
X108237197Y-76391028D01*
X108358989Y-76512608D01*
X108368829Y-76518673D01*
X108368831Y-76518675D01*
X108495646Y-76596844D01*
X108505484Y-76602908D01*
X108516451Y-76606546D01*
X108516454Y-76606547D01*
X108591441Y-76631419D01*
X108668824Y-76657086D01*
X108720183Y-76662348D01*
X108765415Y-76666983D01*
X108765423Y-76666983D01*
X108770465Y-76667500D01*
X109067948Y-76667500D01*
X109368534Y-76667499D01*
X109373630Y-76666970D01*
X109373636Y-76666970D01*
X109460615Y-76657946D01*
X109460618Y-76657945D01*
X109471445Y-76656822D01*
X109634690Y-76602359D01*
X109644521Y-76596275D01*
X109644524Y-76596274D01*
X109771200Y-76517885D01*
X109771202Y-76517884D01*
X109781028Y-76511803D01*
X109789191Y-76503626D01*
X109789196Y-76503622D01*
X109841163Y-76451564D01*
X109916111Y-76404380D01*
X110004108Y-76394387D01*
X110087727Y-76423565D01*
X110122591Y-76451318D01*
X110175802Y-76504436D01*
X110175806Y-76504439D01*
X110183989Y-76512608D01*
X110193829Y-76518673D01*
X110193831Y-76518675D01*
X110320646Y-76596844D01*
X110330484Y-76602908D01*
X110341451Y-76606546D01*
X110341454Y-76606547D01*
X110416441Y-76631419D01*
X110493824Y-76657086D01*
X110545183Y-76662348D01*
X110590415Y-76666983D01*
X110590423Y-76666983D01*
X110595465Y-76667500D01*
X110892948Y-76667500D01*
X111193534Y-76667499D01*
X111198630Y-76666970D01*
X111198636Y-76666970D01*
X111285615Y-76657946D01*
X111285618Y-76657945D01*
X111296445Y-76656822D01*
X111459690Y-76602359D01*
X111469521Y-76596275D01*
X111469524Y-76596274D01*
X111596200Y-76517885D01*
X111596202Y-76517884D01*
X111606028Y-76511803D01*
X111727608Y-76390011D01*
X111760537Y-76336591D01*
X111766709Y-76326578D01*
X113585375Y-76326578D01*
X113585378Y-76326594D01*
X113594298Y-76340034D01*
X114284145Y-77029881D01*
X114300620Y-77040233D01*
X114308131Y-77037605D01*
X115003929Y-76341807D01*
X115014281Y-76325332D01*
X115009464Y-76311564D01*
X114978887Y-76260097D01*
X114971168Y-76171871D01*
X115002493Y-76089032D01*
X115014626Y-76073423D01*
X115014624Y-76073408D01*
X115005703Y-76059967D01*
X114315855Y-75370119D01*
X114299380Y-75359767D01*
X114291869Y-75362395D01*
X113596071Y-76058193D01*
X113585719Y-76074668D01*
X113590536Y-76088435D01*
X113621114Y-76139904D01*
X113628833Y-76228130D01*
X113597508Y-76310969D01*
X113585375Y-76326578D01*
X111766709Y-76326578D01*
X111811844Y-76253354D01*
X111811845Y-76253353D01*
X111817908Y-76243516D01*
X111823012Y-76228130D01*
X111868665Y-76090490D01*
X111872086Y-76080176D01*
X111879791Y-76004976D01*
X111881983Y-75983585D01*
X111881983Y-75983577D01*
X111882500Y-75978535D01*
X111882500Y-75951295D01*
X111902207Y-75864952D01*
X111940786Y-75810581D01*
X112641534Y-75109833D01*
X112716522Y-75062714D01*
X112804529Y-75052798D01*
X112888122Y-75082049D01*
X112950746Y-75144673D01*
X112974467Y-75199042D01*
X113024319Y-75385094D01*
X113030243Y-75401369D01*
X113122726Y-75599698D01*
X113131385Y-75614697D01*
X113143094Y-75631418D01*
X113157223Y-75644204D01*
X113170034Y-75635702D01*
X113875116Y-74930620D01*
X114729767Y-74930620D01*
X114732395Y-74938131D01*
X115428192Y-75633928D01*
X115444330Y-75644068D01*
X115455468Y-75633472D01*
X115468615Y-75614697D01*
X115477274Y-75599698D01*
X115569757Y-75401369D01*
X115575681Y-75385094D01*
X115632321Y-75173712D01*
X115635326Y-75156669D01*
X115654400Y-74938653D01*
X115654400Y-74921347D01*
X115635326Y-74703331D01*
X115632321Y-74686288D01*
X115575681Y-74474906D01*
X115569757Y-74458631D01*
X115477274Y-74260302D01*
X115468615Y-74245303D01*
X115456906Y-74228582D01*
X115442777Y-74215796D01*
X115429966Y-74224298D01*
X114740119Y-74914145D01*
X114729767Y-74930620D01*
X113875116Y-74930620D01*
X115003929Y-73801807D01*
X115014281Y-73785332D01*
X115004999Y-73758805D01*
X114987182Y-73728814D01*
X114979463Y-73640588D01*
X115010790Y-73557750D01*
X115062452Y-73504782D01*
X115064252Y-73503522D01*
X115171401Y-73428495D01*
X115338495Y-73261401D01*
X115343478Y-73254285D01*
X115343481Y-73254281D01*
X115469048Y-73074952D01*
X115469051Y-73074947D01*
X115474035Y-73067829D01*
X115493230Y-73026667D01*
X115557812Y-72888170D01*
X115573903Y-72853663D01*
X115620781Y-72678711D01*
X115632814Y-72633803D01*
X115632815Y-72633799D01*
X115635063Y-72625408D01*
X115655659Y-72390000D01*
X115635063Y-72154592D01*
X115630795Y-72138661D01*
X115576152Y-71934731D01*
X115573903Y-71926337D01*
X115474035Y-71712171D01*
X115469051Y-71705053D01*
X115469048Y-71705048D01*
X115343481Y-71525719D01*
X115343478Y-71525715D01*
X115338495Y-71518599D01*
X115171401Y-71351505D01*
X114977830Y-71215965D01*
X114763663Y-71116097D01*
X114755275Y-71113850D01*
X114755271Y-71113848D01*
X114543803Y-71057186D01*
X114543799Y-71057185D01*
X114535408Y-71054937D01*
X114516880Y-71053316D01*
X114432583Y-71026159D01*
X114368417Y-70965117D01*
X114337090Y-70882279D01*
X114344808Y-70794052D01*
X114393508Y-70714359D01*
X114779785Y-70328082D01*
X114802549Y-70308519D01*
X114806012Y-70305971D01*
X114806018Y-70305966D01*
X114815324Y-70299117D01*
X114847221Y-70261572D01*
X114856309Y-70251715D01*
X114857582Y-70250285D01*
X114861670Y-70246197D01*
X114869750Y-70235985D01*
X114878313Y-70225161D01*
X114882718Y-70219789D01*
X114921147Y-70174556D01*
X114921149Y-70174553D01*
X114928632Y-70165745D01*
X114933471Y-70156268D01*
X114936268Y-70151909D01*
X114942881Y-70143551D01*
X114947779Y-70133072D01*
X114947781Y-70133068D01*
X114972918Y-70079285D01*
X114975967Y-70073047D01*
X115002960Y-70020183D01*
X115008219Y-70009884D01*
X115010751Y-69999534D01*
X115012469Y-69994656D01*
X115016979Y-69985007D01*
X115027426Y-69934783D01*
X115064305Y-69854263D01*
X115108115Y-69812298D01*
X115164284Y-69772969D01*
X115164289Y-69772965D01*
X115171401Y-69767985D01*
X115338495Y-69600891D01*
X115343478Y-69593775D01*
X115343481Y-69593771D01*
X115469048Y-69414442D01*
X115469051Y-69414437D01*
X115474035Y-69407319D01*
X115573903Y-69193153D01*
X115598479Y-69101432D01*
X115632814Y-68973293D01*
X115632815Y-68973289D01*
X115635063Y-68964898D01*
X115650500Y-68788456D01*
X115650500Y-68371544D01*
X115635063Y-68195102D01*
X115616208Y-68124731D01*
X115576152Y-67975241D01*
X115573903Y-67966847D01*
X115514567Y-67839601D01*
X115495937Y-67753020D01*
X115516719Y-67666930D01*
X115572796Y-67598381D01*
X115653062Y-67560953D01*
X115694922Y-67556500D01*
X116895000Y-67556500D01*
X116981343Y-67576207D01*
G37*
G04 #@! TD.AperFunction*
G04 #@! TA.AperFunction,Conductor*
G36*
X101293048Y-76208207D02*
G01*
X101347419Y-76246786D01*
X102766919Y-77666287D01*
X102814038Y-77741276D01*
X102823954Y-77829282D01*
X102794703Y-77912875D01*
X102732079Y-77975499D01*
X102648486Y-78004750D01*
X102626206Y-78006001D01*
X102583466Y-78006001D01*
X102578370Y-78006530D01*
X102578364Y-78006530D01*
X102491385Y-78015554D01*
X102491382Y-78015555D01*
X102480555Y-78016678D01*
X102317310Y-78071141D01*
X102307479Y-78077225D01*
X102307476Y-78077226D01*
X102181440Y-78155219D01*
X102170972Y-78161697D01*
X102121464Y-78211291D01*
X102046518Y-78258474D01*
X101958521Y-78268467D01*
X101874902Y-78239290D01*
X101840037Y-78211536D01*
X101797886Y-78169459D01*
X101779854Y-78155219D01*
X101653150Y-78077117D01*
X101632325Y-78067406D01*
X101490382Y-78020325D01*
X101469272Y-78015799D01*
X101414304Y-78010167D01*
X101394993Y-78012541D01*
X101393518Y-78014941D01*
X101392000Y-78024160D01*
X101392000Y-79095000D01*
X101372293Y-79181343D01*
X101317074Y-79250584D01*
X101237282Y-79289011D01*
X101193000Y-79294000D01*
X100139527Y-79294000D01*
X100120557Y-79298330D01*
X100119363Y-79300810D01*
X100118790Y-79310255D01*
X100126546Y-79385013D01*
X100131117Y-79406175D01*
X100178436Y-79548008D01*
X100188180Y-79568808D01*
X100266509Y-79695386D01*
X100280774Y-79713385D01*
X100332789Y-79765309D01*
X100379973Y-79840257D01*
X100389966Y-79928254D01*
X100360788Y-80011873D01*
X100333035Y-80046737D01*
X100279564Y-80100302D01*
X100279561Y-80100306D01*
X100271392Y-80108489D01*
X100181092Y-80254984D01*
X100177454Y-80265951D01*
X100177453Y-80265954D01*
X100140195Y-80378284D01*
X100126914Y-80418324D01*
X100125807Y-80429132D01*
X100119305Y-80492591D01*
X100116500Y-80519965D01*
X100116501Y-81118034D01*
X100117030Y-81123130D01*
X100117030Y-81123136D01*
X100125820Y-81207853D01*
X100127178Y-81220945D01*
X100130625Y-81231277D01*
X100175459Y-81365659D01*
X100181641Y-81384190D01*
X100272197Y-81530528D01*
X100280379Y-81538696D01*
X100280380Y-81538697D01*
X100283091Y-81541403D01*
X100285277Y-81544875D01*
X100287561Y-81547757D01*
X100287248Y-81548005D01*
X100330275Y-81616351D01*
X100341500Y-81682240D01*
X100341500Y-82561686D01*
X100321793Y-82648029D01*
X100266574Y-82717270D01*
X100186782Y-82755697D01*
X100098218Y-82755697D01*
X100018426Y-82717270D01*
X100001786Y-82702400D01*
X99931401Y-82632015D01*
X99770362Y-82519254D01*
X99744951Y-82501461D01*
X99744950Y-82501460D01*
X99737830Y-82496475D01*
X99523663Y-82396607D01*
X99515275Y-82394360D01*
X99515271Y-82394358D01*
X99303803Y-82337696D01*
X99303799Y-82337695D01*
X99295408Y-82335447D01*
X99060000Y-82314851D01*
X98824592Y-82335447D01*
X98816201Y-82337695D01*
X98816197Y-82337696D01*
X98700727Y-82368636D01*
X98596337Y-82396607D01*
X98514407Y-82434812D01*
X98390047Y-82492802D01*
X98390044Y-82492804D01*
X98382171Y-82496475D01*
X98375053Y-82501459D01*
X98375048Y-82501462D01*
X98195719Y-82627029D01*
X98195718Y-82627030D01*
X98188599Y-82632015D01*
X98021505Y-82799109D01*
X97891592Y-82984644D01*
X97825928Y-83044066D01*
X97740981Y-83069113D01*
X97728584Y-83069500D01*
X97120561Y-83069500D01*
X97034218Y-83049793D01*
X96964977Y-82994574D01*
X96938432Y-82948940D01*
X96937741Y-82946530D01*
X96843573Y-82766404D01*
X96715109Y-82608891D01*
X96572768Y-82492801D01*
X96565409Y-82486799D01*
X96565408Y-82486799D01*
X96557596Y-82480427D01*
X96467533Y-82433343D01*
X96386407Y-82390931D01*
X96386406Y-82390930D01*
X96377470Y-82386259D01*
X96182087Y-82330234D01*
X96172653Y-82329392D01*
X96066234Y-82319894D01*
X96066227Y-82319894D01*
X96061816Y-82319500D01*
X95740047Y-82319500D01*
X95653704Y-82299793D01*
X95584463Y-82244574D01*
X95546036Y-82164782D01*
X95546036Y-82076218D01*
X95588388Y-81991657D01*
X95600632Y-81977245D01*
X95605471Y-81967768D01*
X95608268Y-81963409D01*
X95614881Y-81955051D01*
X95619779Y-81944572D01*
X95619781Y-81944568D01*
X95644918Y-81890785D01*
X95647967Y-81884547D01*
X95674960Y-81831683D01*
X95680219Y-81821384D01*
X95682749Y-81811043D01*
X95684471Y-81806152D01*
X95688979Y-81796507D01*
X95693009Y-81777136D01*
X95703429Y-81727040D01*
X95704962Y-81720269D01*
X95719709Y-81660001D01*
X95719709Y-81660000D01*
X95721815Y-81651394D01*
X95722500Y-81640352D01*
X95722500Y-81637512D01*
X95722683Y-81634474D01*
X95724618Y-81625170D01*
X95722573Y-81549598D01*
X95722500Y-81544216D01*
X95722500Y-80943199D01*
X96819001Y-80943199D01*
X96819530Y-80953438D01*
X96828728Y-81042089D01*
X96833296Y-81063243D01*
X96881542Y-81207853D01*
X96891282Y-81228645D01*
X96971144Y-81357700D01*
X96985411Y-81375700D01*
X97092818Y-81482920D01*
X97110842Y-81497155D01*
X97240040Y-81576794D01*
X97260848Y-81586497D01*
X97405560Y-81634496D01*
X97426682Y-81639024D01*
X97514115Y-81647983D01*
X97524245Y-81648500D01*
X97721577Y-81648500D01*
X97740547Y-81644170D01*
X97744000Y-81637000D01*
X97744000Y-81626076D01*
X98344000Y-81626076D01*
X98348330Y-81645046D01*
X98355500Y-81648499D01*
X98563699Y-81648499D01*
X98573938Y-81647970D01*
X98662589Y-81638772D01*
X98683743Y-81634204D01*
X98828353Y-81585958D01*
X98849145Y-81576218D01*
X98978200Y-81496356D01*
X98996200Y-81482089D01*
X99103420Y-81374682D01*
X99117655Y-81356658D01*
X99197294Y-81227460D01*
X99206997Y-81206652D01*
X99254996Y-81061940D01*
X99259524Y-81040818D01*
X99268483Y-80953385D01*
X99269000Y-80943255D01*
X99269000Y-80883423D01*
X99264670Y-80864453D01*
X99257500Y-80861000D01*
X98366423Y-80861000D01*
X98347453Y-80865330D01*
X98344000Y-80872500D01*
X98344000Y-81626076D01*
X97744000Y-81626076D01*
X97744000Y-80883423D01*
X97739670Y-80864453D01*
X97732500Y-80861000D01*
X96841424Y-80861000D01*
X96822454Y-80865330D01*
X96819001Y-80872500D01*
X96819001Y-80943199D01*
X95722500Y-80943199D01*
X95722500Y-78234178D01*
X95742207Y-78147835D01*
X95776008Y-78100197D01*
X95779546Y-78097546D01*
X95865526Y-77982824D01*
X95870502Y-77969549D01*
X95877311Y-77957113D01*
X95878355Y-77957684D01*
X95919230Y-77895713D01*
X95995240Y-77850262D01*
X96056803Y-77840500D01*
X96624517Y-77840500D01*
X96710860Y-77860207D01*
X96780101Y-77915426D01*
X96818528Y-77995218D01*
X96822480Y-78059784D01*
X96819018Y-78093567D01*
X96819017Y-78093589D01*
X96818500Y-78098634D01*
X96818500Y-78873366D01*
X96819031Y-78878479D01*
X96819031Y-78878488D01*
X96828165Y-78966516D01*
X96829359Y-78978019D01*
X96832804Y-78988346D01*
X96832805Y-78988349D01*
X96877642Y-79122741D01*
X96884744Y-79144029D01*
X96976834Y-79292845D01*
X97067114Y-79382967D01*
X97114297Y-79457913D01*
X97124290Y-79545911D01*
X97095113Y-79629530D01*
X97067359Y-79664394D01*
X96984580Y-79747318D01*
X96970345Y-79765342D01*
X96890706Y-79894540D01*
X96881003Y-79915348D01*
X96833004Y-80060060D01*
X96828476Y-80081182D01*
X96819517Y-80168615D01*
X96819000Y-80178745D01*
X96819000Y-80238577D01*
X96823330Y-80257547D01*
X96830500Y-80261000D01*
X99246576Y-80261000D01*
X99265546Y-80256670D01*
X99268999Y-80249500D01*
X99268999Y-80178801D01*
X99268470Y-80168562D01*
X99259272Y-80079911D01*
X99254704Y-80058757D01*
X99206458Y-79914147D01*
X99196718Y-79893355D01*
X99116856Y-79764300D01*
X99102589Y-79746300D01*
X99020888Y-79664741D01*
X98973704Y-79589794D01*
X98963711Y-79501796D01*
X98992888Y-79418177D01*
X99020642Y-79383313D01*
X99102798Y-79301013D01*
X99111984Y-79291811D01*
X99132139Y-79259114D01*
X99197750Y-79152672D01*
X99197751Y-79152671D01*
X99203814Y-79142834D01*
X99210479Y-79122741D01*
X99255490Y-78987040D01*
X99255491Y-78987037D01*
X99258910Y-78976728D01*
X99269500Y-78873366D01*
X99269500Y-78671697D01*
X100119387Y-78671697D01*
X100121760Y-78691005D01*
X100124163Y-78692482D01*
X100133381Y-78694000D01*
X100769577Y-78694000D01*
X100788547Y-78689670D01*
X100792000Y-78682500D01*
X100792000Y-78030324D01*
X100787670Y-78011354D01*
X100785191Y-78010160D01*
X100775745Y-78009587D01*
X100713486Y-78016047D01*
X100692327Y-78020617D01*
X100550492Y-78067936D01*
X100529692Y-78077680D01*
X100403114Y-78156009D01*
X100385120Y-78170270D01*
X100279955Y-78275619D01*
X100265719Y-78293646D01*
X100187617Y-78420350D01*
X100177906Y-78441175D01*
X100130828Y-78583111D01*
X100126299Y-78604236D01*
X100119387Y-78671697D01*
X99269500Y-78671697D01*
X99269500Y-78098634D01*
X99267268Y-78077117D01*
X99259765Y-78004812D01*
X99259765Y-78004811D01*
X99258641Y-77993981D01*
X99240623Y-77939973D01*
X99231992Y-77851835D01*
X99262459Y-77768677D01*
X99326158Y-77706872D01*
X99360160Y-77686239D01*
X99368452Y-77678915D01*
X99370453Y-77676914D01*
X99372741Y-77674885D01*
X99380685Y-77669677D01*
X99397758Y-77651655D01*
X99432699Y-77614770D01*
X99436454Y-77610913D01*
X100800582Y-76246786D01*
X100875571Y-76199667D01*
X100941296Y-76188500D01*
X101206705Y-76188500D01*
X101293048Y-76208207D01*
G37*
G04 #@! TD.AperFunction*
G04 #@! TA.AperFunction,Conductor*
G36*
X91142061Y-67576207D02*
G01*
X91211302Y-67631426D01*
X91249729Y-67711218D01*
X91249729Y-67799782D01*
X91247009Y-67810351D01*
X91223340Y-67892895D01*
X91219887Y-67911436D01*
X91210394Y-68017799D01*
X91210000Y-68026651D01*
X91210000Y-68257577D01*
X91214330Y-68276547D01*
X91221500Y-68280000D01*
X92811000Y-68280000D01*
X92897343Y-68299707D01*
X92966584Y-68354926D01*
X93005011Y-68434718D01*
X93010000Y-68479000D01*
X93010000Y-68681000D01*
X92990293Y-68767343D01*
X92935074Y-68836584D01*
X92855282Y-68875011D01*
X92811000Y-68880000D01*
X91232424Y-68880000D01*
X91213454Y-68884330D01*
X91210001Y-68891500D01*
X91210001Y-69133347D01*
X91210396Y-69142203D01*
X91219887Y-69248565D01*
X91223339Y-69267100D01*
X91273947Y-69443590D01*
X91281397Y-69462217D01*
X91366178Y-69624388D01*
X91377218Y-69641131D01*
X91492879Y-69782945D01*
X91507057Y-69797123D01*
X91617608Y-69887287D01*
X91672063Y-69957130D01*
X91690821Y-70043684D01*
X91670167Y-70129805D01*
X91614192Y-70198437D01*
X91533983Y-70235985D01*
X91491833Y-70240500D01*
X91273518Y-70240500D01*
X91187175Y-70220793D01*
X91132804Y-70182214D01*
X90215018Y-69264427D01*
X90167899Y-69189438D01*
X90157983Y-69101432D01*
X90168733Y-69055650D01*
X90170226Y-69051549D01*
X90173903Y-69043663D01*
X90176155Y-69035259D01*
X90232814Y-68823803D01*
X90232815Y-68823799D01*
X90235063Y-68815408D01*
X90255659Y-68580000D01*
X90235063Y-68344592D01*
X90223037Y-68299707D01*
X90176152Y-68124731D01*
X90173903Y-68116337D01*
X90127954Y-68017799D01*
X90077708Y-67910047D01*
X90077706Y-67910044D01*
X90074035Y-67902171D01*
X90051255Y-67869637D01*
X90017876Y-67787611D01*
X90023392Y-67699220D01*
X90066714Y-67621975D01*
X90139261Y-67571177D01*
X90214268Y-67556500D01*
X91055718Y-67556500D01*
X91142061Y-67576207D01*
G37*
G04 #@! TD.AperFunction*
M02*
