%TF.GenerationSoftware,KiCad,Pcbnew,6.0.11*%
%TF.CreationDate,2025-02-19T14:47:44+01:00*%
%TF.ProjectId,JetiMiniVarioPCB,4a657469-4d69-46e6-9956-6172696f5043,rev?*%
%TF.SameCoordinates,Original*%
%TF.FileFunction,Drillmap*%
%TF.FilePolarity,Positive*%
%FSLAX45Y45*%
G04 Gerber Fmt 4.5, Leading zero omitted, Abs format (unit mm)*
G04 Created by KiCad (PCBNEW 6.0.11) date 2025-02-19 14:47:44*
%MOMM*%
%LPD*%
G01*
G04 APERTURE LIST*
%ADD10C,0.100000*%
%ADD11C,0.200000*%
G04 APERTURE END LIST*
D10*
X7975600Y-8534400D02*
X11836400Y-8534400D01*
X11836400Y-6705600D02*
X11836400Y-8534400D01*
X7975600Y-6705600D02*
X11836400Y-6705600D01*
X7975600Y-8534400D02*
X7975600Y-6705600D01*
D11*
X8228219Y-8849876D02*
X8228219Y-8649876D01*
X8275838Y-8649876D01*
X8304409Y-8659400D01*
X8323457Y-8678448D01*
X8332981Y-8697495D01*
X8342505Y-8735590D01*
X8342505Y-8764162D01*
X8332981Y-8802257D01*
X8323457Y-8821305D01*
X8304409Y-8840352D01*
X8275838Y-8849876D01*
X8228219Y-8849876D01*
X8428219Y-8849876D02*
X8428219Y-8716543D01*
X8428219Y-8754638D02*
X8437743Y-8735590D01*
X8447267Y-8726067D01*
X8466314Y-8716543D01*
X8485362Y-8716543D01*
X8552029Y-8849876D02*
X8552029Y-8716543D01*
X8552029Y-8649876D02*
X8542505Y-8659400D01*
X8552029Y-8668924D01*
X8561552Y-8659400D01*
X8552029Y-8649876D01*
X8552029Y-8668924D01*
X8675838Y-8849876D02*
X8656790Y-8840352D01*
X8647267Y-8821305D01*
X8647267Y-8649876D01*
X8780600Y-8849876D02*
X8761552Y-8840352D01*
X8752029Y-8821305D01*
X8752029Y-8649876D01*
X9009171Y-8849876D02*
X9009171Y-8649876D01*
X9075838Y-8792733D01*
X9142505Y-8649876D01*
X9142505Y-8849876D01*
X9323457Y-8849876D02*
X9323457Y-8745114D01*
X9313933Y-8726067D01*
X9294886Y-8716543D01*
X9256790Y-8716543D01*
X9237743Y-8726067D01*
X9323457Y-8840352D02*
X9304410Y-8849876D01*
X9256790Y-8849876D01*
X9237743Y-8840352D01*
X9228219Y-8821305D01*
X9228219Y-8802257D01*
X9237743Y-8783210D01*
X9256790Y-8773686D01*
X9304410Y-8773686D01*
X9323457Y-8764162D01*
X9418695Y-8716543D02*
X9418695Y-8916543D01*
X9418695Y-8726067D02*
X9437743Y-8716543D01*
X9475838Y-8716543D01*
X9494886Y-8726067D01*
X9504410Y-8735590D01*
X9513933Y-8754638D01*
X9513933Y-8811781D01*
X9504410Y-8830829D01*
X9494886Y-8840352D01*
X9475838Y-8849876D01*
X9437743Y-8849876D01*
X9418695Y-8840352D01*
X9599648Y-8830829D02*
X9609171Y-8840352D01*
X9599648Y-8849876D01*
X9590124Y-8840352D01*
X9599648Y-8830829D01*
X9599648Y-8849876D01*
X9599648Y-8726067D02*
X9609171Y-8735590D01*
X9599648Y-8745114D01*
X9590124Y-8735590D01*
X9599648Y-8726067D01*
X9599648Y-8745114D01*
M02*
