G04 #@! TF.GenerationSoftware,KiCad,Pcbnew,6.0.11*
G04 #@! TF.CreationDate,2025-02-19T14:47:37+01:00*
G04 #@! TF.ProjectId,JetiMiniVarioPCB,4a657469-4d69-46e6-9956-6172696f5043,rev?*
G04 #@! TF.SameCoordinates,Original*
G04 #@! TF.FileFunction,Soldermask,Top*
G04 #@! TF.FilePolarity,Negative*
%FSLAX46Y46*%
G04 Gerber Fmt 4.6, Leading zero omitted, Abs format (unit mm)*
G04 Created by KiCad (PCBNEW 6.0.11) date 2025-02-19 14:47:37*
%MOMM*%
%LPD*%
G01*
G04 APERTURE LIST*
G04 Aperture macros list*
%AMRoundRect*
0 Rectangle with rounded corners*
0 $1 Rounding radius*
0 $2 $3 $4 $5 $6 $7 $8 $9 X,Y pos of 4 corners*
0 Add a 4 corners polygon primitive as box body*
4,1,4,$2,$3,$4,$5,$6,$7,$8,$9,$2,$3,0*
0 Add four circle primitives for the rounded corners*
1,1,$1+$1,$2,$3*
1,1,$1+$1,$4,$5*
1,1,$1+$1,$6,$7*
1,1,$1+$1,$8,$9*
0 Add four rect primitives between the rounded corners*
20,1,$1+$1,$2,$3,$4,$5,0*
20,1,$1+$1,$4,$5,$6,$7,0*
20,1,$1+$1,$6,$7,$8,$9,0*
20,1,$1+$1,$8,$9,$2,$3,0*%
%AMFreePoly0*
4,1,9,3.862500,-0.866500,0.737500,-0.866500,0.737500,-0.450000,-0.737500,-0.450000,-0.737500,0.450000,0.737500,0.450000,0.737500,0.866500,3.862500,0.866500,3.862500,-0.866500,3.862500,-0.866500,$1*%
G04 Aperture macros list end*
%ADD10RoundRect,0.237500X-0.250000X-0.237500X0.250000X-0.237500X0.250000X0.237500X-0.250000X0.237500X0*%
%ADD11C,1.700000*%
%ADD12RoundRect,0.500000X0.500000X-0.500000X0.500000X0.500000X-0.500000X0.500000X-0.500000X-0.500000X0*%
%ADD13O,1.700000X1.700000*%
%ADD14RoundRect,0.237500X0.237500X-0.250000X0.237500X0.250000X-0.237500X0.250000X-0.237500X-0.250000X0*%
%ADD15R,0.900000X1.300000*%
%ADD16FreePoly0,270.000000*%
%ADD17O,1.700000X1.998980*%
%ADD18RoundRect,0.250000X-0.475000X0.337500X-0.475000X-0.337500X0.475000X-0.337500X0.475000X0.337500X0*%
G04 APERTURE END LIST*
D10*
X109069500Y-75692000D03*
X110894500Y-75692000D03*
D11*
X114300000Y-77470000D03*
D12*
X92710000Y-68580000D03*
D11*
X114300000Y-72390000D03*
D13*
X88900000Y-73660000D03*
X86360000Y-73660000D03*
X83820000Y-73660000D03*
D14*
X102870000Y-80819000D03*
X102870000Y-78994000D03*
D15*
X94972000Y-77090000D03*
D16*
X93472000Y-77177500D03*
D15*
X91972000Y-77090000D03*
D12*
X95504000Y-68580000D03*
D13*
X88900000Y-83820000D03*
X86360000Y-83820000D03*
X83820000Y-83820000D03*
D17*
X114300000Y-68580000D03*
X111760000Y-68580000D03*
X109220000Y-68580000D03*
X106680000Y-68580000D03*
X104140000Y-68580000D03*
X101600000Y-68580000D03*
X99060000Y-68580000D03*
X99060000Y-83820000D03*
X101600000Y-83820000D03*
X104140000Y-83820000D03*
X106659680Y-83820000D03*
X109220000Y-83820000D03*
X111760000Y-83820000D03*
X114300000Y-83820000D03*
D18*
X88900000Y-78486000D03*
X88900000Y-80561000D03*
D12*
X92710000Y-83820000D03*
X95504000Y-83820000D03*
D18*
X98044000Y-78486000D03*
X98044000Y-80561000D03*
D14*
X101092000Y-80819000D03*
X101092000Y-78994000D03*
D11*
X114300000Y-80010000D03*
D10*
X109069500Y-73914000D03*
X110894500Y-73914000D03*
D13*
X88900000Y-76200000D03*
X86360000Y-76200000D03*
X83820000Y-76200000D03*
X88900000Y-68580000D03*
X86360000Y-68580000D03*
X83820000Y-68580000D03*
D11*
X114300000Y-74930000D03*
D13*
X88900000Y-71120000D03*
X86360000Y-71120000D03*
X83820000Y-71120000D03*
M02*
